<svg xmlns="http://www.w3.org/2000/svg" viewBox="0 0 245.13 215.85"><defs><style>.cls-1{fill:#fff;}.cls-2{fill:#f80000;}.cls-3{fill:#f29111;}.cls-4{fill:#324b5c;}</style></defs><title>aggregating</title><g id="Layer_2" data-name="Layer 2"><g id="Icons"><path class="cls-1" d="M113.53,7.26a24.79,24.79,0,0,0-35.06,0L42.87,42.87,58.73,58.73a5.28,5.28,0,0,1-1.65,8.61,26.76,26.76,0,0,0-8.39,5.21A12.47,12.47,0,1,0,66.32,90.18a27.13,27.13,0,0,0,5.21-8.39,5.28,5.28,0,0,1,8.61-1.65L96,96l15.86-15.86a5.28,5.28,0,0,0-1.65-8.61,27.13,27.13,0,0,1-8.39-5.21,12.47,12.47,0,1,1,17.63-17.63,26.76,26.76,0,0,1,5.21,8.39,5.28,5.28,0,0,0,8.61,1.65l15.86-15.86L113.53,7.26Z"/><path class="cls-2" d="M81.8,120.47a5.28,5.28,0,0,1-1.66-8.61L96,96,80.14,80.14a5.28,5.28,0,0,0-8.61,1.65,27.13,27.13,0,0,1-5.21,8.39A12.47,12.47,0,1,1,48.69,72.55a26.76,26.76,0,0,1,8.39-5.21,5.28,5.28,0,0,0,1.65-8.61L42.87,42.87,7.26,78.47a24.79,24.79,0,0,0,0,35.06l35.61,35.6,15.86-15.86a5.28,5.28,0,0,1,8.61,1.65,26.76,26.76,0,0,0,5.21,8.39,12.47,12.47,0,1,0,17.63-17.63,27.19,27.19,0,0,0-8.38-5.21Z"/><path class="cls-3" d="M237.87,78.47l-35.6-35.6L186.4,58.73a5.27,5.27,0,0,1-8.6-1.65,27,27,0,0,0-5.22-8.39A12.46,12.46,0,0,0,155,66.32a27,27,0,0,0,8.38,5.21A5.28,5.28,0,0,1,165,80.14L149.13,96,165,111.86a5.28,5.28,0,0,0,8.61-1.66,26.82,26.82,0,0,1,5.21-8.38,12.47,12.47,0,0,1,17.63,17.63,26.87,26.87,0,0,1-8.39,5.21,5.28,5.28,0,0,0-1.66,8.61l15.87,15.86,35.6-35.6a24.79,24.79,0,0,0,0-35.06Z"/><path class="cls-4" d="M157.11,157.12a5.29,5.29,0,0,1,1.66-8.61,26.76,26.76,0,0,0,8.39-5.21,12.47,12.47,0,0,0-17.63-17.63,27,27,0,0,0-5.21,8.38,5.28,5.28,0,0,1-8.61,1.66l-15.86-15.86L104,135.71a5.28,5.28,0,0,0,1.65,8.61,26.94,26.94,0,0,1,8.39,5.21A12.47,12.47,0,0,1,96.4,167.16a26.76,26.76,0,0,1-5.21-8.39,5.29,5.29,0,0,0-8.61-1.66L66.72,173l35.6,35.61a24.79,24.79,0,0,0,35.06,0L173,173l-15.87-15.86Z"/></g></g></svg>