<svg xmlns="http://www.w3.org/2000/svg" viewBox="0 0 192 180"><defs><style>.cls-1{fill:#e9eaea;}.cls-2{fill:#939699;}.cls-3{fill:#4f6c7d;}.cls-4{fill:#f29111;}.cls-5{fill:#942645;}.cls-6{fill:#324b5c;}.cls-7{fill:#cdb498;}.cls-8{fill:#283c4a;}.cls-9{fill:#b29d86;}.cls-10{fill:#f80000;}.cls-11{fill:#fff;}</style></defs><title>applying</title><g id="Layer_2" data-name="Layer 2"><g id="Icons"><polygon class="cls-1" points="51 129 51 6 186 6 186 129 51 129 51 129"/><path class="cls-2" d="M189,0H48a3,3,0,0,0-3,3V132a3,3,0,0,0,3,3H189a3,3,0,0,0,3-3V3a3,3,0,0,0-3-3Zm-3,6V129H51V6H186"/><path class="cls-3" d="M29.76,78.33,26,84.84s8.79,3.57,14.36,9.08h4l1,6.4c14,11,19.23,26.82,19.23,26.82,0-22.42-9.34-37.19-34.78-48.81Z"/><path d="M65.69,31.17l-4.63-3.44L58.89,31C42.18,25.57,27,33,27,50.12c0,7.37,8,19.24,8,19.24l2.51.6c1.33-6.76-.28-9.54-.84-11.59s.19-4.63,2.14-5.28c2.95-1,4.1,1.51,6.45.85s1.76-5.89,3-8.74,4.59-3.42,8.72-2.15c11,3.4,12.44-3.23,12.44-5.39,0-2.38-1.06-4.39-3.7-6.49Z"/><path class="cls-4" d="M99,57a15,15,0,1,0,15,15A15,15,0,0,0,99,57Zm0,6a9,9,0,1,1-9,9,9,9,0,0,1,9-9"/><path class="cls-5" d="M165.29,72l8.13-8.13a2,2,0,0,0,0-2.83L172,59.63a2,2,0,0,0-2.83,0L161,67.76l-8.13-8.13a2,2,0,0,0-2.83,0L148.67,61a2,2,0,0,0,0,2.83L156.8,72l-8.13,8.13a2,2,0,0,0,0,2.83l1.41,1.42a2,2,0,0,0,2.83,0L161,76.24l8.13,8.14a2,2,0,0,0,2.83,0L173.42,83a2,2,0,0,0,0-2.83L165.29,72Z"/><path class="cls-5" d="M123.29,31l8.13-8.13a2,2,0,0,0,0-2.83L130,18.58a2,2,0,0,0-2.83,0L119,26.71l-8.13-8.13a2,2,0,0,0-2.83,0L106.67,20a2,2,0,0,0,0,2.83L114.8,31l-8.13,8.13a2,2,0,0,0,0,2.83l1.41,1.41a2,2,0,0,0,2.83,0L119,35.2l8.13,8.13a2,2,0,0,0,2.83,0l1.42-1.41a2,2,0,0,0,0-2.83L123.29,31Z"/><path class="cls-2" d="M155,18a2,2,0,0,0-2,2v2a2,2,0,0,0,2,2h9.15c-22.19,27.13-45,36.11-45.22,36.2A3,3,0,0,0,120,66a2.86,2.86,0,0,0,1.07-.2c1-.38,24-9.35,46.93-37V37a2,2,0,0,0,2,2h2a2,2,0,0,0,2-2V18Z"/><path class="cls-6" d="M112.52,108.19,82.38,121,61.86,109C57.52,96.18,47.6,86.48,29.76,78.33L26,84.84h0c-1.74,1.56-3.46,3-5.64,4.78-4.5,3.59-8.42,7.83-10,13.36L.54,137.19a14.05,14.05,0,0,0,1.21,10.66L19.47,180H63.2l.85-37.39,15.67,2.26a6,6,0,0,0,4.06-.86l35.93-22.66-7.19-13.16Z"/><path class="cls-7" d="M143.51,92.11l-.18-1-13.82,8.66a5.71,5.71,0,0,0-2.78.89l-13.61,8.62,4.56,8.36,10.44-.6a3,3,0,0,0,1.6-.57l5.64-4.13a3,3,0,0,0,.73-4.08l-2.62-4,8.89-8.66a3.84,3.84,0,0,0,1.15-3.53Z"/><path class="cls-8" d="M64.54,124.64c0,2.43-.07,5-.27,7.93l-.22,10,6.81,1-6.32-19Z"/><path class="cls-7" d="M69.3,62.15s-3.13-7.78-3.13-9.26,1-3,.86-7.12a9.66,9.66,0,0,0-.45-2.8c-1.83,1.14-4.82,1.57-9.63.08-4.13-1.27-7.49-.67-8.72,2.15s-.64,8.08-3,8.74-3.5-1.84-6.45-.85c-2,.65-2.75,3.08-2.14,5.28.51,1.88,1.9,4.36,1.12,9.94h0c-.07.52-.17,1.07-.28,1.65a18.83,18.83,0,0,1-3.58,7A58.12,58.12,0,0,1,52.57,88l2.61-9.51c.62.07,1.22.13,1.79.21,3,.39,5.89-.63,6.87-4.08.93-3.28,2.54-9.71,2.54-9.71a3.48,3.48,0,0,0,2.74-1.26,1.65,1.65,0,0,0,.18-1.45Z"/><path class="cls-9" d="M52.57,88l2.61-9.51c-3.36-.38-7.27-.84-10.55-2.75l1.72,7.51A54.41,54.41,0,0,1,52.57,88Z"/><path class="cls-10" d="M63.67,116.2c-.86-6.78-2.56-15-5.88-19.06,0,0-.27-3.49-3.84-7.92l-.84,5a42.19,42.19,0,0,1,10.56,22Z"/><path class="cls-11" d="M53.11,94.2l.84-5a57,57,0,0,0-22.8-13.1l-.59,2.59c9.85,4.58,17.23,9.66,22.55,15.49Z"/><path class="cls-3" d="M29.76,78.33,26,84.84s8.79,3.57,14.36,9.08h4l1,6.4c14,11,19.23,26.82,19.23,26.82,0-22.42-9.34-37.19-34.78-48.81Z"/><polygon class="cls-8" points="44.97 180 32.56 124.01 21.11 145.11 36.87 180 44.97 180 44.97 180"/></g></g></svg>