<svg xmlns="http://www.w3.org/2000/svg" viewBox="0 0 192 174"><defs><style>.cls-1{fill:#eeefef;}.cls-1,.cls-2,.cls-3,.cls-4,.cls-5,.cls-6,.cls-7,.cls-8{fill-rule:evenodd;}.cls-2{fill:#fff;}.cls-3{fill:#939699;}.cls-4{fill:#942645;}.cls-5{fill:#f29111;}.cls-6{fill:#f80000;}.cls-7{fill:#6d8c9e;}.cls-8{fill:#d90000;}.cls-9{fill:#b9bbbd;}.cls-10{fill:#324b5c;}.cls-11{fill:#4f6c7d;}</style></defs><title>appraising</title><g id="Layer_2" data-name="Layer 2"><g id="Icons"><polygon class="cls-1" points="0 48 24 48 24 24 0 48 0 48"/><polygon class="cls-2" points="24 24 117 24 117 174 0 174 0 48 24 48 24 24 24 24"/><polygon class="cls-3" points="93 150 24 150 24 144 93 144 93 150 93 150"/><polygon class="cls-3" points="93 129 24 129 24 123 93 123 93 129 93 129"/><polygon class="cls-4" points="24 111 24 84 33 84 33 111 24 111 24 111"/><polygon class="cls-5" points="42 111 42 63 51 63 51 111 42 111 42 111"/><polygon class="cls-6" points="60 111 60 47 69 47 69 111 60 111 60 111"/><polygon class="cls-7" points="78 111 78 54 87 54 87 111 78 111 78 111"/><path class="cls-1" d="M136.5,45A40.5,40.5,0,1,1,96,4.5,40.5,40.5,0,0,1,136.5,45Z"/><path class="cls-8" d="M72,77.63a40.33,40.33,0,0,0,18,7.43V30H72V77.63Z"/><path class="cls-7" d="M105,84.5a40.46,40.46,0,0,0,18-9.31V48H105V84.5Z"/><path class="cls-9" d="M70.54,70.46a36,36,0,1,1,50.92,0,36,36,0,0,1-50.92,0Zm78.74,19.33L131.78,72.3a45,45,0,1,0-8.48,8.48l17.49,17.5,8.49-8.49Z"/><path class="cls-10" d="M143,87.57,138.57,92a6,6,0,0,0-.21,8.26L172.52,138a9,9,0,0,0,13,.32l3.8-3.8a9,9,0,0,0-.32-13L151.28,87.37a6,6,0,0,0-8.26.2Z"/><path class="cls-11" d="M151.28,87.37a6,6,0,0,0-8.26.2l-2.23,2.22,46.67,46.67,1.9-1.9a9,9,0,0,0-.32-13L151.28,87.37Z"/></g></g></svg>