<svg xmlns="http://www.w3.org/2000/svg" viewBox="0 0 150.4 150.4"><defs><style>.cls-1{fill:#bde6ee;}.cls-2{fill:#d3eef4;}.cls-3{fill:#4f6c7d;}.cls-4{fill:#324b5c;}.cls-5{fill:#b9bbbd;}</style></defs><title>aquiring</title><g id="Layer_2" data-name="Layer 2"><g id="Text"><path class="cls-1" d="M17.43,17.43a43.47,43.47,0,1,0,61.48,0,43.49,43.49,0,0,0-61.48,0Z"/><path class="cls-2" d="M17.43,17.43a43.49,43.49,0,0,0,0,61.48L78.91,17.43a43.49,43.49,0,0,0-61.48,0Z"/><path class="cls-3" d="M98.08,93.2,93.2,98.08a6.27,6.27,0,0,0-.22,8.64l36.74,40.58a9.4,9.4,0,0,0,13.62.34l4.3-4.3a9.4,9.4,0,0,0-.34-13.62L106.72,93a6.27,6.27,0,0,0-8.64.22Z"/><path class="cls-4" d="M93,106.72l36.74,40.58a9.4,9.4,0,0,0,13.62.34l2.15-2.15L95.64,95.64,93.2,98.08a6.27,6.27,0,0,0-.22,8.64Z"/><path class="cls-5" d="M20.76,75.59A38.77,38.77,0,1,1,75.59,20.76,38.77,38.77,0,1,1,20.76,75.59Zm65.38,2.24a48.18,48.18,0,1,0-8.31,8.31l14,14a6.29,6.29,0,0,1,1.37-2.06l4.88-4.88a6.29,6.29,0,0,1,2.06-1.37l-14-14Z"/></g></g></svg>