<svg xmlns="http://www.w3.org/2000/svg" viewBox="0 0 179.33 179.33"><defs><style>.cls-1{fill:#939699;}.cls-2{fill:#fff;}.cls-3{fill:#dee0e0;}</style></defs><title>Asset 2</title><g id="Layer_2" data-name="Layer 2"><g id="Text"><circle class="cls-1" cx="89.67" cy="89.67" r="89.67"/><path class="cls-2" d="M75.16,114.72V103.19c0-2.73,0-5.71,4.59-10.91L85.2,86.2c5-5.58,9.43-11.78,9.43-18,0-3-1-12.27-14.88-12.27-5.71,0-9.67,1.11-16.49,3V46a78.25,78.25,0,0,1,20.95-2.48c14.63,0,29.51,6.57,29.51,23.18a20.8,20.8,0,0,1-3.47,11.91c-3.72,5.33-5.08,6.57-6.45,7.81l-7.07,6.32c-6.57,6-7.44,7.81-7.44,11.91v10Zm-.37,5.21H89.67v14.88H74.79Z"/><path class="cls-3" d="M130.32,80.79V75.14c0-1.34,0-2.8,2.25-5.35l2.67-3c2.43-2.73,4.62-5.77,4.62-8.81,0-1.46-.49-6-7.29-6-2.8,0-4.74.55-8.09,1.46V47.12a38.77,38.77,0,0,1,10.27-1.21c7.18,0,14.47,3.22,14.47,11.36a10.18,10.18,0,0,1-1.7,5.84,19.25,19.25,0,0,1-3.16,3.83L140.89,70c-3.22,2.92-3.64,3.83-3.64,5.84v4.92Zm-.18,2.55h7.29v7.3h-7.29Z"/><path class="cls-3" d="M113.17,132.87v-3.71a4.53,4.53,0,0,1,1.48-3.52l1.75-2c1.6-1.8,3-3.8,3-5.79,0-1-.32-4-4.79-4a18.52,18.52,0,0,0-5.32,1v-4.15a25.24,25.24,0,0,1,6.75-.8c4.72,0,9.51,2.12,9.51,7.47a6.67,6.67,0,0,1-1.12,3.83,12.4,12.4,0,0,1-2.08,2.52l-2.27,2c-2.12,1.92-2.4,2.52-2.4,3.84v3.23Zm-.12,1.68h4.79v4.79h-4.79Z"/><path class="cls-3" d="M33.61,110.85V105c0-1.38,0-2.9,2.34-5.55l2.78-3.09c2.52-2.85,4.79-6,4.79-9.16,0-1.51-.5-6.25-7.57-6.25-2.91,0-4.93.57-8.4,1.52V75.87a40,40,0,0,1,10.67-1.26c7.45,0,15,3.34,15,11.8a10.57,10.57,0,0,1-1.77,6.06,19.82,19.82,0,0,1-3.28,4l-3.6,3.22c-3.35,3-3.79,4-3.79,6.06v5.12Zm-.19,2.65H41v7.57H33.42Z"/></g></g></svg>