<svg xmlns="http://www.w3.org/2000/svg" viewBox="0 0 141 192"><defs><style>.cls-1{fill:#324b5c;}.cls-1,.cls-2,.cls-3,.cls-8{fill-rule:evenodd;}.cls-2,.cls-4{fill:#b9bbbd;}.cls-3{fill:#e9eaea;}.cls-5{fill:#cbcece;}.cls-6{fill:#f29111;}.cls-7{fill:#6d8c9e;}.cls-8{fill:#939699;}</style></defs><title>assessing</title><g id="Layer_2" data-name="Layer 2"><g id="Icons"><path class="cls-1" d="M141,186a6,6,0,0,1-6,6H6a6,6,0,0,1-6-6V24a6,6,0,0,1,6-6H135a6,6,0,0,1,6,6V186Z"/><polygon class="cls-2" points="12 156 36 156.01 35.99 180.01 12 156 12 156"/><polygon class="cls-3" points="35.99 180.01 128.99 180.04 129.04 30.04 12.04 30 12 156 36 156.01 35.99 180.01 35.99 180.01"/><polygon class="cls-4" points="104.93 36 36 36 36 30 105 30 104.93 36 104.93 36"/><path class="cls-5" d="M70.54,9A4.5,4.5,0,1,1,66,13.5,4.51,4.51,0,0,1,70.54,9ZM96,12H84a13.5,13.5,0,0,0-26.83,0H45a9,9,0,0,0-9,9v9h69V21a9,9,0,0,0-9-9Z"/><path class="cls-6" d="M84.59,78l-5-5a2,2,0,0,1,0-2.83l1.41-1.41a2,2,0,0,1,2.83,0l5,4.95,11.32-11.32a2,2,0,0,1,2.82,0l1.42,1.42a2,2,0,0,1,0,2.83L93.07,78l-4.24,4.24L84.59,78Z"/><path class="cls-7" d="M96.49,108l7.07-7.07a2,2,0,0,0,0-2.83l-1.41-1.41a2,2,0,0,0-2.83,0l-7.08,7.07-7.07-7.07a2,2,0,0,0-2.82,0L80.93,98.1a2,2,0,0,0,0,2.83L88,108l-7.07,7.07a2,2,0,0,0,0,2.83l1.42,1.41a2,2,0,0,0,2.82,0l7.07-7.07,7.08,7.07a2,2,0,0,0,2.83,0l1.41-1.41a2,2,0,0,0,0-2.83L96.49,108Z"/><polygon class="cls-8" points="68.97 75 35.97 75 35.97 69 68.97 69 68.97 75 68.97 75"/><polygon class="cls-8" points="68.97 147 35.97 147 35.97 141 68.97 141 68.97 147 68.97 147"/><polygon class="cls-8" points="68.97 111 35.97 111 35.97 105 68.97 105 68.97 111 68.97 111"/><path class="cls-6" d="M84.59,150l-5-4.95a2,2,0,0,1,0-2.83l1.41-1.41a2,2,0,0,1,2.83,0l5,5,11.32-11.32a2,2,0,0,1,2.82,0l1.42,1.42a2,2,0,0,1,0,2.83L93.07,150l-4.24,4.24L84.59,150Z"/></g></g></svg>