<svg xmlns="http://www.w3.org/2000/svg" viewBox="0 0 1120.19 841.89"><defs><style>.cls-1{fill:#f5f5f4;}.cls-2{fill:none;stroke-width:0.75px;}.cls-2,.cls-5{stroke:#dedfdf;stroke-miterlimit:10;}.cls-3{fill:#942745;}.cls-4{fill:#bee4ec;}.cls-5,.cls-6{fill:#939599;}.cls-5{stroke-width:2px;}.cls-6{font-size:11px;}.cls-12,.cls-6,.cls-7,.cls-9{font-family:ArialMT, Arial;}.cls-7{font-size:22px;}.cls-11,.cls-7,.cls-9{fill:#003b4c;}.cls-8{font-size:18px;}.cls-11,.cls-9{font-size:15px;}.cls-10{letter-spacing:-0.04em;}.cls-11{font-family:UniversLTStd-Light, UniversLTStd Light;}.cls-13{letter-spacing:-0.02em;}.cls-14{letter-spacing:-0.02em;}</style></defs><title>Asset 4</title><g id="Layer_2" data-name="Layer 2"><g id="Layer_1-2" data-name="Layer 1"><rect class="cls-1" width="1115" height="841.89"/><line class="cls-2" x1="1106.82" y1="505.18" x2="80.44" y2="505.18"/><line class="cls-2" x1="1106.82" y1="461.37" x2="80.44" y2="461.37"/><line class="cls-2" x1="1106.82" y1="417.57" x2="80.44" y2="417.57"/><line class="cls-2" x1="1106.82" y1="373.77" x2="80.44" y2="373.77"/><line class="cls-2" x1="1106.82" y1="329.97" x2="80.44" y2="329.97"/><line class="cls-2" x1="1106.82" y1="286.16" x2="80.44" y2="286.16"/><line class="cls-2" x1="1106.82" y1="242.36" x2="80.44" y2="242.36"/><line class="cls-2" x1="1106.82" y1="198.56" x2="80.44" y2="198.56"/><line class="cls-2" x1="1106.82" y1="154.76" x2="80.44" y2="154.76"/><rect class="cls-3" x="119.28" y="177.02" width="22" height="371.96"/><rect class="cls-3" x="192.52" y="198.56" width="22" height="350.42"/><rect class="cls-4" x="265.76" y="203.52" width="22" height="345.46"/><rect class="cls-3" x="339" y="229.61" width="22" height="319.37"/><rect class="cls-3" x="412.24" y="242.36" width="22" height="306.62"/><rect class="cls-3" x="485.48" y="281.21" width="22" height="267.77"/><rect class="cls-4" x="558.72" y="297.62" width="22" height="251.36"/><rect class="cls-4" x="631.96" y="334.92" width="22" height="214.06"/><rect class="cls-4" x="705.2" y="368.81" width="22" height="180.17"/><rect class="cls-4" x="778.44" y="378.73" width="22" height="170.25"/><rect class="cls-4" x="851.68" y="378.73" width="22" height="170.25"/><rect class="cls-3" x="924.92" y="395.67" width="22" height="153.31"/><rect class="cls-4" x="1071.4" y="481.94" width="22" height="67.04"/><rect class="cls-4" x="998.16" y="438.95" width="22" height="110.03"/><line class="cls-5" x1="1106.82" y1="548.98" x2="85.69" y2="548.98"/><line class="cls-2" x1="86.32" y1="548.24" x2="86.32" y2="154.76"/><text class="cls-6" transform="translate(52.4 157.68)">45%</text><text class="cls-6" transform="translate(52.4 201.48)">40%</text><text class="cls-6" transform="translate(52.4 245.28)">35%</text><text class="cls-6" transform="translate(52.4 289.08)">30%</text><text class="cls-6" transform="translate(52.4 332.89)">25%</text><text class="cls-6" transform="translate(52.4 376.69)">20%</text><text class="cls-6" transform="translate(52.4 420.49)">15%</text><text class="cls-6" transform="translate(52.4 464.29)">10%</text><text class="cls-6" transform="translate(58.52 508.1)">5%</text><text class="cls-6" transform="translate(58.52 551.9)">0%</text><text class="cls-7" transform="translate(277.46 57.78)">How important are the following aspects when choosing a job?<tspan class="cls-8"><tspan x="27.11" y="29.6">Shows % of respondents (n=208) that ranked factor as very important</tspan></tspan></text><rect class="cls-1" x="59.08" y="550.98" width="1055.92" height="226"/><text class="cls-9" transform="translate(127.71 635.45) rotate(-90)">Great work <tspan x="-10.86" y="18">relationships</tspan></text><text class="cls-9" transform="translate(201.07 702.4) rotate(-90)"><tspan class="cls-10">T</tspan><tspan x="8.61" y="0">raining and learning </tspan><tspan x="54.48" y="18">opportunities</tspan></text><text class="cls-11" transform="translate(274.5 690.42) rotate(-90)">S<tspan class="cls-12" x="7.39" y="0">alary and financial </tspan><tspan class="cls-12"><tspan x="61.6" y="18">incentives</tspan></tspan></text><text class="cls-9" transform="translate(347.95 623.72) rotate(-90)">Flexibility</text><text class="cls-9" transform="translate(421.38 658.78) rotate(-90)">Organisational <tspan x="51.7" y="18">culture</tspan></text><text class="cls-9" transform="translate(494.78 658.83) rotate(-90)">Autonomy and <tspan x="-24.13" y="18">control in my work</tspan></text><text class="cls-9" transform="translate(568.25 691.27) rotate(-90)">Quality of products/<tspan x="74.22" y="18">services</tspan></text><text class="cls-9" transform="translate(641.66 642.15) rotate(-90)">Job security</text><text class="cls-9" transform="translate(715.09 619.62) rotate(-90)">Diversity</text><text class="cls-9" transform="translate(788.53 697.13) rotate(-90)">Company reputation</text><text class="cls-9" transform="translate(861.96 671.35) rotate(-90)">Global presence</text><text class="cls-9" transform="translate(935.39 669.05) rotate(-90)"><tspan class="cls-13">W</tspan><tspan x="13.89" y="0">ellbeing o</tspan><tspan class="cls-14" x="78.1" y="0">f</tspan><tspan x="82" y="0">fers</tspan></text><text class="cls-9" transform="matrix(0, -1, 1, 0, 1008.87, 662.9)">State-of-the-art <tspan x="28.32" y="18">technology</tspan></text><text class="cls-9" transform="matrix(0, -1, 1, 0, 1082.3, 593.69)">CSR</text><text class="cls-7" transform="translate(397.83 752.58)">Factors related to mental well-being</text><rect class="cls-3" x="374.34" y="740.48" width="10.1" height="10.1"/></g></g></svg>