<svg xmlns="http://www.w3.org/2000/svg" viewBox="0 0 255.93 272.99"><defs><style>.cls-1{fill:#4f6c7d;}.cls-2{fill:#324b5c;}.cls-3{fill:#a6a9ab;}.cls-4{fill:#4e5052;}.cls-5{fill:#7d7f81;}.cls-6{fill:#cbcece;}.cls-7{fill:#bde6ee;}.cls-8{fill:#d3eef4;}</style></defs><title>Asset 5</title><g id="Layer_2" data-name="Layer 2"><g id="Icons"><polygon class="cls-1" points="166.36 260.2 59.72 260.2 59.72 12.8 166.36 12.8 166.36 260.2 166.36 260.2"/><polygon class="cls-2" points="132.23 51.19 115.17 51.19 115.17 38.39 132.23 38.39 132.23 51.19 132.23 51.19"/><polygon class="cls-2" points="153.56 51.19 136.5 51.19 136.5 38.39 153.56 38.39 153.56 51.19 153.56 51.19"/><polygon class="cls-2" points="110.9 51.19 93.84 51.19 93.84 38.39 110.9 38.39 110.9 51.19 110.9 51.19"/><polygon class="cls-2" points="89.58 51.19 72.51 51.19 72.51 38.39 89.58 38.39 89.58 51.19 89.58 51.19"/><polygon class="cls-2" points="132.23 68.25 115.17 68.25 115.17 55.45 132.23 55.45 132.23 68.25 132.23 68.25"/><polygon class="cls-2" points="153.56 68.25 136.5 68.25 136.5 55.45 153.56 55.45 153.56 68.25 153.56 68.25"/><polygon class="cls-2" points="110.9 68.25 93.84 68.25 93.84 55.45 110.9 55.45 110.9 68.25 110.9 68.25"/><polygon class="cls-2" points="89.58 68.25 72.51 68.25 72.51 55.45 89.58 55.45 89.58 68.25 89.58 68.25"/><polygon class="cls-2" points="132.23 85.31 115.17 85.31 115.17 72.51 132.23 72.51 132.23 85.31 132.23 85.31"/><polygon class="cls-2" points="153.56 85.31 136.5 85.31 136.5 72.51 153.56 72.51 153.56 85.31 153.56 85.31"/><polygon class="cls-2" points="110.9 85.31 93.84 85.31 93.84 72.51 110.9 72.51 110.9 85.31 110.9 85.31"/><polygon class="cls-2" points="89.58 85.31 72.51 85.31 72.51 72.51 89.58 72.51 89.58 85.31 89.58 85.31"/><polygon class="cls-2" points="132.23 102.37 115.17 102.37 115.17 89.58 132.23 89.58 132.23 102.37 132.23 102.37"/><polygon class="cls-2" points="153.56 102.37 136.5 102.37 136.5 89.58 153.56 89.58 153.56 102.37 153.56 102.37"/><polygon class="cls-2" points="110.9 102.37 93.84 102.37 93.84 89.58 110.9 89.58 110.9 102.37 110.9 102.37"/><polygon class="cls-2" points="89.58 102.37 72.51 102.37 72.51 89.58 89.58 89.58 89.58 102.37 89.58 102.37"/><polygon class="cls-2" points="132.23 34.12 115.17 34.12 115.17 21.33 132.23 21.33 132.23 34.12 132.23 34.12"/><polygon class="cls-2" points="153.56 34.12 136.5 34.12 136.5 21.33 153.56 21.33 153.56 34.12 153.56 34.12"/><polygon class="cls-2" points="110.9 34.12 93.84 34.12 93.84 21.33 110.9 21.33 110.9 34.12 110.9 34.12"/><polygon class="cls-2" points="89.58 34.12 72.51 34.12 72.51 21.33 89.58 21.33 89.58 34.12 89.58 34.12"/><polygon class="cls-3" points="136.5 46.92 136.5 273 243.14 273 243.14 0 136.5 46.92 136.5 46.92"/><polygon class="cls-4" points="200.48 260.2 179.15 260.2 179.15 238.87 200.48 238.87 200.48 260.2 200.48 260.2"/><polygon class="cls-5" points="200.48 260.2 183.42 260.2 183.42 243.14 200.48 243.14 200.48 260.2 200.48 260.2"/><polygon class="cls-6" points="204.75 238.87 174.89 238.87 174.89 234.6 204.75 234.6 204.75 238.87 204.75 238.87"/><polygon class="cls-7" points="174.89 174.89 153.56 174.89 153.56 162.09 174.89 162.09 174.89 174.89 174.89 174.89"/><polygon class="cls-7" points="174.89 196.22 153.56 196.22 153.56 183.42 174.89 183.42 174.89 196.22 174.89 196.22"/><polygon class="cls-7" points="174.89 217.54 153.56 217.54 153.56 204.75 174.89 204.75 174.89 217.54 174.89 217.54"/><polygon class="cls-7" points="174.89 110.9 153.56 110.9 153.56 98.11 174.89 98.11 174.89 110.9 174.89 110.9"/><polygon class="cls-7" points="174.89 132.23 153.56 132.23 153.56 119.44 174.89 119.44 174.89 132.23 174.89 132.23"/><polygon class="cls-7" points="174.89 153.56 153.56 153.56 153.56 140.76 174.89 140.76 174.89 153.56 174.89 153.56"/><polygon class="cls-7" points="174.89 89.58 153.56 89.58 153.56 76.78 174.89 76.78 174.89 89.58 174.89 89.58"/><polygon class="cls-7" points="200.48 174.89 179.15 174.89 179.15 162.09 200.48 162.09 200.48 174.89 200.48 174.89"/><polygon class="cls-7" points="200.48 196.22 179.15 196.22 179.15 183.42 200.48 183.42 200.48 196.22 200.48 196.22"/><polygon class="cls-7" points="200.48 217.54 179.15 217.54 179.15 204.75 200.48 204.75 200.48 217.54 200.48 217.54"/><polygon class="cls-7" points="200.48 110.9 179.15 110.9 179.15 98.11 200.48 98.11 200.48 110.9 200.48 110.9"/><polygon class="cls-7" points="200.48 132.23 179.15 132.23 179.15 119.44 200.48 119.44 200.48 132.23 200.48 132.23"/><polygon class="cls-7" points="200.48 153.56 179.15 153.56 179.15 140.76 200.48 140.76 200.48 153.56 200.48 153.56"/><polygon class="cls-7" points="200.48 89.58 179.15 89.58 179.15 76.78 200.48 76.78 200.48 89.58 200.48 89.58"/><polygon class="cls-7" points="226.07 174.89 204.75 174.89 204.75 162.09 226.07 162.09 226.07 174.89 226.07 174.89"/><polygon class="cls-7" points="226.07 196.22 204.75 196.22 204.75 183.42 226.07 183.42 226.07 196.22 226.07 196.22"/><polygon class="cls-7" points="226.07 217.54 204.75 217.54 204.75 204.75 226.07 204.75 226.07 217.54 226.07 217.54"/><polygon class="cls-7" points="226.07 110.9 204.75 110.9 204.75 98.11 226.07 98.11 226.07 110.9 226.07 110.9"/><polygon class="cls-7" points="226.07 132.23 204.75 132.23 204.75 119.44 226.07 119.44 226.07 132.23 226.07 132.23"/><polygon class="cls-7" points="226.07 153.56 204.75 153.56 204.75 140.76 226.07 140.76 226.07 153.56 226.07 153.56"/><polygon class="cls-7" points="226.07 89.58 204.75 89.58 204.75 76.78 226.07 76.78 226.07 89.58 226.07 89.58"/><polygon class="cls-7" points="174.89 68.25 153.56 68.25 153.56 55.45 174.89 55.45 174.89 68.25 174.89 68.25"/><polygon class="cls-7" points="200.48 68.25 179.15 68.25 179.15 55.45 200.48 55.45 200.48 68.25 200.48 68.25"/><polygon class="cls-7" points="226.07 68.25 204.75 68.25 204.75 55.45 226.07 55.45 226.07 68.25 226.07 68.25"/><polygon class="cls-8" points="174.89 98.11 153.56 98.11 153.56 110.9 170.62 110.9 174.89 106.64 174.89 98.11 174.89 98.11"/><polygon class="cls-8" points="153.56 127.97 162.09 119.44 153.56 119.44 153.56 127.97 153.56 127.97"/><polygon class="cls-8" points="213.28 68.25 226.07 55.45 204.75 55.45 204.75 68.25 213.28 68.25 213.28 68.25"/><polygon class="cls-8" points="174.89 76.78 153.56 76.78 153.56 89.58 174.89 89.58 174.89 76.78 174.89 76.78"/><polygon class="cls-8" points="200.48 68.25 200.48 55.45 179.15 55.45 179.15 68.25 200.48 68.25 200.48 68.25"/><polygon class="cls-8" points="174.89 68.25 174.89 55.45 153.56 55.45 153.56 68.25 174.89 68.25 174.89 68.25"/><polygon class="cls-8" points="200.48 76.78 179.15 76.78 179.15 89.58 191.95 89.58 200.48 81.05 200.48 76.78 200.48 76.78"/><polygon class="cls-8" points="179.15 102.37 183.42 98.11 179.15 98.11 179.15 102.37 179.15 102.37"/><polygon class="cls-5" points="12.8 98.11 145.03 98.11 145.03 273 12.8 273 12.8 98.11 12.8 98.11"/><polygon class="cls-7" points="127.97 238.87 98.11 238.87 98.11 204.75 127.97 204.75 127.97 238.87 127.97 238.87"/><polygon class="cls-7" points="127.97 196.22 98.11 196.22 98.11 162.09 127.97 162.09 127.97 196.22 127.97 196.22"/><polygon class="cls-7" points="93.84 238.87 63.98 238.87 63.98 204.75 93.84 204.75 93.84 238.87 93.84 238.87"/><polygon class="cls-7" points="93.84 196.22 63.98 196.22 63.98 162.09 93.84 162.09 93.84 196.22 93.84 196.22"/><polygon class="cls-7" points="59.72 238.87 29.86 238.87 29.86 204.75 59.72 204.75 59.72 238.87 59.72 238.87"/><polygon class="cls-7" points="59.72 196.22 29.86 196.22 29.86 162.09 59.72 162.09 59.72 196.22 59.72 196.22"/><polygon class="cls-7" points="127.97 153.56 98.11 153.56 98.11 119.44 127.97 119.44 127.97 153.56 127.97 153.56"/><polygon class="cls-7" points="93.84 153.56 63.98 153.56 63.98 119.44 93.84 119.44 93.84 153.56 93.84 153.56"/><polygon class="cls-7" points="59.72 153.56 29.86 153.56 29.86 119.44 59.72 119.44 59.72 153.56 59.72 153.56"/><polygon class="cls-8" points="63.98 217.54 76.78 204.75 63.98 204.75 63.98 217.54 63.98 217.54"/><polygon class="cls-8" points="93.84 119.44 63.98 119.44 63.98 153.56 93.84 153.56 93.84 119.44 93.84 119.44"/><polygon class="cls-8" points="93.84 162.09 63.98 162.09 63.98 196.22 85.31 196.22 93.84 187.68 93.84 162.09 93.84 162.09"/><polygon class="cls-8" points="98.11 162.09 98.11 183.42 119.44 162.09 98.11 162.09 98.11 162.09"/><polygon class="cls-8" points="98.11 119.44 98.11 153.56 127.97 153.56 127.97 119.44 98.11 119.44 98.11 119.44"/><polygon class="cls-8" points="59.72 221.81 59.72 204.75 29.86 204.75 29.86 238.87 42.66 238.87 59.72 221.81 59.72 221.81"/><polygon class="cls-8" points="59.72 162.09 29.86 162.09 29.86 196.22 59.72 196.22 59.72 162.09 59.72 162.09"/><polygon class="cls-8" points="59.72 119.44 29.86 119.44 29.86 153.56 59.72 153.56 59.72 119.44 59.72 119.44"/><polygon class="cls-2" points="0 260.2 255.93 260.2 255.93 273 0 273 0 260.2 0 260.2"/></g></g></svg>