<svg xmlns="http://www.w3.org/2000/svg" viewBox="0 0 1399.43 1174.25"><defs><style>.cls-1{fill:#4f6c7d;}.cls-2{fill:#324b5c;}.cls-3{fill:#a6a9ab;}.cls-4{fill:#4e5052;}.cls-5{fill:#7d7f81;}.cls-6{fill:#cbcece;}.cls-7{fill:#bde6ee;}.cls-8{fill:#d3eef4;}.cls-9{fill:#fff;}.cls-10{fill:#f29111;}.cls-11{fill:#f80000;}.cls-12{fill:#8aadbf;}.cls-13{fill:#942645;}.cls-14{fill:#dee0e0;}.cls-15{fill:#00758f;}</style></defs><title>buildng-charts</title><g id="Layer_2" data-name="Layer 2"><g id="Icons"><polygon class="cls-1" points="794.86 1136.59 481.04 1136.59 481.04 408.54 794.86 408.54 794.86 1136.59 794.86 1136.59"/><polygon class="cls-2" points="694.43 521.51 644.22 521.51 644.22 483.86 694.43 483.86 694.43 521.51 694.43 521.51"/><polygon class="cls-2" points="757.2 521.51 706.99 521.51 706.99 483.86 757.2 483.86 757.2 521.51 757.2 521.51"/><polygon class="cls-2" points="631.67 521.51 581.46 521.51 581.46 483.86 631.67 483.86 631.67 521.51 631.67 521.51"/><polygon class="cls-2" points="568.91 521.51 518.7 521.51 518.7 483.86 568.91 483.86 568.91 521.51 568.91 521.51"/><polygon class="cls-2" points="694.43 571.72 644.22 571.72 644.22 534.07 694.43 534.07 694.43 571.72 694.43 571.72"/><polygon class="cls-2" points="757.2 571.72 706.99 571.72 706.99 534.07 757.2 534.07 757.2 571.72 757.2 571.72"/><polygon class="cls-2" points="631.67 571.72 581.46 571.72 581.46 534.07 631.67 534.07 631.67 571.72 631.67 571.72"/><polygon class="cls-2" points="568.91 571.72 518.7 571.72 518.7 534.07 568.91 534.07 568.91 571.72 568.91 571.72"/><polygon class="cls-2" points="694.43 621.93 644.22 621.93 644.22 584.28 694.43 584.28 694.43 621.93 694.43 621.93"/><polygon class="cls-2" points="757.2 621.93 706.99 621.93 706.99 584.28 757.2 584.28 757.2 621.93 757.2 621.93"/><polygon class="cls-2" points="631.67 621.93 581.46 621.93 581.46 584.28 631.67 584.28 631.67 621.93 631.67 621.93"/><polygon class="cls-2" points="568.91 621.93 518.7 621.93 518.7 584.28 568.91 584.28 568.91 621.93 568.91 621.93"/><polygon class="cls-2" points="694.43 672.14 644.22 672.14 644.22 634.49 694.43 634.49 694.43 672.14 694.43 672.14"/><polygon class="cls-2" points="757.2 672.14 706.99 672.14 706.99 634.49 757.2 634.49 757.2 672.14 757.2 672.14"/><polygon class="cls-2" points="631.67 672.14 581.46 672.14 581.46 634.49 631.67 634.49 631.67 672.14 631.67 672.14"/><polygon class="cls-2" points="568.91 672.14 518.7 672.14 518.7 634.49 568.91 634.49 568.91 672.14 568.91 672.14"/><polygon class="cls-2" points="694.43 471.3 644.22 471.3 644.22 433.64 694.43 433.64 694.43 471.3 694.43 471.3"/><polygon class="cls-2" points="757.2 471.3 706.99 471.3 706.99 433.64 757.2 433.64 757.2 471.3 757.2 471.3"/><polygon class="cls-2" points="631.67 471.3 581.46 471.3 581.46 433.64 631.67 433.64 631.67 471.3 631.67 471.3"/><polygon class="cls-2" points="568.91 471.3 518.7 471.3 518.7 433.64 568.91 433.64 568.91 471.3 568.91 471.3"/><polygon class="cls-3" points="706.99 508.96 706.99 1174.25 1020.8 1174.25 1020.8 370.88 706.99 508.96 706.99 508.96"/><polygon class="cls-4" points="895.27 1136.59 832.51 1136.59 832.51 1073.83 895.27 1073.83 895.27 1136.59 895.27 1136.59"/><polygon class="cls-5" points="895.27 1136.59 845.07 1136.59 845.07 1086.38 895.27 1086.38 895.27 1136.59 895.27 1136.59"/><polygon class="cls-6" points="907.83 1073.83 819.96 1073.83 819.96 1061.27 907.83 1061.27 907.83 1073.83 907.83 1073.83"/><polygon class="cls-7" points="819.96 885.54 757.2 885.54 757.2 847.88 819.96 847.88 819.96 885.54 819.96 885.54"/><polygon class="cls-7" points="819.96 948.3 757.2 948.3 757.2 910.64 819.96 910.64 819.96 948.3 819.96 948.3"/><polygon class="cls-7" points="819.96 1011.06 757.2 1011.06 757.2 973.4 819.96 973.4 819.96 1011.06 819.96 1011.06"/><polygon class="cls-7" points="819.96 697.25 757.2 697.25 757.2 659.59 819.96 659.59 819.96 697.25 819.96 697.25"/><polygon class="cls-7" points="819.96 760.01 757.2 760.01 757.2 722.35 819.96 722.35 819.96 760.01 819.96 760.01"/><polygon class="cls-7" points="819.96 822.77 757.2 822.77 757.2 785.12 819.96 785.12 819.96 822.77 819.96 822.77"/><polygon class="cls-7" points="819.96 634.49 757.2 634.49 757.2 596.83 819.96 596.83 819.96 634.49 819.96 634.49"/><polygon class="cls-7" points="895.27 885.54 832.51 885.54 832.51 847.88 895.27 847.88 895.27 885.54 895.27 885.54"/><polygon class="cls-7" points="895.27 948.3 832.51 948.3 832.51 910.64 895.27 910.64 895.27 948.3 895.27 948.3"/><polygon class="cls-7" points="895.27 1011.06 832.51 1011.06 832.51 973.4 895.27 973.4 895.27 1011.06 895.27 1011.06"/><polygon class="cls-7" points="895.27 697.25 832.51 697.25 832.51 659.59 895.27 659.59 895.27 697.25 895.27 697.25"/><polygon class="cls-7" points="895.27 760.01 832.51 760.01 832.51 722.35 895.27 722.35 895.27 760.01 895.27 760.01"/><polygon class="cls-7" points="895.27 822.77 832.51 822.77 832.51 785.12 895.27 785.12 895.27 822.77 895.27 822.77"/><polygon class="cls-7" points="895.27 634.49 832.51 634.49 832.51 596.83 895.27 596.83 895.27 634.49 895.27 634.49"/><polygon class="cls-7" points="970.59 885.54 907.83 885.54 907.83 847.88 970.59 847.88 970.59 885.54 970.59 885.54"/><polygon class="cls-7" points="970.59 948.3 907.83 948.3 907.83 910.64 970.59 910.64 970.59 948.3 970.59 948.3"/><polygon class="cls-7" points="970.59 1011.06 907.83 1011.06 907.83 973.4 970.59 973.4 970.59 1011.06 970.59 1011.06"/><polygon class="cls-7" points="970.59 697.25 907.83 697.25 907.83 659.59 970.59 659.59 970.59 697.25 970.59 697.25"/><polygon class="cls-7" points="970.59 760.01 907.83 760.01 907.83 722.35 970.59 722.35 970.59 760.01 970.59 760.01"/><polygon class="cls-7" points="970.59 822.77 907.83 822.77 907.83 785.12 970.59 785.12 970.59 822.77 970.59 822.77"/><polygon class="cls-7" points="970.59 634.49 907.83 634.49 907.83 596.83 970.59 596.83 970.59 634.49 970.59 634.49"/><polygon class="cls-7" points="819.96 571.72 757.2 571.72 757.2 534.07 819.96 534.07 819.96 571.72 819.96 571.72"/><polygon class="cls-7" points="895.27 571.72 832.51 571.72 832.51 534.07 895.27 534.07 895.27 571.72 895.27 571.72"/><polygon class="cls-7" points="970.59 571.72 907.83 571.72 907.83 534.07 970.59 534.07 970.59 571.72 970.59 571.72"/><polygon class="cls-8" points="819.96 659.59 757.2 659.59 757.2 697.25 807.41 697.25 819.96 684.7 819.96 659.59 819.96 659.59"/><polygon class="cls-8" points="757.2 747.46 782.3 722.35 757.2 722.35 757.2 747.46 757.2 747.46"/><polygon class="cls-8" points="932.93 571.72 970.59 534.07 907.83 534.07 907.83 571.72 932.93 571.72 932.93 571.72"/><polygon class="cls-8" points="819.96 596.83 757.2 596.83 757.2 634.49 819.96 634.49 819.96 596.83 819.96 596.83"/><polygon class="cls-8" points="895.27 571.72 895.27 534.07 832.51 534.07 832.51 571.72 895.27 571.72 895.27 571.72"/><polygon class="cls-8" points="819.96 571.72 819.96 534.07 757.2 534.07 757.2 571.72 819.96 571.72 819.96 571.72"/><polygon class="cls-8" points="895.27 596.83 832.51 596.83 832.51 634.49 870.17 634.49 895.27 609.38 895.27 596.83 895.27 596.83"/><polygon class="cls-8" points="832.51 672.14 845.07 659.59 832.51 659.59 832.51 672.14 832.51 672.14"/><polygon class="cls-5" points="342.96 659.59 732.09 659.59 732.09 1174.25 342.96 1174.25 342.96 659.59 342.96 659.59"/><polygon class="cls-7" points="681.88 1073.83 594.01 1073.83 594.01 973.4 681.88 973.4 681.88 1073.83 681.88 1073.83"/><polygon class="cls-7" points="681.88 948.3 594.01 948.3 594.01 847.88 681.88 847.88 681.88 948.3 681.88 948.3"/><polygon class="cls-7" points="581.46 1073.83 493.59 1073.83 493.59 973.4 581.46 973.4 581.46 1073.83 581.46 1073.83"/><polygon class="cls-7" points="581.46 948.3 493.59 948.3 493.59 847.88 581.46 847.88 581.46 948.3 581.46 948.3"/><polygon class="cls-7" points="481.04 1073.83 393.17 1073.83 393.17 973.4 481.04 973.4 481.04 1073.83 481.04 1073.83"/><polygon class="cls-7" points="481.04 948.3 393.17 948.3 393.17 847.88 481.04 847.88 481.04 948.3 481.04 948.3"/><polygon class="cls-7" points="681.88 822.77 594.01 822.77 594.01 722.35 681.88 722.35 681.88 822.77 681.88 822.77"/><polygon class="cls-7" points="581.46 822.77 493.59 822.77 493.59 722.35 581.46 722.35 581.46 822.77 581.46 822.77"/><polygon class="cls-7" points="481.04 822.77 393.17 822.77 393.17 722.35 481.04 722.35 481.04 822.77 481.04 822.77"/><polygon class="cls-8" points="493.59 1011.06 531.25 973.4 493.59 973.4 493.59 1011.06 493.59 1011.06"/><polygon class="cls-8" points="581.46 722.35 493.59 722.35 493.59 822.77 581.46 822.77 581.46 722.35 581.46 722.35"/><polygon class="cls-8" points="581.46 847.88 493.59 847.88 493.59 948.3 556.36 948.3 581.46 923.2 581.46 847.88 581.46 847.88"/><polygon class="cls-8" points="594.01 847.88 594.01 910.64 656.78 847.88 594.01 847.88 594.01 847.88"/><polygon class="cls-8" points="594.01 722.35 594.01 822.77 681.88 822.77 681.88 722.35 594.01 722.35 594.01 722.35"/><polygon class="cls-8" points="481.04 1023.62 481.04 973.4 393.17 973.4 393.17 1073.83 430.83 1073.83 481.04 1023.62 481.04 1023.62"/><polygon class="cls-8" points="481.04 847.88 393.17 847.88 393.17 948.3 481.04 948.3 481.04 847.88 481.04 847.88"/><polygon class="cls-8" points="481.04 722.35 393.17 722.35 393.17 822.77 481.04 822.77 481.04 722.35 481.04 722.35"/><polygon class="cls-2" points="305.31 1136.59 1058.46 1136.59 1058.46 1174.25 305.31 1174.25 305.31 1136.59 305.31 1136.59"/><path class="cls-2" d="M118,516.13H236a117.4,117.4,0,0,0-15.82-59L118,516.13Z"/><polygon class="cls-9" points="117.98 516.13 117.98 516.13 117.98 516.13 117.98 516.13"/><path class="cls-10" d="M197.35,378.63a117.34,117.34,0,0,0-59-15.82v118l102.17-59A118.49,118.49,0,0,0,197.35,378.63Z"/><polygon class="cls-9" points="117.98 516.13 117.98 516.13 117.98 516.13 117.98 516.13"/><path class="cls-11" d="M118,516.13,59,618.3A118,118,0,0,0,236,516.13Z"/><path class="cls-12" d="M59,414a118.42,118.42,0,0,0-43.18,43.18l102.16,59v-118A117.33,117.33,0,0,0,59,414Z"/><path class="cls-13" d="M15.82,457.15A118,118,0,0,0,59,618.3l59-102.17Z"/><rect class="cls-11" x="240.53" y="168.68" width="31.24" height="93.71"/><rect class="cls-11" x="303" y="106.21" width="31.24" height="156.19"/><rect class="cls-11" x="427.95" y="74.97" width="31.24" height="187.42"/><rect class="cls-11" x="365.48" y="43.73" width="31.24" height="218.66"/><rect class="cls-14" x="874.64" width="218.66" height="218.66"/><rect class="cls-1" x="905.88" y="31.24" width="156.19" height="31.24"/><rect class="cls-1" x="905.88" y="93.71" width="156.19" height="31.24"/><rect class="cls-1" x="905.88" y="156.19" width="93.71" height="31.24"/><rect class="cls-9" x="1180.77" y="349.86" width="218.66" height="218.66"/><polygon class="cls-15" points="1274.48 390.25 1305.72 421.48 1377.34 349.86 1180.77 349.86 1180.77 483.96 1274.48 390.25"/><polygon class="cls-13" points="1305.72 465.65 1274.48 434.42 1180.77 528.13 1180.77 568.52 1399.43 568.52 1399.43 371.94 1305.72 465.65"/></g></g></svg>