<svg xmlns="http://www.w3.org/2000/svg" viewBox="0 0 1076.45 720.3"><defs><style>.cls-1{fill:none;stroke-width:0.75px;}.cls-1,.cls-4{stroke:#dedfdf;stroke-miterlimit:10;}.cls-2{fill:#942745;}.cls-3{fill:#bee4ec;}.cls-4,.cls-5{fill:#939599;}.cls-4{stroke-width:2px;}.cls-5{font-size:11px;}.cls-25,.cls-5,.cls-6{font-family:UniversLTStd-Light, UniversLTStd Light;}.cls-6{font-size:22px;}.cls-25,.cls-6{fill:#003b4c;}.cls-7{letter-spacing:-0.01em;}.cls-8{letter-spacing:0.02em;}.cls-9{letter-spacing:0em;}.cls-10{letter-spacing:-0.01em;}.cls-11{letter-spacing:-0.01em;}.cls-12{letter-spacing:0.01em;}.cls-13{font-size:18px;}.cls-14{letter-spacing:-0.01em;}.cls-15{letter-spacing:-0.01em;}.cls-16{letter-spacing:-0.01em;}.cls-17{letter-spacing:0em;}.cls-18{letter-spacing:0em;}.cls-19{letter-spacing:0em;}.cls-20{letter-spacing:0.01em;}.cls-21{letter-spacing:-0.01em;}.cls-22{letter-spacing:0.02em;}.cls-23{letter-spacing:0.02em;}.cls-24{letter-spacing:0em;}.cls-25{font-size:15px;}.cls-26{letter-spacing:-0.01em;}.cls-27{letter-spacing:0em;}.cls-28{letter-spacing:-0.01em;}.cls-29{letter-spacing:0em;}.cls-30{letter-spacing:-0.04em;}.cls-31{letter-spacing:-0.01em;}.cls-32{letter-spacing:0em;}.cls-33{letter-spacing:0.02em;}.cls-34{letter-spacing:0em;}.cls-35{letter-spacing:0.03em;}.cls-36{letter-spacing:-0.01em;}.cls-37{letter-spacing:0em;}.cls-38{letter-spacing:-0.02em;}.cls-39{letter-spacing:0em;}.cls-40{letter-spacing:0.01em;}.cls-41{letter-spacing:-0.01em;}.cls-42{letter-spacing:-0.01em;}.cls-43{letter-spacing:-0.01em;}.cls-44{letter-spacing:-0.01em;}.cls-45{letter-spacing:0.01em;}.cls-46{letter-spacing:0.01em;}.cls-47{letter-spacing:-0.01em;}.cls-48{letter-spacing:-0.03em;}.cls-49{letter-spacing:0.03em;}.cls-50{letter-spacing:0.02em;}.cls-51{letter-spacing:-0.04em;}.cls-52{letter-spacing:0.01em;}.cls-53{letter-spacing:-0.01em;}.cls-54{letter-spacing:-0.01em;}.cls-55{letter-spacing:-0.01em;}</style></defs><title>choosing-job</title><g id="Layer_2" data-name="Layer 2"><g id="Layer_1-2" data-name="Layer 1"><line class="cls-1" x1="1063.07" y1="465.95" x2="36.7" y2="465.95"/><line class="cls-1" x1="1063.07" y1="422.14" x2="36.7" y2="422.14"/><line class="cls-1" x1="1063.07" y1="378.34" x2="36.7" y2="378.34"/><line class="cls-1" x1="1063.07" y1="334.54" x2="36.7" y2="334.54"/><line class="cls-1" x1="1063.07" y1="290.74" x2="36.7" y2="290.74"/><line class="cls-1" x1="1063.07" y1="246.93" x2="36.7" y2="246.93"/><line class="cls-1" x1="1063.07" y1="203.13" x2="36.7" y2="203.13"/><line class="cls-1" x1="1063.07" y1="159.33" x2="36.7" y2="159.33"/><line class="cls-1" x1="1063.07" y1="115.53" x2="36.7" y2="115.53"/><rect class="cls-2" x="75.53" y="137.79" width="22" height="371.96"/><rect class="cls-2" x="148.77" y="159.33" width="22" height="350.42"/><rect class="cls-3" x="222.01" y="164.29" width="22" height="345.46"/><rect class="cls-2" x="295.25" y="190.38" width="22" height="319.37"/><rect class="cls-2" x="368.49" y="203.13" width="22" height="306.62"/><rect class="cls-2" x="441.73" y="241.98" width="22" height="267.77"/><rect class="cls-3" x="514.97" y="258.39" width="22" height="251.36"/><rect class="cls-3" x="588.21" y="295.69" width="22" height="214.06"/><rect class="cls-3" x="661.45" y="329.58" width="22" height="180.17"/><rect class="cls-3" x="734.69" y="339.5" width="22" height="170.25"/><rect class="cls-3" x="807.93" y="339.5" width="22" height="170.25"/><rect class="cls-2" x="881.17" y="356.44" width="22" height="153.31"/><rect class="cls-3" x="1027.65" y="442.71" width="22" height="67.04"/><rect class="cls-3" x="954.41" y="399.72" width="22" height="110.03"/><line class="cls-4" x1="1063.07" y1="509.75" x2="41.94" y2="509.75"/><line class="cls-1" x1="42.58" y1="509.01" x2="42.58" y2="115.53"/><text class="cls-5" transform="translate(10.67 118.38)">45%</text><text class="cls-5" transform="translate(10.67 162.18)">40%</text><text class="cls-5" transform="translate(10.67 205.98)">35%</text><text class="cls-5" transform="translate(10.67 249.79)">30%</text><text class="cls-5" transform="translate(10.67 293.59)">25%</text><text class="cls-5" transform="translate(10.67 337.39)">20%</text><text class="cls-5" transform="translate(10.67 381.19)">15%</text><text class="cls-5" transform="translate(10.67 425)">10%</text><text class="cls-5" transform="translate(16.31 468.8)">5%</text><text class="cls-5" transform="translate(16.31 512.6)">0%</text><text class="cls-6" transform="translate(249.37 18.41)">H<tspan class="cls-7" x="14.34" y="0">o</tspan><tspan x="26.27" y="0">w impo</tspan><tspan class="cls-8" x="95.21" y="0">r</tspan><tspan x="102.94" y="0">ta</tspan><tspan class="cls-9" x="120.82" y="0">n</tspan><tspan x="132.94" y="0">t a</tspan><tspan class="cls-10" x="155.49" y="0">r</tspan><tspan x="162.47" y="0">e the </tspan><tspan class="cls-11" x="213.33" y="0">f</tspan><tspan x="219.47" y="0">oll</tspan><tspan class="cls-7" x="241.93" y="0">o</tspan><tspan x="253.86" y="0">wing aspe</tspan><tspan class="cls-12" x="347.22" y="0">c</tspan><tspan x="357.36" y="0">ts when choosing a job?</tspan><tspan class="cls-13"><tspan x="28.89" y="29.6">Sh</tspan><tspan class="cls-14" x="47.75" y="29.6">o</tspan><tspan class="cls-15" x="57.51" y="29.6">w</tspan><tspan x="70.65" y="29.6">s % of </tspan><tspan class="cls-16" x="118.61" y="29.6">r</tspan><tspan x="124.32" y="29.6">esponde</tspan><tspan class="cls-17" x="189.75" y="29.6">n</tspan><tspan x="199.67" y="29.6">ts (n=208) th</tspan><tspan class="cls-18" x="294.98" y="29.6">a</tspan><tspan x="303.58" y="29.6">t </tspan><tspan class="cls-19" x="313.35" y="29.6">r</tspan><tspan x="319.15" y="29.6">anked fa</tspan><tspan class="cls-20" x="383.17" y="29.6">c</tspan><tspan class="cls-15" x="391.47" y="29.6">t</tspan><tspan x="397.32" y="29.6">or as </tspan><tspan class="cls-21" x="436.52" y="29.6">v</tspan><tspan x="445" y="29.6">e</tspan><tspan class="cls-22" x="454.02" y="29.6">r</tspan><tspan x="460.35" y="29.6">y impo</tspan><tspan class="cls-23" x="512" y="29.6">r</tspan><tspan class="cls-24" x="518.31" y="29.6">ta</tspan><tspan class="cls-18" x="532.95" y="29.6">n</tspan><tspan x="542.87" y="29.6">t</tspan></tspan></text><text class="cls-25" transform="translate(83.87 591.27) rotate(-90)">G<tspan class="cls-26" x="9.69" y="0">r</tspan><tspan x="14.45" y="0">e</tspan><tspan class="cls-27" x="21.96" y="0">a</tspan><tspan x="29.13" y="0">t </tspan><tspan class="cls-28" x="37.27" y="0">w</tspan><tspan x="48.17" y="0">o</tspan><tspan class="cls-29" x="56.4" y="0">r</tspan><tspan x="61.37" y="0">k </tspan><tspan class="cls-26" x="-11.86" y="18">r</tspan><tspan x="-7.11" y="18">el</tspan><tspan class="cls-27" x="3.95" y="18">a</tspan><tspan x="11.12" y="18">tionships</tspan></text><text class="cls-25" transform="translate(157.23 655.87) rotate(-90)"><tspan class="cls-30">T</tspan><tspan class="cls-31" x="6.78" y="0">r</tspan><tspan x="11.61" y="0">aining and lea</tspan><tspan class="cls-32" x="99.55" y="0">r</tspan><tspan x="104.52" y="0">ning </tspan><tspan x="47.26" y="18">oppo</tspan><tspan class="cls-33" x="80.8" y="18">r</tspan><tspan x="86.07" y="18">tunities</tspan></text><text class="cls-25" transform="translate(230.66 643.77) rotate(-90)"><tspan class="cls-34">S</tspan><tspan x="7.44" y="0">ala</tspan><tspan class="cls-35" x="25.44" y="0">r</tspan><tspan x="30.72" y="0">y and financial </tspan><tspan x="57.64" y="18">in</tspan><tspan class="cls-36" x="69.48" y="18">c</tspan><tspan x="76.11" y="18">e</tspan><tspan class="cls-37" x="83.62" y="18">n</tspan><tspan x="91.89" y="18">ti</tspan><tspan class="cls-28" x="100.36" y="18">v</tspan><tspan x="107.43" y="18">es</tspan></text><text class="cls-25" transform="translate(304.11 582.59) rotate(-90)"><tspan class="cls-38">F</tspan><tspan x="7.05" y="0">l</tspan><tspan class="cls-39" x="10.59" y="0">e</tspan><tspan x="18.06" y="0">xibili</tspan><tspan class="cls-40" x="47.61" y="0">t</tspan><tspan x="52.71" y="0">y</tspan></text><text class="cls-25" transform="translate(377.54 661.51) rotate(-90)">O<tspan class="cls-41" x="10.33" y="0">r</tspan><tspan x="15.12" y="0">ganis</tspan><tspan class="cls-27" x="48.51" y="0">a</tspan><tspan x="55.68" y="0">tional cultu</tspan><tspan class="cls-26" x="126.42" y="0">r</tspan><tspan x="131.17" y="0">e</tspan></text><text class="cls-25" transform="translate(450.94 616.38) rotate(-90)"><tspan class="cls-42">A</tspan><tspan x="9" y="0">u</tspan><tspan class="cls-36" x="17.26" y="0">t</tspan><tspan x="22.14" y="0">ono</tspan><tspan class="cls-43" x="46.94" y="0">m</tspan><tspan x="59.25" y="0">y and </tspan><tspan class="cls-36" x="-22.99" y="18">c</tspan><tspan x="-16.36" y="18">o</tspan><tspan class="cls-37" x="-8.13" y="18">n</tspan><tspan x="0.14" y="18">t</tspan><tspan class="cls-28" x="5.1" y="18">r</tspan><tspan x="9.86" y="18">ol in </tspan><tspan class="cls-44" x="39.83" y="18">m</tspan><tspan x="52.14" y="18">y </tspan><tspan class="cls-26" x="62.39" y="18">w</tspan><tspan x="73.28" y="18">o</tspan><tspan class="cls-29" x="81.51" y="18">r</tspan><tspan x="86.48" y="18">k</tspan></text><text class="cls-25" transform="translate(524.41 648.09) rotate(-90)"><tspan class="cls-34">Q</tspan><tspan x="10.38" y="0">uali</tspan><tspan class="cls-40" x="32.92" y="0">t</tspan><tspan x="38.02" y="0">y of p</tspan><tspan class="cls-26" x="72.6" y="0">r</tspan><tspan x="77.35" y="0">odu</tspan><tspan class="cls-45" x="102.31" y="0">c</tspan><tspan x="109.23" y="0">ts/</tspan><tspan x="75.73" y="18">se</tspan><tspan class="cls-35" x="89.19" y="18">r</tspan><tspan x="94.47" y="18">vi</tspan><tspan class="cls-36" x="105.19" y="18">c</tspan><tspan x="111.82" y="18">es</tspan></text><text class="cls-25" transform="translate(597.82 597.47) rotate(-90)">Job secu<tspan class="cls-29" x="53.94" y="0">r</tspan><tspan x="58.9" y="0">i</tspan><tspan class="cls-40" x="62.41" y="0">t</tspan><tspan x="67.51" y="0">y</tspan></text><text class="cls-25" transform="translate(671.26 577.49) rotate(-90)">Di<tspan class="cls-26" x="13.5" y="0">v</tspan><tspan x="20.56" y="0">ersi</tspan><tspan class="cls-46" x="42.43" y="0">t</tspan><tspan x="47.53" y="0">y</tspan></text><text class="cls-25" transform="translate(744.69 652.47) rotate(-90)"><tspan class="cls-47">C</tspan><tspan x="8.54" y="0">ompa</tspan><tspan class="cls-44" x="45.04" y="0">n</tspan><tspan x="53.18" y="0">y </tspan><tspan class="cls-26" x="63.42" y="0">r</tspan><tspan x="68.17" y="0">eput</tspan><tspan class="cls-27" x="97.45" y="0">a</tspan><tspan x="104.62" y="0">tion</tspan></text><text class="cls-25" transform="translate(818.12 623.57) rotate(-90)">Global p<tspan class="cls-26" x="52.48" y="0">r</tspan><tspan x="57.24" y="0">esen</tspan><tspan class="cls-36" x="86.53" y="0">c</tspan><tspan x="93.16" y="0">e</tspan></text><text class="cls-25" transform="translate(891.55 624.2) rotate(-90)"><tspan class="cls-48">W</tspan><tspan x="12.19" y="0">ellbeing o</tspan><tspan class="cls-44" x="74.47" y="0">ff</tspan><tspan x="83.02" y="0">ers</tspan></text><text class="cls-25" transform="matrix(0, -1, 1, 0, 965.03, 620.47)"><tspan class="cls-39">S</tspan><tspan x="7.35" y="0">t</tspan><tspan class="cls-27" x="12.31" y="0">a</tspan><tspan class="cls-36" x="19.48" y="0">t</tspan><tspan class="cls-49" x="24.36" y="0">e</tspan><tspan class="cls-50" x="32.29" y="0">-</tspan><tspan x="37.17" y="0">of-th</tspan><tspan class="cls-49" x="67.68" y="0">e</tspan><tspan x="75.61" y="0">-a</tspan><tspan class="cls-33" x="87.45" y="0">r</tspan><tspan x="92.71" y="0">t </tspan><tspan class="cls-36" x="26.46" y="18">t</tspan><tspan x="31.33" y="18">echnology</tspan></text><text class="cls-25" transform="matrix(0, -1, 1, 0, 1038.46, 546.96)">CSR</text><text class="cls-6" transform="translate(354.08 713.22)"><tspan class="cls-51">F</tspan><tspan x="9.72" y="0">a</tspan><tspan class="cls-52" x="20.33" y="0">c</tspan><tspan class="cls-53" x="30.47" y="0">t</tspan><tspan x="37.62" y="0">ors </tspan><tspan class="cls-10" x="70.27" y="0">r</tspan><tspan x="77.24" y="0">el</tspan><tspan class="cls-9" x="93.46" y="0">a</tspan><tspan class="cls-54" x="103.97" y="0">t</tspan><tspan x="111.12" y="0">ed </tspan><tspan class="cls-55" x="139.21" y="0">t</tspan><tspan x="146.36" y="0">o me</tspan><tspan class="cls-9" x="192.48" y="0">n</tspan><tspan x="204.6" y="0">tal </tspan><tspan class="cls-10" x="232.34" y="0">w</tspan><tspan x="248.31" y="0">ell-being</tspan></text><rect class="cls-2" x="330.6" y="701.25" width="10.1" height="10.1"/></g></g></svg>