<svg xmlns="http://www.w3.org/2000/svg" viewBox="0 0 280.02 195.09"><defs><style>.cls-1{fill:#d3eef4;}.cls-2{fill:#bde6ee;}.cls-3{fill:#f29111;fill-rule:evenodd;}.cls-4{fill:#fff;}</style></defs><title>cloud-right</title><g id="Layer_2" data-name="Layer 2"><g id="Icons"><path class="cls-1" d="M229.7,56.88c-1.51,0-3,.08-4.5.21a50.33,50.33,0,0,0-64.56-32.41A56.87,56.87,0,0,0,58.41,43.79c-.51,0-1,0-1.53,0a56.88,56.88,0,0,0,0,113.76H229.7a50.32,50.32,0,1,0,0-100.63Z"/><path class="cls-2" d="M229.7,56.88c-1.51,0-3,.08-4.5.21a50.32,50.32,0,0,0-77.9-25.36,48.12,48.12,0,0,0-76.54,29.8,48.13,48.13,0,1,0-5.13,96H229.7a50.32,50.32,0,1,0,0-100.63Z"/><path class="cls-3" d="M184.59,151.73a43.37,43.37,0,1,1-43.37-43.36,43.36,43.36,0,0,1,43.37,43.36Z"/><path class="cls-4" d="M157.8,160.43c0-7.84-6-10.89-11.56-13-5.17-1.92-10.15-3-10.15-6.17s2.92-4.65,5.57-4.65a14.13,14.13,0,0,1,8.39,3,1.57,1.57,0,0,0,2.14-.29l3.19-3.92a1.58,1.58,0,0,0-.36-2.32,24.86,24.86,0,0,0-9.73-3.88v-5.93a1.36,1.36,0,0,0-1.36-1.35h-5.42a1.35,1.35,0,0,0-1.35,1.35v6.09c-5.93,1.27-10.17,5.44-10.17,12.28,0,7.37,5.51,10.16,10.89,12.08,5.18,1.93,10.29,3.19,10.29,7.31,0,3.71-2.79,5.71-7.77,5.71-3.83,0-6.89-2.18-9.42-4.46a1.59,1.59,0,0,0-2.15.05l-3.7,3.58a1.59,1.59,0,0,0,0,2.31,22.84,22.84,0,0,0,12,6v6a1.35,1.35,0,0,0,1.35,1.35h5.42a1.36,1.36,0,0,0,1.36-1.35V174c6.77-1.32,12.51-5.74,12.51-13.61Z"/></g></g></svg>