<svg xmlns="http://www.w3.org/2000/svg" viewBox="0 0 671.55 377.75"><defs><style>.cls-1{fill:#d3eef4;}.cls-2{fill:#bde6ee;}</style></defs><title>cloud3</title><g id="Layer_2" data-name="Layer 2"><g id="Icons"><path class="cls-1" d="M550.88,136.41c-3.63,0-7.23.19-10.78.5A120.71,120.71,0,0,0,385.25,59.19,136.39,136.39,0,0,0,140.08,105c-1.22,0-2.44-.09-3.67-.09a136.41,136.41,0,0,0,0,272.82H550.88a120.67,120.67,0,0,0,0-241.34Z"/><path class="cls-2" d="M550.88,136.41c-3.63,0-7.23.19-10.78.5A120.69,120.69,0,0,0,353.26,76.09a115.4,115.4,0,0,0-183.55,71.47A115.42,115.42,0,1,0,157.4,377.75H550.88a120.67,120.67,0,0,0,0-241.34Z"/></g></g></svg>