<svg xmlns="http://www.w3.org/2000/svg" viewBox="0 0 317.89 211.81"><defs><style>.cls-1{fill:#d3eef4;}.cls-2{fill:#bde6ee;}.cls-3{fill:#f29111;}.cls-4{fill:#fff;}</style></defs><title>cloud-left_1</title><g id="Layer_2" data-name="Layer 2"><g id="Icons"><path class="cls-1" d="M260.77,64.57c-1.72,0-3.42.09-5.1.24A57.14,57.14,0,0,0,182.37,28,64.57,64.57,0,0,0,66.31,49.71c-.58,0-1.16,0-1.74,0a64.57,64.57,0,0,0,0,129.14h196.2a57.12,57.12,0,0,0,0-114.24Z"/><path class="cls-2" d="M260.77,64.57c-1.72,0-3.42.09-5.1.24A57.14,57.14,0,0,0,167.22,36,54.63,54.63,0,0,0,80.33,69.85a55.84,55.84,0,0,0-5.82-.31,54.64,54.64,0,1,0,0,109.27H260.77a57.12,57.12,0,0,0,0-114.24Z"/><rect class="cls-3" x="110.95" y="145.81" width="96" height="66" rx="3" ry="3"/><path class="cls-4" d="M169.45,154.81a3,3,0,0,0-3,3v3a3,3,0,0,0,3,3h13.13l-22.35,22.41L147.1,173.09,111,209.21a3,3,0,0,0,3,2.6h7.15l26-26,13.13,13.13L189,170.23v13.08a3,3,0,0,0,3,3h3a3,3,0,0,0,3-3v-28.5h-28.5Z"/></g></g></svg>