<svg xmlns="http://www.w3.org/2000/svg" viewBox="0 0 1003.27 658.64"><defs><style>.cls-1,.cls-4,.cls-5{fill:none;stroke:#dedfdf;stroke-miterlimit:10;}.cls-1,.cls-5{stroke-width:0.75px;}.cls-1{opacity:0.2;}.cls-1,.cls-12,.cls-13,.cls-14,.cls-15,.cls-16,.cls-17,.cls-18,.cls-6{isolation:isolate;}.cls-2{fill:#942745;}.cls-3{fill:#bee4ec;}.cls-4{stroke-width:2px;}.cls-6{font-size:11px;fill:#939599;}.cls-13,.cls-14,.cls-15,.cls-16,.cls-17,.cls-18,.cls-6,.cls-7,.cls-9{font-family:ArialMT, Arial;}.cls-13,.cls-14,.cls-15,.cls-16,.cls-17,.cls-18,.cls-7{font-size:22px;}.cls-7{fill:#2b2b2b;}.cls-8{fill:#fcfcfc;}.cls-9{font-size:14px;}.cls-10{letter-spacing:-0.06em;}.cls-11{letter-spacing:-0.04em;}.cls-13,.cls-14,.cls-15,.cls-16,.cls-17,.cls-18{fill:#003b4c;}.cls-13{letter-spacing:-0.09em;}.cls-15{letter-spacing:-0.01em;}.cls-16{letter-spacing:0.01em;}.cls-17{letter-spacing:-0.05em;}.cls-18{letter-spacing:-0.1em;}</style></defs><title>Asset 4</title><g id="Layer_2" data-name="Layer 2"><g id="Layer_1-2" data-name="Layer 1"><line class="cls-1" x1="978" y1="456.2" x2="31.94" y2="456.2"/><line class="cls-1" x1="978" y1="393.27" x2="31.94" y2="393.27"/><line class="cls-1" x1="978" y1="330.35" x2="31.94" y2="330.35"/><line class="cls-1" x1="978" y1="267.13" x2="31.94" y2="267.13"/><line class="cls-1" x1="978" y1="204.5" x2="31.94" y2="204.5"/><line class="cls-1" x1="978" y1="141.58" x2="31.94" y2="141.58"/><line class="cls-1" x1="978" y1="78.66" x2="31.94" y2="78.66"/><rect class="cls-2" x="717.79" y="254.61" width="22" height="260.95"/><rect class="cls-3" x="747.12" y="173.62" width="22" height="341.8"/><rect class="cls-2" x="808.46" y="218.85" width="22" height="297.82"/><rect class="cls-3" x="836.12" y="173.62" width="22" height="341.75"/><rect class="cls-2" x="897.33" y="209.49" width="22" height="306.58"/><rect class="cls-3" x="925.46" y="154.68" width="22" height="360.74"/><rect class="cls-2" x="87.33" y="347.77" width="22" height="168.91"/><rect class="cls-2" x="176.66" y="340.63" width="22" height="176.06"/><rect class="cls-3" x="204.66" y="234.84" width="22" height="281.84"/><rect class="cls-2" x="266" y="309.45" width="22" height="207.23"/><rect class="cls-3" x="295" y="221.13" width="22" height="295.55"/><rect class="cls-2" x="357" y="293.47" width="22" height="222.47"/><rect class="cls-3" x="385.66" y="204.5" width="22" height="312.18"/><rect class="cls-2" x="447.33" y="267.88" width="22" height="248.44"/><rect class="cls-3" x="475.6" y="191.59" width="22" height="324.35"/><rect class="cls-2" x="537.41" y="234.84" width="22" height="281.48"/><rect class="cls-3" x="565.6" y="179.6" width="22" height="336.34"/><rect class="cls-2" x="626.75" y="226.08" width="22" height="290.33"/><rect class="cls-3" x="655.94" y="176.76" width="22" height="339.18"/><line class="cls-4" x1="1003.27" y1="516.68" x2="31.27" y2="516.68"/><line class="cls-5" x1="31.91" y1="515.94" x2="31.91" y2="78.66"/><line class="cls-5" x1="31.76" y1="330.35" x2="28.47" y2="330.35"/><line class="cls-5" x1="31.76" y1="267.43" x2="28.47" y2="267.43"/><line class="cls-5" x1="31.76" y1="204.5" x2="28.47" y2="204.5"/><line class="cls-5" x1="31.76" y1="141.58" x2="28.47" y2="141.58"/><line class="cls-5" x1="31.76" y1="78.66" x2="28.47" y2="78.66"/><line class="cls-5" x1="31.76" y1="393.27" x2="28.47" y2="393.27"/><line class="cls-5" x1="31.76" y1="456.2" x2="28.47" y2="456.2"/><text class="cls-6" transform="translate(5.64 519.54)">0%</text><text class="cls-6" transform="translate(0 459.05)">10%</text><text class="cls-6" transform="translate(0 396.13)">20%</text><text class="cls-6" transform="translate(0 333.2)">30%</text><text class="cls-6" transform="translate(0 270.73)">40%</text><text class="cls-6" transform="translate(0 207.36)">50%</text><text class="cls-6" transform="translate(0 144.43)">60%</text><text class="cls-6" transform="translate(0 81.51)">70%</text><text class="cls-7" transform="translate(172.6 18.88)">Company success: how important are mobile apps today vs. in 3 years?</text><rect class="cls-3" x="123.33" y="267.88" width="24.67" height="247.54"/><rect class="cls-8" x="56.92" y="517.99" width="904" height="140.59"/><text class="cls-9" transform="translate(76.2 534.19)">Employee<tspan x="-19.08" y="18">Onboarding and</tspan><tspan x="-11.68" y="36">Benefits</tspan><tspan class="cls-10" x="38.91" y="36"> </tspan><tspan x="42.02" y="36">Apps</tspan></text><text class="cls-9" transform="translate(170.53 534.19)">Employee<tspan class="cls-11" x="4.15" y="18">T</tspan><tspan x="12.19" y="18">raining </tspan><tspan x="15.17" y="36">Apps</tspan></text><text class="cls-9" transform="translate(260.87 533.88)">Inventory<tspan x="-12.07" y="18">Management</tspan></text><text class="cls-9" transform="translate(353.76 533.88)">Enterprise<tspan x="1.94" y="18">Resource</tspan><tspan x="4.66" y="36">Planning</tspan></text><text class="cls-9" transform="translate(438.64 534.19)">Distribution <tspan x="23.33" y="18">and </tspan><tspan x="10.12" y="36">Systems</tspan></text><text></text><text class="cls-9" transform="translate(523.21 534.55)">Field Service</text><text class="cls-9" transform="translate(620.14 534.55)">Messaging <tspan x="22.17" y="18">and </tspan><tspan x="-5.45" y="36">Collaboration</tspan><tspan x="10.13" y="54">systems</tspan></text><text class="cls-9" transform="translate(720.99 533.88)">Customer<tspan x="-8.18" y="18">Relationship</tspan><tspan x="-10.52" y="36">Management</tspan></text><text class="cls-9" transform="translate(819.66 531.88)">Sales <tspan x="-17.9" y="18">Enablement</tspan></text><text class="cls-9" transform="translate(892.04 531.88)">Customer <tspan x="-5.46" y="18">service and </tspan><tspan x="7.77" y="36">Support</tspan></text><g class="cls-12"><text class="cls-13" transform="translate(384.09 651.15)">T</text><text class="cls-14" transform="translate(393.46 651.15)">od</text><text class="cls-15" transform="translate(417.95 651.15)">a</text><text class="cls-14" transform="translate(428.38 651.15)">y</text></g><g class="cls-12"><text class="cls-16" transform="translate(514.92 651.5)">I</text><text class="cls-14" transform="translate(520.4 651.5)">n 3</text><text class="cls-17" transform="translate(548.56 651.5)"> </text><text class="cls-18" transform="translate(552.21 651.5)">Y</text><text class="cls-14" transform="translate(562.44 651.5)">ears</text></g><rect class="cls-2" x="356.33" y="639.18" width="10.1" height="10.1"/><rect class="cls-3" x="486.62" y="639.18" width="10.1" height="10.1"/></g></g></svg>