<?xml version="1.0" encoding="utf-8"?>
<!-- Generator: Adobe Illustrator 22.1.0, SVG Export Plug-In . SVG Version: 6.00 Build 0)  -->
<svg version="1.1" id="Layer_1" xmlns="http://www.w3.org/2000/svg" xmlns:xlink="http://www.w3.org/1999/xlink" x="0px" y="0px"
	 viewBox="0 0 1013.9 674.7" style="enable-background:new 0 0 1013.9 674.7;" xml:space="preserve">
<style type="text/css">
	.st0{opacity:0.2;fill:none;stroke:#DEDFDF;stroke-width:0.75;stroke-miterlimit:10;enable-background:new    ;}
	.st1{fill:#942745;}
	.st2{fill:#BEE4EC;}
	.st3{fill:none;stroke:#DEDFDF;stroke-width:2;stroke-miterlimit:10;}
	.st4{fill:none;stroke:#DEDFDF;stroke-width:0.75;stroke-miterlimit:10;}
	.st5{fill:#939599;}
	.st6{font-family:'ArialMT';}
	.st7{font-size:11px;}
	.st8{fill:#003B4C;}
	.st9{font-size:22px;}
	.st10{letter-spacing:-1;}
	.st11{fill:#2B2B2B;}
	.st12{fill:#FCFCFC;}
</style>
<title>company-success</title>
<line class="st0" x1="988.7" y1="472.3" x2="42.6" y2="472.3"/>
<line class="st0" x1="988.7" y1="409.4" x2="42.6" y2="409.4"/>
<line class="st0" x1="988.7" y1="346.5" x2="42.6" y2="346.5"/>
<line class="st0" x1="988.7" y1="283.3" x2="42.6" y2="283.3"/>
<line class="st0" x1="988.7" y1="220.6" x2="42.6" y2="220.6"/>
<line class="st0" x1="988.7" y1="157.7" x2="42.6" y2="157.7"/>
<line class="st0" x1="988.7" y1="94.8" x2="42.6" y2="94.8"/>
<rect x="728.5" y="270.7" class="st1" width="22" height="261"/>
<rect x="757.8" y="189.7" class="st2" width="22" height="341.8"/>
<rect x="819.1" y="235" class="st1" width="22" height="297.8"/>
<rect x="846.8" y="189.7" class="st2" width="22" height="341.8"/>
<rect x="908" y="225.6" class="st1" width="22" height="306.6"/>
<rect x="936.1" y="170.8" class="st2" width="22" height="360.7"/>
<rect x="98" y="363.9" class="st1" width="22" height="168.9"/>
<rect x="187.3" y="356.8" class="st1" width="22" height="176.1"/>
<rect x="215.3" y="251" class="st2" width="22" height="281.8"/>
<rect x="276.7" y="325.6" class="st1" width="22" height="207.2"/>
<rect x="305.7" y="237.3" class="st2" width="22" height="295.5"/>
<rect x="367.7" y="309.6" class="st1" width="22" height="222.5"/>
<rect x="396.3" y="220.6" class="st2" width="22" height="312.2"/>
<rect x="458" y="284" class="st1" width="22" height="248.4"/>
<rect x="486.3" y="207.7" class="st2" width="22" height="324.3"/>
<rect x="548.1" y="251" class="st1" width="22" height="281.5"/>
<rect x="576.3" y="195.7" class="st2" width="22" height="336.3"/>
<rect x="637.4" y="242.2" class="st1" width="22" height="290.3"/>
<rect x="666.6" y="192.9" class="st2" width="22" height="339.2"/>
<line class="st3" x1="1013.9" y1="532.8" x2="41.9" y2="532.8"/>
<line class="st4" x1="42.6" y1="532.1" x2="42.6" y2="94.8"/>
<line class="st4" x1="42.4" y1="346.5" x2="39.1" y2="346.5"/>
<line class="st4" x1="42.4" y1="283.5" x2="39.1" y2="283.5"/>
<line class="st4" x1="42.4" y1="220.6" x2="39.1" y2="220.6"/>
<line class="st4" x1="42.4" y1="157.7" x2="39.1" y2="157.7"/>
<line class="st4" x1="42.4" y1="94.8" x2="39.1" y2="94.8"/>
<line class="st4" x1="42.4" y1="409.4" x2="39.1" y2="409.4"/>
<line class="st4" x1="42.4" y1="472.3" x2="39.1" y2="472.3"/>
<text transform="matrix(1 0 0 1 16.31 535.66)" class="st5 st6 st7">0%</text>
<text transform="matrix(1 0 0 1 10.67 475.17)" class="st5 st6 st7">10%</text>
<text transform="matrix(1 0 0 1 10.67 412.25)" class="st5 st6 st7">20%</text>
<text transform="matrix(1 0 0 1 10.67 349.32)" class="st5 st6 st7">30%</text>
<text transform="matrix(1 0 0 1 10.67 286.85)" class="st5 st6 st7">40%</text>
<text transform="matrix(1 0 0 1 10.67 223.48)" class="st5 st6 st7">50%</text>
<text transform="matrix(1 0 0 1 10.67 160.55)" class="st5 st6 st7">60%</text>
<text transform="matrix(1 0 0 1 10.67 97.63)" class="st5 st6 st7">70%</text>
<text transform="matrix(1 0 0 1 394.76 667.27)" class="st8 st6 st9 st10">T</text>
<text transform="matrix(1 0 0 1 404.13 667.27)" class="st8 st6 st9">od</text>
<text transform="matrix(1 0 0 1 428.62 667.27)" class="st8 st6 st9">a</text>
<text transform="matrix(1 0 0 1 439.05 667.27)" class="st8 st6 st9">y</text>
<text transform="matrix(1 0 0 1 525.59 667.62)" class="st8 st6 st9">I</text>
<text transform="matrix(1 0 0 1 531.07 667.62)" class="st8 st6 st9">n 3</text>
<text transform="matrix(1 0 0 1 559.23 667.62)" class="st8 st6 st9 st10"> </text>
<text transform="matrix(1 0 0 1 562.88 667.62)" class="st8 st6 st9 st10">Y</text>
<text transform="matrix(1 0 0 1 573.11 667.62)" class="st8 st6 st9">ears</text>
<rect x="367" y="655.3" class="st1" width="10.1" height="10.1"/>
<rect x="497.3" y="655.3" class="st2" width="10.1" height="10.1"/>
<text transform="matrix(1 0 0 1 183.27 35)" class="st11 st6 st9">Company success: how important are mobile apps today vs. in 3 years?</text>
<rect x="134" y="284" class="st2" width="24.7" height="247.5"/>
<rect x="67.6" y="534.1" class="st12" width="904" height="88.7"/>
<text transform="matrix(1 0 0 1 103.5423 550.3097)"><tspan x="0" y="0" class="st6 st7">Employee</tspan><tspan x="-15" y="13.2" class="st6 st7">Onboarding and</tspan><tspan x="-9.5" y="26.4" class="st6 st7">Benefits Apps</tspan></text>
<text transform="matrix(1 0 0 1 185.8724 550.3093)"><tspan x="0" y="0" class="st6 st7">Employee</tspan><tspan x="3.1" y="13.2" class="st6 st7">Training </tspan><tspan x="11.9" y="26.4" class="st6 st7">Apps</tspan></text>
<text transform="matrix(1 0 0 1 277.7104 550)"><tspan x="0" y="0" class="st6 st7">Inventory</tspan><tspan x="-9.5" y="13.2" class="st6 st7">Management</tspan></text>
<text transform="matrix(1 0 0 1 371.2631 550)"><tspan x="0" y="0" class="st6 st7">Enterprise</tspan><tspan x="1.5" y="13.2" class="st6 st7">Resource</tspan><tspan x="3.7" y="26.4" class="st6 st7">Planning</tspan></text>
<text transform="matrix(1 0 0 1 446.5268 550.3098)"><tspan x="0" y="0" class="st6 st7">Distribution and </tspan><tspan x="18.7" y="13.2" class="st6 st7">Systems</tspan></text>
<text transform="matrix(1 0 0 1 542.5439 550.667)" class="st6 st7">Field Service</text>
<text transform="matrix(1 0 0 1 627.7802 550.6672)"><tspan x="0" y="0" class="st6 st7">Messaging and </tspan><tspan x="6.4" y="13.2" class="st6 st7">Collaboration</tspan><tspan x="18.7" y="26.4" class="st6 st7">systems</tspan></text>
<text transform="matrix(1 0 0 1 738.1605 549.9997)"><tspan x="0" y="0" class="st6 st7">Customer</tspan><tspan x="-6.4" y="13.2" class="st6 st7">Relationship</tspan><tspan x="-8.3" y="26.4" class="st6 st7">Management</tspan></text>
<text transform="matrix(1 0 0 1 834.5038 548)"><tspan x="0" y="0" class="st6 st7">Sales </tspan><tspan x="-14.1" y="13.2" class="st6 st7">Enablement</tspan></text>
<text transform="matrix(1 0 0 1 909.6315 548)"><tspan x="0" y="0" class="st6 st7">Customer </tspan><tspan x="-4.3" y="13.2" class="st6 st7">service and </tspan><tspan x="6.1" y="26.4" class="st6 st7">Support</tspan></text>
</svg>
