<svg xmlns="http://www.w3.org/2000/svg" viewBox="0 0 916.43 709.8"><defs><style>.cls-1{fill:#b9bbbd;}.cls-2{fill:#a6a9ab;}.cls-3{fill:#939699;}.cls-4{fill:#bde6ee;}.cls-5{fill:#d3eef4;}.cls-6{fill:#4e5052;}.cls-7{fill:#6d8c9e;}.cls-8{fill:#8aadbf;}.cls-9{fill:#7d7f81;}</style></defs><title>devices</title><g id="Layer_2" data-name="Layer 2"><g id="Icons"><polygon class="cls-1" points="295.75 591.5 498.55 591.5 481.65 473.2 312.65 473.2 295.75 591.5 295.75 591.5"/><path class="cls-2" d="M557.7,625.3H236.6V608.4a16.89,16.89,0,0,1,16.9-16.9H540.8a16.9,16.9,0,0,1,16.9,16.9v16.9Z"/><polygon class="cls-2" points="307.82 507 486.47 507 484.06 490.1 310.23 490.1 307.82 507 307.82 507"/><path class="cls-3" d="M794.29,473.2a17,17,0,0,1-16.9,16.9H16.9A17,17,0,0,1,0,473.2V16.9A16.94,16.94,0,0,1,16.9,0H777.39a16.94,16.94,0,0,1,16.9,16.9V473.2Z"/><polygon class="cls-4" points="760.5 422.5 33.8 422.5 33.8 33.8 760.5 33.8 760.5 422.5 760.5 422.5"/><polygon class="cls-5" points="48.2 33.8 33.8 33.8 33.8 422.5 152.1 422.5 540.8 33.8 48.2 33.8 48.2 33.8"/><path class="cls-6" d="M666,321.1a17,17,0,0,0-16.9-16.9H463.21a16.94,16.94,0,0,0-16.9,16.9V692.9a17,17,0,0,0,16.9,16.9h185.9A17,17,0,0,0,666,692.9V321.1Z"/><polygon class="cls-4" points="649.11 338 463.21 338 463.21 659.1 649.11 659.1 649.11 338 649.11 338"/><polygon class="cls-5" points="649.11 338 463.21 338 463.21 540.8 649.11 354.9 649.11 338 649.11 338"/><path class="cls-3" d="M590,684.45a5.66,5.66,0,0,1-5.64,5.63H528a5.65,5.65,0,0,1-5.63-5.63h0a5.65,5.65,0,0,1,5.63-5.64h56.33a5.66,5.66,0,0,1,5.64,5.64Z"/><path class="cls-3" d="M590,321.1a5.65,5.65,0,0,1-5.64,5.63H528a5.64,5.64,0,0,1-5.63-5.63h0a5.65,5.65,0,0,1,5.63-5.64h56.33A5.66,5.66,0,0,1,590,321.1Z"/><path class="cls-6" d="M911.59,519.37H901.9V490.31a19.43,19.43,0,0,0-19.37-19.38H732.37A19.43,19.43,0,0,0,713,490.31V640.47a19.43,19.43,0,0,0,19.37,19.37H882.53a19.43,19.43,0,0,0,19.37-19.37V582.34h9.69a4.84,4.84,0,0,0,4.84-4.84V524.22A4.84,4.84,0,0,0,911.59,519.37Z"/><rect class="cls-4" x="732.37" y="490.31" width="150.16" height="150.16"/><polygon class="cls-5" points="732.37 596.87 838.93 490.31 732.37 490.31 732.37 596.87"/><rect class="cls-7" x="746.9" y="504.84" width="33.91" height="33.91" rx="4.84" ry="4.84"/><rect class="cls-7" x="790.5" y="504.84" width="33.91" height="33.91" rx="4.84" ry="4.84"/><rect class="cls-7" x="834.09" y="504.84" width="33.91" height="33.91" rx="4.84" ry="4.84"/><rect class="cls-7" x="746.9" y="548.43" width="33.91" height="33.91" rx="4.84" ry="4.84"/><rect class="cls-7" x="790.5" y="548.43" width="33.91" height="33.91" rx="4.84" ry="4.84"/><rect class="cls-7" x="834.09" y="548.43" width="33.91" height="33.91" rx="4.84" ry="4.84"/><rect class="cls-7" x="746.9" y="592.03" width="33.91" height="33.91" rx="4.84" ry="4.84"/><rect class="cls-7" x="790.5" y="592.03" width="33.91" height="33.91" rx="4.84" ry="4.84"/><rect class="cls-7" x="834.09" y="592.03" width="33.91" height="33.91" rx="4.84" ry="4.84"/><path class="cls-8" d="M751.75,548.43a4.86,4.86,0,0,0-4.85,4.85V577.5a4.83,4.83,0,0,0,1.43,3.42l31.06-31.06a4.83,4.83,0,0,0-3.42-1.43Z"/><path class="cls-8" d="M795.34,504.84a4.86,4.86,0,0,0-4.84,4.84V533.9a4.79,4.79,0,0,0,1.42,3.42L823,506.26a4.86,4.86,0,0,0-3.42-1.42Z"/><rect class="cls-8" x="746.9" y="504.84" width="33.91" height="33.91" rx="4.84" ry="4.84"/><path class="cls-9" d="M773.35,422.5h68.2a14.53,14.53,0,0,1,14.25,11.68l7.35,36.75H751.75l7.35-36.75A14.53,14.53,0,0,1,773.35,422.5Z"/><path class="cls-9" d="M841.55,708.28h-68.2A14.53,14.53,0,0,1,759.1,696.6l-7.35-36.76h111.4L855.8,696.6A14.53,14.53,0,0,1,841.55,708.28Z"/></g></g></svg>