<svg xmlns="http://www.w3.org/2000/svg" viewBox="0 0 310.62 138.5"><defs><style>.cls-1,.cls-13{fill:#942645;}.cls-1{opacity:0.25;}.cls-2{fill:#bde6ee;}.cls-2,.cls-3{opacity:0.5;}.cls-3{fill:none;stroke:#bde6ee;stroke-miterlimit:10;}.cls-4{font-size:5px;}.cls-15,.cls-4{fill:#003b4d;}.cls-13,.cls-15,.cls-4{font-family:UniversLTStd-Light, UniversLTStd Light;}.cls-5{letter-spacing:0em;}.cls-6{letter-spacing:0.01em;}.cls-7{letter-spacing:-0.04em;}.cls-8{letter-spacing:-0.01em;}.cls-9{letter-spacing:-0.06em;}.cls-10{letter-spacing:-0.04em;}.cls-11{letter-spacing:-0.01em;}.cls-12{letter-spacing:-0.02em;}.cls-13,.cls-15{font-size:7px;}.cls-14{letter-spacing:-0.01em;}.cls-16{letter-spacing:-0.01em;}</style></defs><title>Asset 1</title><g id="Layer_2" data-name="Layer 2"><g id="Layer_1-2" data-name="Layer 1"><rect class="cls-1" x="123.21" width="64.19" height="20" rx="5.4" ry="5.4"/><rect class="cls-2" x="123.21" y="60.5" width="64.19" height="20" rx="5.4" ry="5.4"/><rect class="cls-2" x="255.71" y="2.5" width="48.15" height="15" rx="4.05" ry="4.05"/><rect class="cls-2" x="203.02" y="32.75" width="37.62" height="15" rx="3.58" ry="3.58"/><rect class="cls-2" x="203.02" y="91.5" width="37.62" height="15" rx="3.58" ry="3.58"/><rect class="cls-2" x="203.02" y="123.5" width="37.62" height="15" rx="3.58" ry="3.58"/><rect class="cls-2" x="255.71" y="63" width="48.15" height="15" rx="4.05" ry="4.05"/><rect class="cls-2" x="6.76" y="2.5" width="48.15" height="15" rx="4.05" ry="4.05"/><rect class="cls-2" x="6.76" y="63" width="48.15" height="15" rx="4.05" ry="4.05"/><rect class="cls-2" x="70.93" y="93.25" width="48.15" height="15" rx="4.05" ry="4.05"/><rect class="cls-2" x="131.24" y="123.5" width="48.15" height="15" rx="4.05" ry="4.05"/><rect class="cls-2" x="6.76" y="123.5" width="72.17" height="15" rx="3.33" ry="3.33"/><line class="cls-3" x1="54.91" y1="10" x2="123.21" y2="10"/><line class="cls-3" x1="30.83" y1="17.5" x2="30.83" y2="63"/><line class="cls-3" x1="54.91" y1="70.5" x2="123.21" y2="70.5"/><line class="cls-3" x1="30.83" y1="78" x2="30.83" y2="123.5"/><line class="cls-3" x1="78.93" y1="131" x2="131.24" y2="131"/><line class="cls-3" x1="179.38" y1="131" x2="203.02" y2="131"/><polyline class="cls-3" points="240.64 131 279.79 131 279.79 78"/><line class="cls-3" x1="279.78" y1="63" x2="279.78" y2="17.5"/><line class="cls-3" x1="255.71" y1="10" x2="187.41" y2="10"/><polyline class="cls-3" points="155.31 20 155.31 40.25 203.02 40.25"/><polyline class="cls-3" points="221.83 47.75 221.83 70.5 187.41 70.5"/><polyline class="cls-3" points="155.31 80.5 155.31 99 203.02 99"/><polyline class="cls-3" points="42.84 78 42.84 100.75 70.93 100.75"/><polyline class="cls-3" points="119.08 100.75 139.64 100.75 139.64 123.5"/><line class="cls-3" x1="147.31" y1="80.5" x2="147.31" y2="123.5"/><line class="cls-3" x1="221.83" y1="106.5" x2="221.83" y2="123.5"/><polyline class="cls-3" points="268.31 17.5 268.31 55.33 238.77 55.42 238.77 85.25 164.31 85.17 164.31 80.5"/><text class="cls-4" transform="translate(15.81 11.38)">P<tspan class="cls-5" x="2.66" y="0">R</tspan><tspan x="5.37" y="0">OGRESSION</tspan></text><text class="cls-4" transform="translate(15.06 71.63)">D<tspan class="cls-6" x="3.33" y="0">E</tspan><tspan x="5.83" y="0">VE</tspan><tspan class="cls-7" x="11.08" y="0">L</tspan><tspan x="13.25" y="0">O</tspan><tspan class="cls-8" x="16.69" y="0">P</tspan><tspan x="19.29" y="0">MENT</tspan></text><text class="cls-4" transform="translate(274.3 11.38)"><tspan class="cls-5">R</tspan><tspan x="2.71" y="0">OLE</tspan></text><text class="cls-4" transform="translate(212.72 41.51)">R<tspan class="cls-6" x="2.69" y="0">E</tspan><tspan class="cls-9" x="5.19" y="0">W</tspan><tspan x="9.14" y="0">ARD</tspan></text><text class="cls-4" transform="translate(213.88 101.13)"><tspan class="cls-9">V</tspan><tspan x="2.5" y="0">A</tspan><tspan class="cls-10" x="5.56" y="0">L</tspan><tspan x="7.75" y="0">UES</tspan></text><text class="cls-4" transform="translate(209.68 132.51)">WELLBEING</text><text class="cls-4" transform="translate(142.34 132.51)">LEADERSHIP</text><text class="cls-4" transform="translate(16.09 132.51)">WORKFO<tspan class="cls-5" x="18.95" y="0">R</tspan><tspan x="21.66" y="0">CE EXPERIENCE</tspan></text><text class="cls-4" transform="translate(80.19 102.13)">ONB<tspan class="cls-11" x="9.44" y="0">O</tspan><tspan x="12.82" y="0">ARDING</tspan></text><text class="cls-4" transform="translate(264.68 71.63)"><tspan class="cls-12">C</tspan><tspan x="2.79" y="0">OMMITMENT</tspan></text><text class="cls-13" transform="translate(134.37 12.84)">ENG<tspan class="cls-14" x="12.57" y="0">A</tspan><tspan x="16.75" y="0">GEMENT</tspan></text><text class="cls-15" transform="translate(132.87 73.74)">PERFOR<tspan class="cls-16" x="22.93" y="0">M</tspan><tspan x="28.49" y="0">ANCE</tspan></text></g></g></svg>