<svg xmlns="http://www.w3.org/2000/svg" viewBox="0 0 192 144"><defs><style>.cls-1{fill:#cbcece;}.cls-2{fill:#b9bbbd;}.cls-3{fill:#dac7b3;}.cls-4{fill:#cdb498;}.cls-5{fill:#b29d86;}.cls-6{fill:#bdae9d;}.cls-7{fill:#fff;}.cls-8{fill:#324b5c;}.cls-9{fill:#4f6c7d;}.cls-10{fill:#f80000;}.cls-11{fill:#283c4a;}.cls-12{fill:#8aadbf;}.cls-13{fill:#aac3cf;}.cls-14{fill:#f29111;}</style></defs><title>employers</title><g id="Layer_2" data-name="Layer 2"><g id="Icons"><path class="cls-1" d="M192,102l-3.61-27.08a11.79,11.79,0,0,0-6.64-9.09l-12.66-6-6-2.84a3.7,3.7,0,0,1-1-.67v2.35h-9.9V102Z"/><path class="cls-2" d="M152.19,102V58.67h-9.9V56.32a3.92,3.92,0,0,1-1,.67l-6,2.84-12.66,6A11.79,11.79,0,0,0,116,74.92L112.37,102Z"/><path class="cls-3" d="M161.63,55.84a4.2,4.2,0,0,1-1-2.68V45.94h-8.48V58.67l9.44-2.83Z"/><path class="cls-4" d="M142.74,55.84l9.45,2.83V45.94H143.7v7.22a4.2,4.2,0,0,1-1,2.68Z"/><path class="cls-5" d="M143.7,53.16A4.22,4.22,0,0,1,141.27,57h0a11.21,11.21,0,0,0,5.33,2.87,16.4,16.4,0,0,0,5.6-1.93v-12H143.7Z"/><path class="cls-6" d="M160.11,47.4l.43-1.46h-8.35v12h0c.28-.16.56-.34.84-.52C155.85,55.53,158.43,52.43,160.11,47.4Z"/><path d="M139.78,34.87l-.36.83H165l-.36-.83a48.31,48.31,0,0,0,1.21-9.27c-.05-5.05-4.6-10.29-10.63-10.88L153.16,12c-14.67.69-14.58,12.68-14.58,12.68v1.45A49.72,49.72,0,0,0,139.78,34.87Z"/><path class="cls-2" d="M169.2,95.44h-7.08l-2.82-2.83V78.47H172V92.61Z"/><path class="cls-7" d="M163.71,57.28,163.1,57a4.16,4.16,0,0,1-1.47-1.15l-9.44,2.83L156.43,66Z"/><path class="cls-7" d="M141.27,57l-.61.29L147.94,66l4.25-7.34-9.45-2.83A4.16,4.16,0,0,1,141.27,57Z"/><path class="cls-3" d="M163.54,33.21H163V29.32s.12-4.08-1.68-4.92a3,3,0,0,0-1.4-.29c-1.88-.05-3.75,1.58-7.68,1.49-3.94.09-5.81-1.54-7.69-1.49a3,3,0,0,0-1.4.29c-1.8.84-1.68,4.92-1.68,4.92v13.6h0v.24C142.9,53.59,150.8,54,152,54.05h.37c1.23,0,9.13-.46,10.58-10.88v-.06a2.82,2.82,0,0,0,2.75-2.42l.61-4.25A2.83,2.83,0,0,0,163.54,33.21Z"/><path class="cls-4" d="M152.12,45.48a2.83,2.83,0,0,0,.37-2.15c-.66-1-1.9-.24-2.16-1.73-.1-.56.85-2.33,1.18-3.81a8.64,8.64,0,0,0,.2-3.18A4.89,4.89,0,0,0,148,31.07a7,7,0,0,0-6.54,1.69v.45h-.52a2.83,2.83,0,0,0-2.8,3.23l.61,4.25a2.82,2.82,0,0,0,2.71,2.42v.06C142.88,53.59,150.78,54,152,54.05h.35a8.31,8.31,0,0,0-.06-4.15,2.72,2.72,0,0,0-.11-.38,2,2,0,0,1,.57-2.38C153.44,46,151.4,46.93,152.12,45.48Z"/><path class="cls-8" d="M39.81,102V55.84H30.37l-20.26,10a11.8,11.8,0,0,0-6.49,9L0,102Z"/><path class="cls-9" d="M79.63,102,76,74.82a11.79,11.79,0,0,0-6.48-9l-20.26-10H39.81V102Z"/><path class="cls-3" d="M49.26,55.84a4.2,4.2,0,0,1-1-2.68V45.94H39.81V58.67l9.45-2.83Z"/><path class="cls-4" d="M30.37,55.84l9.44,2.83V45.94H31.33v7.22a4.2,4.2,0,0,1-1,2.68Z"/><path class="cls-5" d="M31.33,53.16A4.24,4.24,0,0,1,28.9,57h0a11.21,11.21,0,0,0,5.33,2.87,16.35,16.35,0,0,0,5.59-1.93v-12H31.33Z"/><path class="cls-6" d="M47.74,47.4l.43-1.46H39.81v12h0c.28-.16.56-.34.84-.52C43.48,55.53,46.05,52.43,47.74,47.4Z"/><path d="M27.41,34.87l-.36.83H52.62l-.36-.83a48.31,48.31,0,0,0,1.21-9.27c-.06-5.05-4.6-10.29-10.63-10.88L40.78,12c-14.66.69-14.57,12.68-14.57,12.68v1.45A49.72,49.72,0,0,0,27.41,34.87Z"/><path class="cls-3" d="M51.17,33.21h-.58V29.32s.12-4.08-1.68-4.92a3,3,0,0,0-1.4-.29c-1.88-.05-3.75,1.58-7.69,1.49-3.93.09-5.8-1.54-7.68-1.49a3,3,0,0,0-1.4.29c-1.8.84-1.68,4.92-1.68,4.92v13.6h0v.24C30.51,53.59,38.41,54,39.64,54.05H40c1.23,0,9.13-.46,10.58-10.88v-.06a2.83,2.83,0,0,0,2.77-2.42L54,36.44A2.83,2.83,0,0,0,51.17,33.21Z"/><path class="cls-4" d="M39.75,45.48a2.83,2.83,0,0,0,.37-2.15c-.67-1-1.91-.24-2.16-1.73-.1-.56.85-2.33,1.18-3.81a8.61,8.61,0,0,0,.19-3.18,4.88,4.88,0,0,0-3.73-3.54,7,7,0,0,0-6.54,1.69v.45h-.52a2.83,2.83,0,0,0-2.8,3.23l.61,4.25a2.82,2.82,0,0,0,2.71,2.42v.06C30.51,53.59,38.41,54,39.64,54.05H40a8.31,8.31,0,0,0-.06-4.15c0-.13-.07-.25-.11-.38a2,2,0,0,1,.57-2.38C41.07,46,39,46.93,39.75,45.48Z"/><polygon class="cls-1" points="30.37 55.84 39.81 101.1 49.26 55.84 39.81 58.67 30.37 55.84"/><polygon class="cls-10" points="39.81 101.1 45.47 86.96 41.23 66.98 44.06 58.67 35.57 58.67 38.4 67.16 34.16 86.96 39.81 101.1"/><path class="cls-7" d="M51.34,57.28,50.73,57a4.16,4.16,0,0,1-1.47-1.15l-9.45,2.83L44.06,66Z"/><path class="cls-7" d="M28.9,57l-.61.29L35.57,66l4.24-7.34-9.44-2.83A4.16,4.16,0,0,1,28.9,57Z"/><polygon class="cls-8" points="52.5 68.57 55.33 65.74 53.63 57.99 49.26 55.84 39.81 101.1 55.33 72.81 52.5 68.57"/><polygon class="cls-11" points="27.13 68.57 24.3 65.74 26 57.99 30.37 55.84 39.81 101.1 24.3 72.81 27.13 68.57"/><polygon class="cls-12" points="96 99 96 44.86 88.27 44.86 77.44 89.72 77.44 99 96 99"/><polygon class="cls-13" points="114.56 99 114.56 89.72 103.73 44.86 96 44.86 96 99 114.56 99"/><path d="M116.11,23.2H96V43.31h15.47C114.51,38.25,116.11,29.11,116.11,23.2Z"/><path class="cls-4" d="M96,54.14V35.05H88.27v9.87a4.66,4.66,0,0,1-2.78,4.25l-.29.12C85.53,49.79,88.63,54.14,96,54.14Z"/><path class="cls-3" d="M106.8,49.29l-.29-.12a4.66,4.66,0,0,1-2.78-4.25V35.05H96V54.14C103.37,54.14,106.47,49.79,106.8,49.29Z"/><path class="cls-6" d="M103.73,37.13V35.05H96v13C99.08,46,101.89,42.62,103.73,37.13Z"/><path class="cls-5" d="M88.27,35.05v9.87a4.66,4.66,0,0,1-2.78,4.25l-.29.12A9.44,9.44,0,0,0,86.77,51a18.67,18.67,0,0,0,8.31-2.35c.31-.18.62-.38.92-.58v-13Z"/><path d="M99,3,96.63,0C87.15,0,75.89,6.12,75.89,21.66c0,8.48,4.25,20.11,20.17,20.11s20-9.22,20-18.57C116.11,9.35,109.08,3,99,3Z"/><path class="cls-3" d="M108.3,22.27s-.27-13-12.17-13-12.41,8.9-12.48,11.17c0,0-.83,18,7.69,22.93h0c4.38,2.6,9.18.31,9.76,0C109.61,38.6,108.3,22.27,108.3,22.27Z"/><path class="cls-4" d="M95.66,36.05a3.05,3.05,0,0,0,.4-2.35c-.72-1.09-2.08-.26-2.35-1.89-.11-.62.92-2.56,1.28-4.17a9.45,9.45,0,0,0,.22-3.48,5.31,5.31,0,0,0-4.09-3.87c-3.2-.66-6.18,1.6-7.47,2.89v.06A3.08,3.08,0,0,0,81,26.73l.47,3.32a4.63,4.63,0,0,0,3.64,3.88c1.1,3.9,3,7.6,6.19,9.45h0A8.91,8.91,0,0,0,96,44.6a7.67,7.67,0,0,0-.14-3.72c0-.14-.07-.27-.12-.41a2.22,2.22,0,0,1,.62-2.6C97.1,36.57,94.87,37.64,95.66,36.05Z"/><path d="M108.38,15.47V7.73H89.81v2.58A12.89,12.89,0,0,0,102.7,23.2h2.58a3.1,3.1,0,0,1,3.1,3.1V34h6.18V15.47Z"/><path class="cls-9" d="M129.76,65.44a12.88,12.88,0,0,0-7.49-9.38L106.8,49.29l-.29-.12a4.66,4.66,0,0,1-1.23-.8V51a12.44,12.44,0,0,1-2.4,1.62L99.09,86.62V99h37.13Z"/><polygon class="cls-7" points="113.02 63.42 108.38 63.42 99.09 86.63 103.73 44.86 113.02 63.42"/><path class="cls-8" d="M62.24,65.44a12.88,12.88,0,0,1,7.49-9.38L85.2,49.29l.29-.12a4.66,4.66,0,0,0,1.23-.8V51a12.44,12.44,0,0,0,2.4,1.62l3.79,34.05V99H55.78Z"/><polygon class="cls-7" points="78.98 63.42 83.63 63.42 92.91 86.63 88.27 44.86 78.98 63.42"/><rect class="cls-14" x="48" y="78" width="96" height="66" rx="3" ry="3"/><path class="cls-7" d="M106.5,87a3,3,0,0,0-3,3v3a3,3,0,0,0,3,3h13.14L97.28,118.4,84.15,105.27,48,141.39A3,3,0,0,0,51,144h7.15l26-26,13.13,13.13L126,102.41V115.5a3,3,0,0,0,3,3h3a3,3,0,0,0,3-3V87H106.5Z"/></g></g></svg>