<svg xmlns="http://www.w3.org/2000/svg" viewBox="0 0 743.38 629.81"><defs><style>.cls-1{fill:#d3eef4;}.cls-2{fill:#bde6ee;}.cls-3{fill:#cbcece;}.cls-4{fill:#939699;}.cls-5{fill:#00758f;}.cls-6{fill:#942645;}.cls-7{fill:#fff;}.cls-8{fill:#f80000;}.cls-9{fill:#f29111;}.cls-10{fill:#8aadbf;}.cls-11{fill:#4f6c7d;}.cls-12{fill:#324b5c;}.cls-13{fill:#b9bbbd;}</style></defs><title>feel-good</title><g id="Layer_2" data-name="Layer 2"><g id="Icons"><path class="cls-1" d="M606.83,227c-3.64,0-7.23.19-10.78.5A120.71,120.71,0,0,0,441.2,149.8,136.39,136.39,0,0,0,196,195.64c-1.22,0-2.44-.09-3.67-.09a136.41,136.41,0,1,0,0,272.81H606.83a120.67,120.67,0,1,0,0-241.33Z"/><path class="cls-2" d="M606.83,227c-3.64,0-7.23.19-10.78.5a120.68,120.68,0,0,0-186.84-60.82,115.38,115.38,0,0,0-183.55,71.47,116.65,116.65,0,0,0-12.32-.66,115.42,115.42,0,0,0,0,230.84H606.83a120.67,120.67,0,1,0,0-241.33Z"/><polygon class="cls-3" points="7.97 531.58 7.97 356.2 0 356.2 0 539.55 255.1 539.55 255.1 531.58 7.97 531.58 7.97 531.58"/><polygon class="cls-4" points="87.69 364.17 19.93 364.17 19.93 356.2 87.69 356.2 87.69 364.17 87.69 364.17"/><polygon class="cls-4" points="75.73 380.12 19.93 380.12 19.93 372.14 75.73 372.14 75.73 380.12 75.73 380.12"/><polygon class="cls-5" points="118.25 478.45 154.92 421.4 191.95 462.54 255.1 419.12 255.1 368.16 191.32 412 155.45 392.07 119.58 423.96 83.7 404.03 19.93 447.88 19.93 483.48 84.03 459.44 118.25 478.45 118.25 478.45"/><polygon class="cls-6" points="190.7 473.07 155.98 434.49 120.91 489.05 83.38 468.2 19.93 491.99 19.93 519.62 255.1 519.62 255.1 428.8 190.7 473.07 190.7 473.07"/><polygon class="cls-7" points="120.91 489.05 155.98 434.49 190.7 473.07 255.1 428.8 255.1 419.12 191.95 462.54 154.92 421.4 118.25 478.45 84.03 459.44 19.93 483.48 19.93 491.99 83.38 468.2 120.91 489.05 120.91 489.05"/><path class="cls-8" d="M583.68,77.37l-89.32,51.57,89.32,51.56a103,103,0,0,0,0-103.13Z"/><path class="cls-6" d="M494.36,128.94V232.09a103.16,103.16,0,0,0,89.32-51.59l-89.32-51.56Z"/><path class="cls-9" d="M442.79,39.62a103.15,103.15,0,0,0,51.57,192.47V128.94h0V25.78a102.61,102.61,0,0,0-51.57,13.84Z"/><path class="cls-10" d="M560.66,13.83A102.63,102.63,0,0,0,509.09,0V103.15h0l89.32-51.57a103.61,103.61,0,0,0-37.75-37.75Z"/><path class="cls-2" d="M504.58,391A78.08,78.08,0,1,0,615,391a78.08,78.08,0,0,0-110.42,0Z"/><path class="cls-1" d="M504.58,391a78.08,78.08,0,0,0,0,110.42L615,391a78.08,78.08,0,0,0-110.42,0Z"/><path class="cls-11" d="M649.42,527.09l-8.77,8.77a11.25,11.25,0,0,0-.38,15.51l66,72.89a16.88,16.88,0,0,0,24.46.61l7.73-7.73a16.88,16.88,0,0,0-.61-24.46l-72.89-66a11.26,11.26,0,0,0-15.51.39Z"/><path class="cls-12" d="M640.27,551.37l66,72.89a16.88,16.88,0,0,0,24.46.61l3.86-3.87L645,531.47l-4.39,4.39a11.25,11.25,0,0,0-.38,15.51Z"/><path class="cls-13" d="M510.55,495.47a69.65,69.65,0,1,1,49.24,20.39,69.15,69.15,0,0,1-49.24-20.39Zm117.43,4a86.53,86.53,0,1,0-14.92,14.92l25.13,25.14a11.26,11.26,0,0,1,2.46-3.69l8.77-8.77a11.26,11.26,0,0,1,3.69-2.46L628,499.49Z"/></g></g></svg>