<svg xmlns="http://www.w3.org/2000/svg" viewBox="0 0 163.6 192"><defs><style>.cls-1{fill:#4f6c7d;}.cls-2{fill:#324b5c;}.cls-3{fill:#cbcece;}.cls-4{fill:#dac7b3;}.cls-5{fill:#cdb498;}.cls-6{fill:#b29d86;}.cls-7{fill:#bdae9d;}.cls-8{fill:#f80000;}.cls-9{fill:#fff;}.cls-10{fill:#283c4a;}.cls-11{fill:#f29111;}</style></defs><title>growth</title><g id="Layer_2" data-name="Layer 2"><g id="Icons"><path class="cls-1" d="M163.6,171l-5-37.76a25,25,0,0,0-13.76-19.13L101.83,93h-20v78Z"/><path class="cls-2" d="M81.8,171V93h-20l-43,21.11A25,25,0,0,0,5,133.24L0,171Z"/><polygon class="cls-3" points="85.56 171 101.83 93 81.8 99 61.77 93 78.04 171 85.56 171"/><path class="cls-4" d="M101.83,93a9,9,0,0,1-2-5.7V72h-18V99l20-6Z"/><path class="cls-5" d="M61.77,93l20,6V72h-18V87.3a9,9,0,0,1-2,5.7Z"/><path class="cls-6" d="M63.8,87.3a9,9,0,0,1-5.15,8.14h0c.15.18,3.48,3.94,11.3,6.1a34.52,34.52,0,0,0,11.87-4.1V72h-18Z"/><path class="cls-7" d="M98.61,75.09,99.53,72H81.8V97.45h0c.6-.35,1.19-.73,1.78-1.12C89.58,92.33,95,85.76,98.61,75.09Z"/><path d="M55.48,48.52l-.76,1.75H109l-.77-1.75s2.56-10.86,2.56-19.67C110.65,18.13,101,7,88.22,5.77L83.86,0C52.75,1.46,52.94,26.89,52.94,26.89V30A106.9,106.9,0,0,0,55.48,48.52Z"/><path class="cls-4" d="M105.88,45h-1.23V36.74s.26-8.66-3.56-10.44a6.43,6.43,0,0,0-3-.62c-4-.09-7.94,3.36-16.3,3.17-8.35.19-12.31-3.26-16.29-3.17a6.47,6.47,0,0,0-3,.62C58.73,28.08,59,36.74,59,36.74V66.11c3.08,22.11,19.83,23.07,22.44,23.08h.78c2.61,0,19.37-1,22.44-23.08V66a6,6,0,0,0,5.89-5.15l1.28-9A6,6,0,0,0,105.88,45Z"/><path class="cls-5" d="M81.67,71c1-2.11,1.14-4,.78-4.56-1.41-2.1-4-.51-4.58-3.67-.21-1.2,1.8-4.95,2.5-8.08A18.1,18.1,0,0,0,80.78,48c-.89-4.22-4.75-6.84-7.92-7.5C66.43,39.12,61.33,41.46,59,44v1H57.88a6,6,0,0,0-5.94,6.85l1.29,9A6,6,0,0,0,59,66v.11c3.08,22.11,19.83,23.07,22.44,23.08h.74a17.66,17.66,0,0,0-.12-8.79c-.07-.28-.14-.54-.23-.8-1.13-3.33.75-4.28,1.19-5.06C84.46,72,80.14,74.1,81.67,71Z"/><polygon class="cls-8" points="74.6 171 89 171 93.8 159 84.8 116.63 90.8 99 72.8 99 78.8 117 69.8 159 74.6 171"/><path class="cls-9" d="M106.25,96.06l-1.3-.62A9,9,0,0,1,101.83,93l-20,6,9,15.56Z"/><path class="cls-9" d="M58.65,95.44l-1.3.62,15.45,18.5L81.8,99l-20-6A9,9,0,0,1,58.65,95.44Z"/><polygon class="cls-2" points="91.67 171 114.72 129 108.72 120 114.72 114 111.1 97.55 101.83 93 85.56 171 91.67 171"/><polygon class="cls-10" points="71.92 171 78.04 171 61.77 93 52.5 97.55 48.88 114 54.88 120 48.88 129 71.92 171"/><rect class="cls-11" x="33.8" y="126" width="96" height="66" rx="3" ry="3"/><rect class="cls-11" x="33.8" y="126" width="96" height="66" rx="3" ry="3"/><rect class="cls-11" x="33.8" y="126" width="96" height="66" rx="3" ry="3"/><path class="cls-9" d="M92.3,135a3,3,0,0,0-3,3v3a3,3,0,0,0,3,3h13.14L83.08,166.4,70,153.27,33.83,189.39a3,3,0,0,0,3,2.61H44l26-26,13.13,13.13,28.72-28.72V163.5a3,3,0,0,0,3,3h3a3,3,0,0,0,3-3V135H92.3Z"/></g></g></svg>