<svg xmlns="http://www.w3.org/2000/svg" viewBox="0 0 81 144"><defs><style>.cls-1{fill:#f29111;}</style></defs><title>Asset 1</title><g id="Layer_2" data-name="Layer 2"><g id="Icons"><path class="cls-1" d="M57.28,30a6,6,0,0,1-5.57-8.23C52.94,18.69,54,15.47,54,13.5a13.5,13.5,0,0,0-27,0c0,2,1.06,5.19,2.29,8.27A6,6,0,0,1,23.72,30H0V55.22a6,6,0,0,0,8.23,5.57c3.08-1.23,6.3-2.29,8.27-2.29a13.5,13.5,0,0,1,0,27c-2,0-5.19-1.06-8.27-2.29A6,6,0,0,0,0,88.78V114H23.72a6,6,0,0,1,5.57,8.23c-1.23,3.08-2.29,6.3-2.29,8.27a13.5,13.5,0,0,0,27,0c0-2-1.06-5.19-2.29-8.27A6,6,0,0,1,57.28,114H81V30Z"/></g></g></svg>