<svg xmlns="http://www.w3.org/2000/svg" viewBox="0 0 33 37.22"><defs><style>.cls-1{fill:#324b5c;}.cls-2{fill:#fff;}.cls-3{fill:#f29111;}.cls-4{fill:#f80000;}.cls-5{fill:#8aadbf;}.cls-6{fill:#942645;}</style></defs><title>man-pie</title><g id="Layer_2" data-name="Layer 2"><g id="Icons"><path class="cls-1" d="M16.19,21H32.37a16.11,16.11,0,0,0-2.17-8.1l-14,8.1Z"/><polygon class="cls-2" points="16.19 21.04 16.19 21.04 16.19 21.04 16.19 21.04"/><path class="cls-3" d="M27.08,2.17A16.13,16.13,0,0,0,19,0V16.19l14-8.1A16.31,16.31,0,0,0,27.08,2.17Z"/><polygon class="cls-2" points="16.19 21.04 16.19 21.04 16.19 21.04 16.19 21.04"/><path class="cls-4" d="M16.19,21l-8.1,14A16.19,16.19,0,0,0,32.37,21Z"/><path class="cls-5" d="M8.09,7a16.31,16.31,0,0,0-5.92,5.92l14,8.1V4.85A16.13,16.13,0,0,0,8.09,7Z"/><path class="cls-6" d="M2.17,12.94a16.18,16.18,0,0,0,0,16.19,16.31,16.31,0,0,0,5.92,5.92l8.1-14Z"/></g></g></svg>