<svg xmlns="http://www.w3.org/2000/svg" viewBox="0 0 160.4 159"><defs><style>.cls-1{fill:#4f6c7d;}.cls-2{fill:#324b5c;}.cls-3{fill:#cbcece;}.cls-4{fill:#dac7b3;}.cls-5{fill:#cdb498;}.cls-6{fill:#b29d86;}.cls-7{fill:#bdae9d;}.cls-8{fill:#f80000;}.cls-9{fill:#fff;}.cls-10{fill:#283c4a;}</style></defs><title>man</title><g id="Layer_2" data-name="Layer 2"><g id="Icons"><path class="cls-1" d="M157,133.24a25,25,0,0,0-13.76-19.13L100.23,93h-20v66h80.2Z"/><path class="cls-2" d="M80.2,93h-20l-43,21.11A25,25,0,0,0,3.43,133.24L0,159H80.2Z"/><polygon class="cls-3" points="100.23 93 80.2 99 60.17 93 73.94 159 86.46 159 100.23 93"/><path class="cls-4" d="M100.23,93a9,9,0,0,1-2-5.7V72h-18V99l20-6Z"/><path class="cls-5" d="M60.17,93l20,6V72h-18V87.3a9,9,0,0,1-2,5.7Z"/><path class="cls-6" d="M62.2,87.3a9,9,0,0,1-5.15,8.14h0c.15.18,3.48,3.94,11.3,6.1a34.52,34.52,0,0,0,11.87-4.1V72h-18Z"/><path class="cls-7" d="M97,75.09,97.93,72H80.2V97.45h0c.6-.35,1.19-.73,1.78-1.12C88,92.33,93.44,85.76,97,75.09Z"/><path d="M53.88,48.52l-.76,1.75h54.25l-.77-1.75s2.56-10.86,2.56-19.67C109.05,18.13,99.4,7,86.62,5.77L82.26,0C51.15,1.46,51.34,26.89,51.34,26.89V30A106.9,106.9,0,0,0,53.88,48.52Z"/><path class="cls-4" d="M104.28,45h-1.23V36.74s.26-8.66-3.56-10.44a6.43,6.43,0,0,0-3-.62c-4-.09-7.94,3.36-16.3,3.17-8.35.19-12.31-3.26-16.29-3.17a6.47,6.47,0,0,0-3,.62c-3.82,1.78-3.56,10.44-3.56,10.44V66.11c3.08,22.11,19.83,23.07,22.44,23.08h.78c2.61,0,19.37-1,22.44-23.08V66a6,6,0,0,0,5.89-5.15l1.28-9A6,6,0,0,0,104.28,45Z"/><path class="cls-5" d="M80.07,71c1.05-2.11,1.14-4,.78-4.56-1.41-2.1-4-.51-4.58-3.67-.21-1.2,1.8-4.95,2.5-8.08A18.1,18.1,0,0,0,79.18,48c-.89-4.22-4.75-6.84-7.92-7.5-6.43-1.34-11.53,1-13.87,3.58v1H56.28a6,6,0,0,0-5.94,6.85l1.29,9A6,6,0,0,0,57.39,66v.11c3.08,22.11,19.83,23.07,22.44,23.08h.74a17.66,17.66,0,0,0-.12-8.79c-.07-.28-.14-.54-.23-.8-1.13-3.33.75-4.28,1.19-5.06C82.86,72,78.54,74.1,80.07,71Z"/><polygon class="cls-8" points="92.2 159 83.2 116.63 89.2 99 71.2 99 77.2 117 68.2 159 92.2 159 92.2 159"/><path class="cls-9" d="M104.65,96.06l-1.3-.62A9,9,0,0,1,100.23,93l-20,6,9,15.56Z"/><path class="cls-9" d="M57.05,95.44l-1.3.62,15.45,18.5L80.2,99l-20-6A9,9,0,0,1,57.05,95.44Z"/><polygon class="cls-2" points="113.12 129 107.12 120 113.12 114 109.5 97.55 100.23 93 86.46 159 96.66 159 113.12 129"/><polygon class="cls-10" points="60.17 93 50.9 97.55 47.28 114 53.28 120 47.28 129 63.74 159 73.94 159 60.17 93"/></g></g></svg>