<svg xmlns="http://www.w3.org/2000/svg" viewBox="0 0 192 192"><defs><style>.cls-1{fill:#f29111;}.cls-2{fill:#aac3cf;}.cls-3{fill:#8aadbf;}.cls-4{fill:#cdb498;}.cls-5{fill:#dac7b3;}.cls-6{fill:#bdae9d;}.cls-7{fill:#b29d86;}.cls-8{fill:#324b5c;}.cls-9{fill:#fff;}.cls-10{fill:#4f6c7d;}.cls-11{fill:#b9bbbd;}.cls-12{fill:#cbcece;}.cls-13{fill:#f80000;}.cls-14{fill:#283c4a;}</style></defs><title>Asset 1</title><g id="Layer_2" data-name="Layer 2"><g id="Icons"><path class="cls-1" d="M100.5,115.5A4.51,4.51,0,0,1,96,120h0a4.51,4.51,0,0,1-4.5-4.5v-18A4.52,4.52,0,0,1,96,93h0a4.51,4.51,0,0,1,4.5,4.5Z"/><path class="cls-1" d="M122.93,136.35a4.51,4.51,0,0,1,1.65,6.15h0a4.53,4.53,0,0,1-6.15,1.65l-15.59-9A4.52,4.52,0,0,1,101.2,129h0a4.51,4.51,0,0,1,6.14-1.65Z"/><path class="cls-1" d="M84.66,127.35a4.5,4.5,0,0,1,4.5,7.8l-15.59,9a4.5,4.5,0,0,1-4.5-7.8Z"/><polygon class="cls-2" points="112.72 81 103.07 41.02 96 41.02 96 81 112.72 81"/><polygon class="cls-3" points="96 81 96 41.02 88.93 41.02 79.28 81 96 81"/><path d="M114.39,21.21C114.39,8.54,108,2.69,98.7,2.69L96.57,0c-8.66,0-19,5.6-19,19.8,0,7.75,3.88,18.36,18.39,18.38V39.6h14.14c2.63-4.39,4.09-12.13,4.23-17.52C114.38,21.79,114.39,21.5,114.39,21.21Z"/><path class="cls-4" d="M96,49.5V32.05H88.93v9A4.24,4.24,0,0,1,86.39,45l-.26.12C86.43,45.52,89.26,49.5,96,49.5Z"/><path class="cls-5" d="M105.87,45.07l-.26-.12a4.24,4.24,0,0,1-2.54-3.88v-9H96V49.5C102.74,49.5,105.57,45.52,105.87,45.07Z"/><path class="cls-6" d="M103.07,33.94V32.05H96V44C98.81,42.07,101.39,39,103.07,33.94Z"/><path class="cls-7" d="M88.93,32.05v9A4.26,4.26,0,0,1,86.39,45l-.26.11a8.64,8.64,0,0,0,1.43,1.56,17.18,17.18,0,0,0,7.6-2.15L96,44V32.05Z"/><path class="cls-5" d="M107.25,20.36S107,8.49,96.12,8.49s-11.35,8.13-11.41,10.2c0,0-.76,16.48,7,21h0c4,2.37,8.4.28,8.93,0C108.44,35.29,107.25,20.36,107.25,20.36Z"/><path class="cls-4" d="M95.69,33a2.84,2.84,0,0,0,.37-2.15c-.67-1-1.91-.24-2.16-1.73-.1-.56.85-2.33,1.18-3.81a8.61,8.61,0,0,0,.19-3.18,4.88,4.88,0,0,0-3.73-3.54c-2.92-.61-5.65,1.46-6.83,2.65v0a2.83,2.83,0,0,0-2.39,3.2l.43,3A4.22,4.22,0,0,0,86.08,31c1,3.57,2.73,7,5.66,8.64h0A8.14,8.14,0,0,0,96,40.77a6.93,6.93,0,0,0-.13-3.39c0-.13-.07-.25-.11-.38a2,2,0,0,1,.57-2.38C97,33.44,95,34.41,95.69,33Z"/><path d="M107.31,14.14V7.07h-17V9.43a11.78,11.78,0,0,0,11.79,11.78h2.36A2.83,2.83,0,0,1,107.31,24v7.07H113v-17Z"/><path class="cls-8" d="M93.17,81V79.2L89.71,48.06a11.16,11.16,0,0,1-2.2-1.48V44.22a4.27,4.27,0,0,1-1.12.74l-.26.11L72,51.26a11.76,11.76,0,0,0-6.85,8.57L61.06,81Z"/><polygon class="cls-9" points="80.44 57.99 84.69 57.99 93.17 79.2 88.93 41.01 80.44 57.99"/><path class="cls-10" d="M130.94,81l-4.07-21.17A11.76,11.76,0,0,0,120,51.26l-14.15-6.19-.26-.11a4.27,4.27,0,0,1-1.12-.74v2.36a11.16,11.16,0,0,1-2.2,1.48L98.83,79.2V81Z"/><polygon class="cls-9" points="111.56 57.99 107.31 57.99 98.83 79.2 103.07 41.01 111.56 57.99"/><path class="cls-11" d="M153.39,192V157.67h-9.9v-2.35a3.92,3.92,0,0,1-1,.67l-6,2.84-12.66,6a11.79,11.79,0,0,0-6.64,9.09L114.77,192Z"/><path class="cls-12" d="M192,192l-2.41-18.08a11.79,11.79,0,0,0-6.64-9.09l-12.66-6-6-2.84a3.7,3.7,0,0,1-1-.67v2.35h-9.9V192Z"/><path class="cls-5" d="M162.83,154.84a4.2,4.2,0,0,1-1-2.68v-7.22h-8.48v12.73l9.44-2.83Z"/><path class="cls-4" d="M143.94,154.84l9.45,2.83V144.94H144.9v7.22a4.2,4.2,0,0,1-1,2.68Z"/><path class="cls-7" d="M144.9,152.16a4.22,4.22,0,0,1-2.43,3.83h0a11.21,11.21,0,0,0,5.33,2.87,16.4,16.4,0,0,0,5.6-1.93v-12H144.9Z"/><path class="cls-6" d="M161.31,146.4l.43-1.46h-8.35v12h0c.28-.16.56-.34.84-.52C157.05,154.53,159.63,151.43,161.31,146.4Z"/><path d="M141,133.87l-.36.83h25.57l-.36-.83A48.31,48.31,0,0,0,167,124.6c0-5-4.6-10.29-10.63-10.88l-2-2.72c-14.67.69-14.58,12.68-14.58,12.68v1.45A49.72,49.72,0,0,0,141,133.87Z"/><path class="cls-9" d="M164.91,156.28l-.61-.29a4.16,4.16,0,0,1-1.47-1.15l-9.44,2.83,4.24,7.34Z"/><path class="cls-9" d="M142.47,156l-.61.29,7.28,8.73,4.25-7.34-9.45-2.83A4.16,4.16,0,0,1,142.47,156Z"/><path class="cls-5" d="M164.74,132.21h-.56v-3.89s.12-4.08-1.68-4.92a3,3,0,0,0-1.4-.29c-1.88,0-3.74,1.58-7.68,1.49-3.94.09-5.81-1.54-7.69-1.49a3,3,0,0,0-1.4.29c-1.8.84-1.68,4.92-1.68,4.92v13.6h0v.24c1.45,10.42,9.35,10.87,10.58,10.88h.37c1.23,0,9.13-.46,10.58-10.88v-.06a2.82,2.82,0,0,0,2.75-2.42l.61-4.25A2.83,2.83,0,0,0,164.74,132.21Z"/><path class="cls-4" d="M153.32,144.48a2.83,2.83,0,0,0,.37-2.15c-.66-1-1.9-.24-2.16-1.73-.1-.56.85-2.33,1.18-3.81a8.64,8.64,0,0,0,.2-3.18,4.89,4.89,0,0,0-3.74-3.54,7,7,0,0,0-6.54,1.69v.45h-.52a2.83,2.83,0,0,0-2.8,3.23l.61,4.25a2.82,2.82,0,0,0,2.71,2.42v.06c1.45,10.42,9.35,10.87,10.58,10.88h.35a8.31,8.31,0,0,0-.06-4.15,2.72,2.72,0,0,0-.11-.38,2,2,0,0,1,.57-2.38C154.64,145,152.6,145.93,153.32,144.48Z"/><path class="cls-11" d="M171.2,186.82h-6.67l-2.67-2.67V170.82h12v13.33Z"/><path class="cls-10" d="M77.23,192,74.8,173.82a11.79,11.79,0,0,0-6.48-9l-20.26-9.95H38.61V192Z"/><path class="cls-8" d="M38.61,192V154.84H29.17L8.91,164.79a11.8,11.8,0,0,0-6.49,9L0,192Z"/><polygon class="cls-12" points="40.3 192 48.06 154.84 38.61 157.67 29.17 154.84 36.92 192 40.3 192"/><path class="cls-5" d="M48.06,154.84a4.2,4.2,0,0,1-1-2.68v-7.22H38.61v12.73l9.45-2.83Z"/><path class="cls-4" d="M29.17,154.84l9.44,2.83V144.94H30.13v7.22a4.2,4.2,0,0,1-1,2.68Z"/><path class="cls-7" d="M30.13,152.16A4.24,4.24,0,0,1,27.7,156h0A11.21,11.21,0,0,0,33,158.87a16.35,16.35,0,0,0,5.59-1.93v-12H30.13Z"/><path class="cls-6" d="M46.54,146.4l.43-1.46H38.61v12h0c.28-.16.56-.34.84-.52C42.28,154.53,44.85,151.43,46.54,146.4Z"/><path d="M26.21,133.87l-.36.83H51.42l-.36-.83a48.31,48.31,0,0,0,1.21-9.27c-.06-5-4.6-10.29-10.63-10.88L39.58,111C24.92,111.69,25,123.68,25,123.68v1.45A49.72,49.72,0,0,0,26.21,133.87Z"/><path class="cls-5" d="M50,132.21h-.58v-3.89s.12-4.08-1.68-4.92a3,3,0,0,0-1.4-.29c-1.88,0-3.75,1.58-7.69,1.49-3.93.09-5.8-1.54-7.68-1.49a3,3,0,0,0-1.4.29c-1.8.84-1.68,4.92-1.68,4.92v13.6h0v.24c1.45,10.42,9.35,10.87,10.58,10.88h.37c1.23,0,9.13-.46,10.58-10.88v-.06a2.83,2.83,0,0,0,2.77-2.42l.61-4.25A2.83,2.83,0,0,0,50,132.21Z"/><path class="cls-4" d="M38.55,144.48a2.83,2.83,0,0,0,.37-2.15c-.67-1-1.91-.24-2.16-1.73-.1-.56.85-2.33,1.18-3.81a8.61,8.61,0,0,0,.19-3.18,4.88,4.88,0,0,0-3.73-3.54,7,7,0,0,0-6.54,1.69v.45h-.52a2.83,2.83,0,0,0-2.8,3.23l.61,4.25a2.82,2.82,0,0,0,2.71,2.42v.06c1.45,10.42,9.35,10.87,10.58,10.88h.35a8.31,8.31,0,0,0-.06-4.15c0-.13-.07-.25-.11-.38a2,2,0,0,1,.57-2.38C39.87,145,37.83,145.93,38.55,144.48Z"/><polygon class="cls-13" points="35.37 192 41.85 192 44.27 185.96 40.03 165.98 42.86 157.67 34.37 157.67 37.2 166.16 32.96 185.96 35.37 192"/><path class="cls-9" d="M50.14,156.28l-.61-.29a4.16,4.16,0,0,1-1.47-1.15l-9.45,2.83L42.86,165Z"/><path class="cls-9" d="M27.7,156l-.61.29L34.37,165l4.24-7.34-9.44-2.83A4.16,4.16,0,0,1,27.7,156Z"/><polygon class="cls-8" points="43.06 192 54.13 171.81 51.3 167.57 54.13 164.74 52.43 156.99 48.06 154.84 40.3 192 43.06 192"/><polygon class="cls-14" points="34.17 192 36.92 192 29.17 154.84 24.8 156.99 23.1 164.74 25.93 167.57 23.1 171.81 34.17 192"/></g></g></svg>