<svg xmlns="http://www.w3.org/2000/svg" viewBox="0 0 570.18 371.95"><defs><style>.cls-1{fill:#4f6c7d;}.cls-2{fill:#324b5c;}.cls-3{fill:#a6a9ab;}.cls-4{fill:#4e5052;}.cls-5{fill:#7d7f81;}.cls-6{fill:#cbcece;}.cls-7{fill:#bde6ee;}.cls-8{fill:#d3eef4;}.cls-11,.cls-9{fill:#f29111;}.cls-9{fill-rule:evenodd;}.cls-10{fill:#fff;}</style></defs><title>Asset 3</title><g id="Layer_2" data-name="Layer 2"><g id="Icons"><polygon class="cls-1" points="320.02 260.2 213.38 260.2 213.38 12.8 320.02 12.8 320.02 260.2 320.02 260.2"/><polygon class="cls-2" points="285.89 51.19 268.83 51.19 268.83 38.39 285.89 38.39 285.89 51.19 285.89 51.19"/><polygon class="cls-2" points="307.22 51.19 290.16 51.19 290.16 38.39 307.22 38.39 307.22 51.19 307.22 51.19"/><polygon class="cls-2" points="264.57 51.19 247.5 51.19 247.5 38.39 264.57 38.39 264.57 51.19 264.57 51.19"/><polygon class="cls-2" points="243.24 51.19 226.18 51.19 226.18 38.39 243.24 38.39 243.24 51.19 243.24 51.19"/><polygon class="cls-2" points="285.89 68.25 268.83 68.25 268.83 55.45 285.89 55.45 285.89 68.25 285.89 68.25"/><polygon class="cls-2" points="307.22 68.25 290.16 68.25 290.16 55.45 307.22 55.45 307.22 68.25 307.22 68.25"/><polygon class="cls-2" points="264.57 68.25 247.5 68.25 247.5 55.45 264.57 55.45 264.57 68.25 264.57 68.25"/><polygon class="cls-2" points="243.24 68.25 226.18 68.25 226.18 55.45 243.24 55.45 243.24 68.25 243.24 68.25"/><polygon class="cls-2" points="285.89 85.31 268.83 85.31 268.83 72.51 285.89 72.51 285.89 85.31 285.89 85.31"/><polygon class="cls-2" points="307.22 85.31 290.16 85.31 290.16 72.51 307.22 72.51 307.22 85.31 307.22 85.31"/><polygon class="cls-2" points="264.57 85.31 247.5 85.31 247.5 72.51 264.57 72.51 264.57 85.31 264.57 85.31"/><polygon class="cls-2" points="243.24 85.31 226.18 85.31 226.18 72.51 243.24 72.51 243.24 85.31 243.24 85.31"/><polygon class="cls-2" points="285.89 102.37 268.83 102.37 268.83 89.58 285.89 89.58 285.89 102.37 285.89 102.37"/><polygon class="cls-2" points="307.22 102.37 290.16 102.37 290.16 89.58 307.22 89.58 307.22 102.37 307.22 102.37"/><polygon class="cls-2" points="264.57 102.37 247.5 102.37 247.5 89.58 264.57 89.58 264.57 102.37 264.57 102.37"/><polygon class="cls-2" points="243.24 102.37 226.18 102.37 226.18 89.58 243.24 89.58 243.24 102.37 243.24 102.37"/><polygon class="cls-2" points="285.89 34.12 268.83 34.12 268.83 21.33 285.89 21.33 285.89 34.12 285.89 34.12"/><polygon class="cls-2" points="307.22 34.12 290.16 34.12 290.16 21.33 307.22 21.33 307.22 34.12 307.22 34.12"/><polygon class="cls-2" points="264.57 34.12 247.5 34.12 247.5 21.33 264.57 21.33 264.57 34.12 264.57 34.12"/><polygon class="cls-2" points="243.24 34.12 226.18 34.12 226.18 21.33 243.24 21.33 243.24 34.12 243.24 34.12"/><polygon class="cls-3" points="290.16 46.92 290.16 273 396.8 273 396.8 0 290.16 46.92 290.16 46.92"/><polygon class="cls-4" points="354.14 260.2 332.82 260.2 332.82 238.87 354.14 238.87 354.14 260.2 354.14 260.2"/><polygon class="cls-5" points="354.14 260.2 337.08 260.2 337.08 243.14 354.14 243.14 354.14 260.2 354.14 260.2"/><polygon class="cls-6" points="358.41 238.87 328.55 238.87 328.55 234.6 358.41 234.6 358.41 238.87 358.41 238.87"/><polygon class="cls-7" points="328.55 174.89 307.22 174.89 307.22 162.09 328.55 162.09 328.55 174.89 328.55 174.89"/><polygon class="cls-7" points="328.55 196.22 307.22 196.22 307.22 183.42 328.55 183.42 328.55 196.22 328.55 196.22"/><polygon class="cls-7" points="328.55 217.54 307.22 217.54 307.22 204.75 328.55 204.75 328.55 217.54 328.55 217.54"/><polygon class="cls-7" points="328.55 110.9 307.22 110.9 307.22 98.11 328.55 98.11 328.55 110.9 328.55 110.9"/><polygon class="cls-7" points="328.55 132.23 307.22 132.23 307.22 119.44 328.55 119.44 328.55 132.23 328.55 132.23"/><polygon class="cls-7" points="328.55 153.56 307.22 153.56 307.22 140.76 328.55 140.76 328.55 153.56 328.55 153.56"/><polygon class="cls-7" points="328.55 89.58 307.22 89.58 307.22 76.78 328.55 76.78 328.55 89.58 328.55 89.58"/><polygon class="cls-7" points="354.14 174.89 332.82 174.89 332.82 162.09 354.14 162.09 354.14 174.89 354.14 174.89"/><polygon class="cls-7" points="354.14 196.22 332.82 196.22 332.82 183.42 354.14 183.42 354.14 196.22 354.14 196.22"/><polygon class="cls-7" points="354.14 217.54 332.82 217.54 332.82 204.75 354.14 204.75 354.14 217.54 354.14 217.54"/><polygon class="cls-7" points="354.14 110.9 332.82 110.9 332.82 98.11 354.14 98.11 354.14 110.9 354.14 110.9"/><polygon class="cls-7" points="354.14 132.23 332.82 132.23 332.82 119.44 354.14 119.44 354.14 132.23 354.14 132.23"/><polygon class="cls-7" points="354.14 153.56 332.82 153.56 332.82 140.76 354.14 140.76 354.14 153.56 354.14 153.56"/><polygon class="cls-7" points="354.14 89.58 332.82 89.58 332.82 76.78 354.14 76.78 354.14 89.58 354.14 89.58"/><polygon class="cls-7" points="379.74 174.89 358.41 174.89 358.41 162.09 379.74 162.09 379.74 174.89 379.74 174.89"/><polygon class="cls-7" points="379.74 196.22 358.41 196.22 358.41 183.42 379.74 183.42 379.74 196.22 379.74 196.22"/><polygon class="cls-7" points="379.74 217.54 358.41 217.54 358.41 204.75 379.74 204.75 379.74 217.54 379.74 217.54"/><polygon class="cls-7" points="379.74 110.9 358.41 110.9 358.41 98.11 379.74 98.11 379.74 110.9 379.74 110.9"/><polygon class="cls-7" points="379.74 132.23 358.41 132.23 358.41 119.44 379.74 119.44 379.74 132.23 379.74 132.23"/><polygon class="cls-7" points="379.74 153.56 358.41 153.56 358.41 140.76 379.74 140.76 379.74 153.56 379.74 153.56"/><polygon class="cls-7" points="379.74 89.58 358.41 89.58 358.41 76.78 379.74 76.78 379.74 89.58 379.74 89.58"/><polygon class="cls-7" points="328.55 68.25 307.22 68.25 307.22 55.45 328.55 55.45 328.55 68.25 328.55 68.25"/><polygon class="cls-7" points="354.14 68.25 332.82 68.25 332.82 55.45 354.14 55.45 354.14 68.25 354.14 68.25"/><polygon class="cls-7" points="379.74 68.25 358.41 68.25 358.41 55.45 379.74 55.45 379.74 68.25 379.74 68.25"/><polygon class="cls-8" points="328.55 98.11 307.22 98.11 307.22 110.9 324.29 110.9 328.55 106.64 328.55 98.11 328.55 98.11"/><polygon class="cls-8" points="307.22 127.97 315.75 119.44 307.22 119.44 307.22 127.97 307.22 127.97"/><polygon class="cls-8" points="366.94 68.25 379.74 55.45 358.41 55.45 358.41 68.25 366.94 68.25 366.94 68.25"/><polygon class="cls-8" points="328.55 76.78 307.22 76.78 307.22 89.58 328.55 89.58 328.55 76.78 328.55 76.78"/><polygon class="cls-8" points="354.14 68.25 354.14 55.45 332.82 55.45 332.82 68.25 354.14 68.25 354.14 68.25"/><polygon class="cls-8" points="328.55 68.25 328.55 55.45 307.22 55.45 307.22 68.25 328.55 68.25 328.55 68.25"/><polygon class="cls-8" points="354.14 76.78 332.82 76.78 332.82 89.58 345.61 89.58 354.14 81.05 354.14 76.78 354.14 76.78"/><polygon class="cls-8" points="332.82 102.37 337.08 98.11 332.82 98.11 332.82 102.37 332.82 102.37"/><polygon class="cls-5" points="166.46 98.11 298.69 98.11 298.69 273 166.46 273 166.46 98.11 166.46 98.11"/><polygon class="cls-7" points="281.63 238.87 251.77 238.87 251.77 204.75 281.63 204.75 281.63 238.87 281.63 238.87"/><polygon class="cls-7" points="281.63 196.22 251.77 196.22 251.77 162.09 281.63 162.09 281.63 196.22 281.63 196.22"/><polygon class="cls-7" points="247.5 238.87 217.65 238.87 217.65 204.75 247.5 204.75 247.5 238.87 247.5 238.87"/><polygon class="cls-7" points="247.5 196.22 217.65 196.22 217.65 162.09 247.5 162.09 247.5 196.22 247.5 196.22"/><polygon class="cls-7" points="213.38 238.87 183.52 238.87 183.52 204.75 213.38 204.75 213.38 238.87 213.38 238.87"/><polygon class="cls-7" points="213.38 196.22 183.52 196.22 183.52 162.09 213.38 162.09 213.38 196.22 213.38 196.22"/><polygon class="cls-7" points="281.63 153.56 251.77 153.56 251.77 119.44 281.63 119.44 281.63 153.56 281.63 153.56"/><polygon class="cls-7" points="247.5 153.56 217.65 153.56 217.65 119.44 247.5 119.44 247.5 153.56 247.5 153.56"/><polygon class="cls-7" points="213.38 153.56 183.52 153.56 183.52 119.44 213.38 119.44 213.38 153.56 213.38 153.56"/><polygon class="cls-8" points="217.65 217.54 230.44 204.75 217.65 204.75 217.65 217.54 217.65 217.54"/><polygon class="cls-8" points="247.5 119.44 217.65 119.44 217.65 153.56 247.5 153.56 247.5 119.44 247.5 119.44"/><polygon class="cls-8" points="247.5 162.09 217.65 162.09 217.65 196.22 238.97 196.22 247.5 187.68 247.5 162.09 247.5 162.09"/><polygon class="cls-8" points="251.77 162.09 251.77 183.42 273.1 162.09 251.77 162.09 251.77 162.09"/><polygon class="cls-8" points="251.77 119.44 251.77 153.56 281.63 153.56 281.63 119.44 251.77 119.44 251.77 119.44"/><polygon class="cls-8" points="213.38 221.81 213.38 204.75 183.52 204.75 183.52 238.87 196.32 238.87 213.38 221.81 213.38 221.81"/><polygon class="cls-8" points="213.38 162.09 183.52 162.09 183.52 196.22 213.38 196.22 213.38 162.09 213.38 162.09"/><polygon class="cls-8" points="213.38 119.44 183.52 119.44 183.52 153.56 213.38 153.56 213.38 119.44 213.38 119.44"/><polygon class="cls-2" points="153.66 260.2 409.6 260.2 409.6 273 153.66 273 153.66 260.2 153.66 260.2"/><path class="cls-8" d="M260.77,224.7c-1.72,0-3.42.09-5.1.24a57.14,57.14,0,0,0-73.3-36.79,64.56,64.56,0,0,0-116.06,21.7c-.58,0-1.16,0-1.74,0a64.58,64.58,0,0,0,0,129.15h196.2a57.13,57.13,0,0,0,0-114.25Z"/><path class="cls-7" d="M260.77,224.7c-1.72,0-3.42.09-5.1.24a57.14,57.14,0,0,0-88.45-28.79A54.63,54.63,0,0,0,80.33,230a55.84,55.84,0,0,0-5.82-.31,54.64,54.64,0,0,0,0,109.28H260.77a57.13,57.13,0,0,0,0-114.25Z"/><path class="cls-8" d="M519.86,212.73c-1.51,0-3,.08-4.49.21a50.34,50.34,0,0,0-64.57-32.41,56.87,56.87,0,0,0-102.23,19.11c-.51,0-1,0-1.53,0a56.88,56.88,0,1,0,0,113.76H519.86a50.32,50.32,0,1,0,0-100.63Z"/><path class="cls-7" d="M519.86,212.73c-1.51,0-3,.08-4.49.21a50.33,50.33,0,0,0-77.91-25.36,48.12,48.12,0,0,0-76.54,29.8,48.13,48.13,0,1,0-5.13,96H519.86a50.32,50.32,0,1,0,0-100.63Z"/><path class="cls-9" d="M474.75,307.58a43.37,43.37,0,1,1-43.37-43.36,43.36,43.36,0,0,1,43.37,43.36Z"/><path class="cls-10" d="M448,316.28c0-7.84-6-10.89-11.56-13-5.17-1.92-10.15-3.05-10.15-6.17s2.92-4.65,5.57-4.65a14.11,14.11,0,0,1,8.39,3,1.57,1.57,0,0,0,2.14-.29l3.19-3.92a1.58,1.58,0,0,0-.36-2.32,24.86,24.86,0,0,0-9.73-3.88v-5.93a1.35,1.35,0,0,0-1.36-1.35h-5.42a1.35,1.35,0,0,0-1.35,1.35v6.09c-5.93,1.27-10.17,5.44-10.17,12.28,0,7.37,5.51,10.16,10.89,12.08,5.18,1.93,10.29,3.19,10.29,7.31,0,3.71-2.79,5.71-7.77,5.71-3.82,0-6.89-2.18-9.42-4.46a1.59,1.59,0,0,0-2.15.05l-3.7,3.58a1.59,1.59,0,0,0,0,2.31,22.84,22.84,0,0,0,12,6v6a1.36,1.36,0,0,0,1.35,1.35h5.42a1.36,1.36,0,0,0,1.36-1.35v-6.15c6.77-1.32,12.51-5.74,12.51-13.61Z"/><rect class="cls-11" x="110.95" y="305.95" width="96" height="66" rx="3" ry="3"/><path class="cls-10" d="M169.45,315a3,3,0,0,0-3,3v3a3,3,0,0,0,3,3h13.13l-22.35,22.4L147.1,333.22,111,369.34a3,3,0,0,0,3,2.61h7.15l26-26,13.13,13.13L189,330.36v13.09a3,3,0,0,0,3,3h3a3,3,0,0,0,3-3V315h-28.5Z"/></g></g></svg>