<svg xmlns="http://www.w3.org/2000/svg" viewBox="0 0 192 192"><defs><style>.cls-1{fill:#324b5c;}.cls-2{fill:#fff;}.cls-3{fill:#f29111;}.cls-4{fill:#f80000;}.cls-5{fill:#8aadbf;}.cls-6{fill:#942645;}.cls-7{fill:#dee0e0;}.cls-8{fill:#4f6c7d;}.cls-9{fill:#00758f;}.cls-10{fill:#cbcece;}.cls-11{fill:#dac7b3;}.cls-12{fill:#cdb498;}.cls-13{fill:#b29d86;}.cls-14{fill:#bdae9d;}.cls-15{fill:#283c4a;}</style></defs><title>problem</title><g id="Layer_2" data-name="Layer 2"><g id="Icons"><path class="cls-1" d="M16.19,70.81H32.37a16.07,16.07,0,0,0-2.17-8.09l-14,8.09Z"/><polygon class="cls-2" points="16.19 70.81 16.19 70.81 16.19 70.81 16.19 70.81"/><path class="cls-3" d="M27.08,52A16.13,16.13,0,0,0,19,49.78V66l14-8.09A16.31,16.31,0,0,0,27.08,52Z"/><polygon class="cls-2" points="16.19 70.81 16.19 70.81 16.19 70.81 16.19 70.81"/><path class="cls-4" d="M16.19,70.81l-8.1,14a16.19,16.19,0,0,0,24.28-14Z"/><path class="cls-5" d="M8.09,56.8a16.24,16.24,0,0,0-5.92,5.92l14,8.09V54.63A16.13,16.13,0,0,0,8.09,56.8Z"/><path class="cls-6" d="M2.17,62.72a16.18,16.18,0,0,0,0,16.19,16.31,16.31,0,0,0,5.92,5.92l8.1-14Z"/><rect class="cls-4" x="33" y="23.14" width="4.29" height="12.86"/><rect class="cls-4" x="41.57" y="14.57" width="4.29" height="21.43"/><rect class="cls-4" x="58.71" y="10.29" width="4.29" height="25.71"/><rect class="cls-4" x="50.14" y="6" width="4.29" height="30"/><rect class="cls-7" x="120" width="30" height="30"/><rect class="cls-8" x="124.29" y="4.29" width="21.43" height="4.29"/><rect class="cls-8" x="124.29" y="12.86" width="21.43" height="4.29"/><rect class="cls-8" x="124.29" y="21.43" width="12.86" height="4.29"/><rect class="cls-2" x="162" y="48" width="30" height="30"/><polygon class="cls-9" points="174.86 53.54 179.14 57.83 188.97 48 162 48 162 66.4 174.86 53.54"/><polygon class="cls-6" points="179.14 63.89 174.86 59.6 162 72.46 162 78 192 78 192 51.03 179.14 63.89"/><path class="cls-8" d="M172.77,166.24A25,25,0,0,0,159,147.11L116,126H96v66h80.2Z"/><path class="cls-1" d="M96,126H76L33,147.11a25,25,0,0,0-13.76,19.13L15.8,192H96Z"/><polygon class="cls-10" points="116.03 126 96 132 75.97 126 89.74 192 102.26 192 116.03 126"/><path class="cls-11" d="M116,126a9,9,0,0,1-2-5.7V105H96v27l20-6Z"/><path class="cls-12" d="M76,126l20,6V105H78v15.3a9,9,0,0,1-2,5.7Z"/><path class="cls-13" d="M78,120.3a9,9,0,0,1-5.15,8.14h0c.15.18,3.48,3.94,11.3,6.1A34.52,34.52,0,0,0,96,130.45V105H78Z"/><path class="cls-14" d="M112.81,108.09l.92-3.09H96v25.45h0c.6-.35,1.19-.73,1.78-1.12C103.78,125.33,109.24,118.76,112.81,108.09Z"/><path d="M69.68,81.52l-.76,1.75h54.25l-.77-1.75S125,70.66,125,61.85c-.11-10.72-9.76-21.82-22.54-23.08L98.06,33C67,34.46,67.14,59.89,67.14,59.89V63A106.9,106.9,0,0,0,69.68,81.52Z"/><path class="cls-11" d="M120.08,78h-1.23V69.74s.26-8.66-3.56-10.44a6.43,6.43,0,0,0-3-.62c-4-.09-7.94,3.36-16.3,3.17-8.35.19-12.31-3.26-16.29-3.17a6.47,6.47,0,0,0-3,.62c-3.82,1.78-3.56,10.44-3.56,10.44V99.11c3.08,22.11,19.83,23.07,22.44,23.08h.78c2.61,0,19.37-1,22.44-23.08V99a6,6,0,0,0,5.89-5.15l1.28-9A6,6,0,0,0,120.08,78Z"/><path class="cls-12" d="M95.87,104c1-2.11,1.14-4,.78-4.56-1.41-2.1-4-.51-4.58-3.67-.21-1.2,1.8-5,2.5-8.08A18.1,18.1,0,0,0,95,81c-.89-4.22-4.75-6.84-7.92-7.5-6.43-1.34-11.53,1-13.87,3.58v1H72.08a6,6,0,0,0-5.94,6.85l1.29,9A6,6,0,0,0,73.19,99v.11c3.08,22.11,19.83,23.07,22.44,23.08h.74a17.66,17.66,0,0,0-.12-8.79c-.07-.28-.14-.54-.23-.8-1.13-3.33.75-4.28,1.19-5.06C98.66,105,94.34,107.1,95.87,104Z"/><polygon class="cls-4" points="108 192 99 149.63 105 132 87 132 93 150 84 192 108 192 108 192"/><path class="cls-2" d="M120.45,129.06l-1.3-.62A9,9,0,0,1,116,126l-20,6,9,15.56Z"/><path class="cls-2" d="M72.85,128.44l-1.3.62L87,147.56,96,132l-20-6A9,9,0,0,1,72.85,128.44Z"/><polygon class="cls-1" points="128.92 162 122.92 153 128.92 147 125.3 130.55 116.03 126 102.26 192 112.46 192 128.92 162"/><polygon class="cls-15" points="75.97 126 66.7 130.55 63.08 147 69.08 153 63.08 162 79.54 192 89.74 192 75.97 126"/></g></g></svg>