<svg xmlns="http://www.w3.org/2000/svg" viewBox="0 0 632.77 909.45"><defs><style>.cls-1{fill:#4f6c7d;}.cls-2{fill:#324b5c;}.cls-3{fill:#a6a9ab;}.cls-4{fill:#4e5052;}.cls-5{fill:#7d7f81;}.cls-6{fill:#cbcece;}.cls-7{fill:#bde6ee;}.cls-8{fill:#d3eef4;}.cls-9{fill:#cf7215;}.cls-10{fill:#f29111;}.cls-11{fill:#fff;}</style></defs><title>Reward-building</title><g id="Layer_2" data-name="Layer 2"><g id="Icons"><polygon class="cls-1" points="411.3 643.31 147.65 643.31 147.65 31.64 411.3 31.64 411.3 643.31 411.3 643.31"/><polygon class="cls-2" points="326.93 126.55 284.75 126.55 284.75 94.92 326.93 94.92 326.93 126.55 326.93 126.55"/><polygon class="cls-2" points="379.66 126.55 337.48 126.55 337.48 94.92 379.66 94.92 379.66 126.55 379.66 126.55"/><polygon class="cls-2" points="274.2 126.55 232.01 126.55 232.01 94.92 274.2 94.92 274.2 126.55 274.2 126.55"/><polygon class="cls-2" points="221.47 126.55 179.28 126.55 179.28 94.92 221.47 94.92 221.47 126.55 221.47 126.55"/><polygon class="cls-2" points="326.93 168.74 284.75 168.74 284.75 137.1 326.93 137.1 326.93 168.74 326.93 168.74"/><polygon class="cls-2" points="379.66 168.74 337.48 168.74 337.48 137.1 379.66 137.1 379.66 168.74 379.66 168.74"/><polygon class="cls-2" points="274.2 168.74 232.01 168.74 232.01 137.1 274.2 137.1 274.2 168.74 274.2 168.74"/><polygon class="cls-2" points="221.47 168.74 179.28 168.74 179.28 137.1 221.47 137.1 221.47 168.74 221.47 168.74"/><polygon class="cls-2" points="326.93 210.92 284.75 210.92 284.75 179.28 326.93 179.28 326.93 210.92 326.93 210.92"/><polygon class="cls-2" points="379.66 210.92 337.48 210.92 337.48 179.28 379.66 179.28 379.66 210.92 379.66 210.92"/><polygon class="cls-2" points="274.2 210.92 232.01 210.92 232.01 179.28 274.2 179.28 274.2 210.92 274.2 210.92"/><polygon class="cls-2" points="221.47 210.92 179.28 210.92 179.28 179.28 221.47 179.28 221.47 210.92 221.47 210.92"/><polygon class="cls-2" points="326.93 253.11 284.75 253.11 284.75 221.47 326.93 221.47 326.93 253.11 326.93 253.11"/><polygon class="cls-2" points="379.66 253.11 337.48 253.11 337.48 221.47 379.66 221.47 379.66 253.11 379.66 253.11"/><polygon class="cls-2" points="274.2 253.11 232.01 253.11 232.01 221.47 274.2 221.47 274.2 253.11 274.2 253.11"/><polygon class="cls-2" points="221.47 253.11 179.28 253.11 179.28 221.47 221.47 221.47 221.47 253.11 221.47 253.11"/><polygon class="cls-2" points="326.93 84.37 284.75 84.37 284.75 52.73 326.93 52.73 326.93 84.37 326.93 84.37"/><polygon class="cls-2" points="379.66 84.37 337.48 84.37 337.48 52.73 379.66 52.73 379.66 84.37 379.66 84.37"/><polygon class="cls-2" points="274.2 84.37 232.01 84.37 232.01 52.73 274.2 52.73 274.2 84.37 274.2 84.37"/><polygon class="cls-2" points="221.47 84.37 179.28 84.37 179.28 52.73 221.47 52.73 221.47 84.37 221.47 84.37"/><polygon class="cls-3" points="337.48 116.01 337.48 674.95 601.13 674.95 601.13 0 337.48 116.01 337.48 116.01"/><polygon class="cls-4" points="495.67 643.31 442.94 643.31 442.94 590.58 495.67 590.58 495.67 643.31 495.67 643.31"/><polygon class="cls-5" points="495.67 643.31 453.48 643.31 453.48 601.13 495.67 601.13 495.67 643.31 495.67 643.31"/><polygon class="cls-6" points="506.21 590.58 432.39 590.58 432.39 580.04 506.21 580.04 506.21 590.58 506.21 590.58"/><polygon class="cls-7" points="432.39 432.39 379.66 432.39 379.66 400.75 432.39 400.75 432.39 432.39 432.39 432.39"/><polygon class="cls-7" points="432.39 485.12 379.66 485.12 379.66 453.48 432.39 453.48 432.39 485.12 432.39 485.12"/><polygon class="cls-7" points="432.39 537.85 379.66 537.85 379.66 506.21 432.39 506.21 432.39 537.85 432.39 537.85"/><polygon class="cls-7" points="432.39 274.2 379.66 274.2 379.66 242.56 432.39 242.56 432.39 274.2 432.39 274.2"/><polygon class="cls-7" points="432.39 326.93 379.66 326.93 379.66 295.29 432.39 295.29 432.39 326.93 432.39 326.93"/><polygon class="cls-7" points="432.39 379.66 379.66 379.66 379.66 348.02 432.39 348.02 432.39 379.66 432.39 379.66"/><polygon class="cls-7" points="432.39 221.47 379.66 221.47 379.66 189.83 432.39 189.83 432.39 221.47 432.39 221.47"/><polygon class="cls-7" points="495.67 432.39 442.94 432.39 442.94 400.75 495.67 400.75 495.67 432.39 495.67 432.39"/><polygon class="cls-7" points="495.67 485.12 442.94 485.12 442.94 453.48 495.67 453.48 495.67 485.12 495.67 485.12"/><polygon class="cls-7" points="495.67 537.85 442.94 537.85 442.94 506.21 495.67 506.21 495.67 537.85 495.67 537.85"/><polygon class="cls-7" points="495.67 274.2 442.94 274.2 442.94 242.56 495.67 242.56 495.67 274.2 495.67 274.2"/><polygon class="cls-7" points="495.67 326.93 442.94 326.93 442.94 295.29 495.67 295.29 495.67 326.93 495.67 326.93"/><polygon class="cls-7" points="495.67 379.66 442.94 379.66 442.94 348.02 495.67 348.02 495.67 379.66 495.67 379.66"/><polygon class="cls-7" points="495.67 221.47 442.94 221.47 442.94 189.83 495.67 189.83 495.67 221.47 495.67 221.47"/><polygon class="cls-7" points="558.94 432.39 506.21 432.39 506.21 400.75 558.94 400.75 558.94 432.39 558.94 432.39"/><polygon class="cls-7" points="558.94 485.12 506.21 485.12 506.21 453.48 558.94 453.48 558.94 485.12 558.94 485.12"/><polygon class="cls-7" points="558.94 537.85 506.21 537.85 506.21 506.21 558.94 506.21 558.94 537.85 558.94 537.85"/><polygon class="cls-7" points="558.94 274.2 506.21 274.2 506.21 242.56 558.94 242.56 558.94 274.2 558.94 274.2"/><polygon class="cls-7" points="558.94 326.93 506.21 326.93 506.21 295.29 558.94 295.29 558.94 326.93 558.94 326.93"/><polygon class="cls-7" points="558.94 379.66 506.21 379.66 506.21 348.02 558.94 348.02 558.94 379.66 558.94 379.66"/><polygon class="cls-7" points="558.94 221.47 506.21 221.47 506.21 189.83 558.94 189.83 558.94 221.47 558.94 221.47"/><polygon class="cls-7" points="432.39 168.74 379.66 168.74 379.66 137.1 432.39 137.1 432.39 168.74 432.39 168.74"/><polygon class="cls-7" points="495.67 168.74 442.94 168.74 442.94 137.1 495.67 137.1 495.67 168.74 495.67 168.74"/><polygon class="cls-7" points="558.94 168.74 506.21 168.74 506.21 137.1 558.94 137.1 558.94 168.74 558.94 168.74"/><polygon class="cls-8" points="432.39 242.56 379.66 242.56 379.66 274.2 421.84 274.2 432.39 263.65 432.39 242.56 432.39 242.56"/><polygon class="cls-8" points="379.66 316.38 400.75 295.29 379.66 295.29 379.66 316.38 379.66 316.38"/><polygon class="cls-8" points="527.3 168.74 558.94 137.1 506.21 137.1 506.21 168.74 527.3 168.74 527.3 168.74"/><polygon class="cls-8" points="432.39 189.83 379.66 189.83 379.66 221.47 432.39 221.47 432.39 189.83 432.39 189.83"/><polygon class="cls-8" points="495.67 168.74 495.67 137.1 442.94 137.1 442.94 168.74 495.67 168.74 495.67 168.74"/><polygon class="cls-8" points="432.39 168.74 432.39 137.1 379.66 137.1 379.66 168.74 432.39 168.74 432.39 168.74"/><polygon class="cls-8" points="495.67 189.83 442.94 189.83 442.94 221.47 474.57 221.47 495.67 200.38 495.67 189.83 495.67 189.83"/><polygon class="cls-8" points="442.94 253.11 453.48 242.56 442.94 242.56 442.94 253.11 442.94 253.11"/><polygon class="cls-5" points="31.64 242.56 358.57 242.56 358.57 674.95 31.64 674.95 31.64 242.56 31.64 242.56"/><polygon class="cls-7" points="316.38 590.58 242.56 590.58 242.56 506.21 316.38 506.21 316.38 590.58 316.38 590.58"/><polygon class="cls-7" points="316.38 485.12 242.56 485.12 242.56 400.75 316.38 400.75 316.38 485.12 316.38 485.12"/><polygon class="cls-7" points="232.01 590.58 158.19 590.58 158.19 506.21 232.01 506.21 232.01 590.58 232.01 590.58"/><polygon class="cls-7" points="232.01 485.12 158.19 485.12 158.19 400.75 232.01 400.75 232.01 485.12 232.01 485.12"/><polygon class="cls-7" points="147.65 590.58 73.82 590.58 73.82 506.21 147.65 506.21 147.65 590.58 147.65 590.58"/><polygon class="cls-7" points="147.65 485.12 73.82 485.12 73.82 400.75 147.65 400.75 147.65 485.12 147.65 485.12"/><polygon class="cls-7" points="316.38 379.66 242.56 379.66 242.56 295.29 316.38 295.29 316.38 379.66 316.38 379.66"/><polygon class="cls-7" points="232.01 379.66 158.19 379.66 158.19 295.29 232.01 295.29 232.01 379.66 232.01 379.66"/><polygon class="cls-7" points="147.65 379.66 73.82 379.66 73.82 295.29 147.65 295.29 147.65 379.66 147.65 379.66"/><polygon class="cls-8" points="158.19 537.85 189.83 506.21 158.19 506.21 158.19 537.85 158.19 537.85"/><polygon class="cls-8" points="232.01 295.29 158.19 295.29 158.19 379.66 232.01 379.66 232.01 295.29 232.01 295.29"/><polygon class="cls-8" points="232.01 400.75 158.19 400.75 158.19 485.12 210.92 485.12 232.01 464.03 232.01 400.75 232.01 400.75"/><polygon class="cls-8" points="242.56 400.75 242.56 453.48 295.29 400.75 242.56 400.75 242.56 400.75"/><polygon class="cls-8" points="242.56 295.29 242.56 379.66 316.38 379.66 316.38 295.29 242.56 295.29 242.56 295.29"/><polygon class="cls-8" points="147.65 548.4 147.65 506.21 73.82 506.21 73.82 590.58 105.46 590.58 147.65 548.4 147.65 548.4"/><polygon class="cls-8" points="147.65 400.75 73.82 400.75 73.82 485.12 147.65 485.12 147.65 400.75 147.65 400.75"/><polygon class="cls-8" points="147.65 295.29 73.82 295.29 73.82 379.66 147.65 379.66 147.65 295.29 147.65 295.29"/><polygon class="cls-2" points="0 643.31 632.77 643.31 632.77 674.95 0 674.95 0 643.31 0 643.31"/><polygon class="cls-9" points="490.32 860.87 419.03 855.94 381.53 909.45 260.43 705.1 398.01 705.1 490.32 860.87 490.32 860.87"/><polygon class="cls-9" points="144.45 860.87 215.74 855.94 253.24 909.45 374.33 705.1 236.75 705.1 144.45 860.87 144.45 860.87"/><polygon class="cls-10" points="317.38 520.18 355.29 498.81 377.43 536.27 420.95 536.72 421.39 580.23 458.86 602.37 437.48 640.28 458.86 678.19 421.39 700.33 420.95 743.84 377.43 744.28 355.29 781.75 317.38 760.38 279.47 781.75 257.33 744.28 213.81 743.84 213.38 700.33 175.91 678.19 197.28 640.28 175.91 602.37 213.38 580.23 213.81 536.72 257.33 536.27 279.47 498.81 317.38 520.18 317.38 520.18"/><path class="cls-11" d="M280.46,673.55l-23.95-23.94a9.7,9.7,0,0,1,0-13.69l6.85-6.84a9.67,9.67,0,0,1,13.68,0L301,653l54.73-54.74a9.68,9.68,0,0,1,13.69,0l6.84,6.84a9.68,9.68,0,0,1,0,13.69l-54.74,54.73L301,694.08l-20.53-20.53Z"/></g></g></svg>