<svg xmlns="http://www.w3.org/2000/svg" viewBox="0 0 82.78 143.97"><defs><style>.cls-1{fill:#f29111;}</style></defs><title>rl-puzzle</title><g id="Layer_2" data-name="Layer 2"><g id="Icons"><path class="cls-1" d="M59.07,30.36A6,6,0,0,1,53.68,22C55,19,56.1,15.76,56.15,13.79a13.5,13.5,0,1,0-27-.58c0,2,1,5.21,2.11,8.32a6,6,0,0,1-5.74,8.11L1.8,29.13,1.26,54.34a6,6,0,0,0,8.11,5.74c3.1-1.16,6.35-2.15,8.32-2.11a13.5,13.5,0,0,1-.58,27c-2,0-5.17-1.17-8.22-2.47A6,6,0,0,0,.54,87.9L0,113.11l23.71.51A6,6,0,0,1,29.1,122c-1.29,3.06-2.42,6.26-2.46,8.22a13.5,13.5,0,1,0,27,.58c0-2-.94-5.21-2.11-8.32a6,6,0,0,1,5.75-8.1l23.71.51,1.8-84-23.71-.51Z"/></g></g></svg>