<svg xmlns="http://www.w3.org/2000/svg" viewBox="0 0 192 192"><defs><style>.cls-1{fill:#cad9de;}.cls-2{fill:#4f6c7d;}.cls-3{fill:#939699;}.cls-4{fill:#e9eaea;}.cls-5{fill:#a6a9ab;}.cls-6{fill:#324b5c;}.cls-7{fill:#cbcece;}.cls-8{fill:#f80000;}.cls-9{fill:#dac7b3;}.cls-10{fill:#cdb498;}.cls-11{fill:#b29d86;}.cls-12{fill:#bdae9d;}.cls-13{fill:#fff;}.cls-14{fill:#283c4a;}.cls-15{fill:#b9bbbd;}</style></defs><title>teams</title><g id="Layer_2" data-name="Layer 2"><g id="Icons"><polygon class="cls-1" points="33 165 0 165 0 120 33 120 33 165 33 165"/><path class="cls-2" d="M31.42,154.92a5.71,5.71,0,0,0-3.31-4.15l-6.84-3-.12-.05a1.9,1.9,0,0,1-.39-.23L24,154H22l-4.1,10.25,1.67-15a6.56,6.56,0,0,1-3,.69,6.56,6.56,0,0,1-3-.69l1.67,15L11,154H9l3.26-6.53a1.9,1.9,0,0,1-.39.23l-.12.05-6.84,3a5.71,5.71,0,0,0-3.31,4.15L0,163.13V165H33v-1.87l-1.58-8.21ZM13.09,144a8.63,8.63,0,0,1-1.38-3,2,2,0,0,1-1.61-1.71l-.21-1.47A1.36,1.36,0,0,1,11,136.27c0-.76,0-1.23,0-1.23a4.71,4.71,0,0,1,2.73-4.44,5.68,5.68,0,0,0,5.69,5.65H20.6A1.37,1.37,0,0,1,22,137.46c-.07,2.24-.58,6.18-3.17,7.68h4.55c1.3-2.18,2-6.07,2-8.68v-.21c0-6.12-3.11-9-7.58-9l-1-1.3c-4.19,0-9.17,2.71-9.17,9.57,0,3.05,1.24,7,5.48,8.39Z"/><polygon class="cls-1" points="153 45 120 45 120 0 153 0 153 45 153 45"/><path class="cls-2" d="M151.42,34.92a5.71,5.71,0,0,0-3.31-4.15l-6.84-3-.12-.05a1.9,1.9,0,0,1-.39-.23L144,34H142l-4.1,10.25,1.67-15a7,7,0,0,1-6.08,0l1.67,15L131,34H129l3.26-6.53a1.9,1.9,0,0,1-.39.23l-.12.05-6.84,3a5.71,5.71,0,0,0-3.31,4.15L120,43.13V45h33V43.13l-1.58-8.21ZM133.09,24a8.63,8.63,0,0,1-1.38-3,2,2,0,0,1-1.61-1.71l-.21-1.47A1.36,1.36,0,0,1,131,16.27c0-.76,0-1.23,0-1.23a4.71,4.71,0,0,1,2.73-4.44,5.68,5.68,0,0,0,5.69,5.65h1.14A1.37,1.37,0,0,1,142,17.46c-.07,2.24-.58,6.18-3.17,7.68h4.55c1.3-2.18,2-6.07,2-8.68v-.21c0-6.12-3.11-8.95-7.59-8.95l-1-1.3c-4.19,0-9.17,2.71-9.17,9.57,0,3.05,1.24,7,5.48,8.39Z"/><polygon class="cls-1" points="102 192 75 192 75 156 102 156 102 192 102 192"/><path class="cls-2" d="M92.3,179.78a2.07,2.07,0,0,1-.32-.19l2.67,5.34H93L90.15,192h11.78l-1.22-6.34A4.66,4.66,0,0,0,98,182.27l-5.6-2.45-.1,0Z"/><path class="cls-2" d="M88.5,181.58A5.42,5.42,0,0,1,86,181l1.22,11h2.53L91,181a5.42,5.42,0,0,1-2.49.57Z"/><path class="cls-2" d="M86.85,192,84,184.93H82.35L85,179.59a2.07,2.07,0,0,1-.32.19l-.1,0L79,182.27a4.64,4.64,0,0,0-2.71,3.39L75.07,192Z"/><path class="cls-2" d="M85.71,176.69a7.28,7.28,0,0,1-1.13-2.42,1.68,1.68,0,0,1-1.32-1.41l-.17-1.19A1.12,1.12,0,0,1,84,170.4c0-.62,0-1,0-1a3.85,3.85,0,0,1,2.23-3.63,4.66,4.66,0,0,0,4.66,4.63h.94a1.12,1.12,0,0,1,1.11,1c-.06,1.83-.47,5.05-2.6,6.28h3.72a16.45,16.45,0,0,0,1.68-7.11v-.16c0-5-2.54-7.32-6.2-7.32L88.73,162c-3.43,0-7.5,2.21-7.5,7.83,0,2.49,1,5.74,4.48,6.86Z"/><polygon class="cls-1" points="192 117 165 117 165 81 192 81 192 117 192 117"/><rect class="cls-3" x="174.84" y="102.39"/><rect class="cls-3" x="182.16" y="102.39"/><path class="cls-2" d="M172.94,96.67l.24,1.67a1.11,1.11,0,0,0,1.07,1v0c.57,4.13,3.7,4.31,4.18,4.31h.15c.49,0,3.61-.18,4.18-4.31v0a1.11,1.11,0,0,0,1.1-1l.24-1.67a1.12,1.12,0,0,0-.56-1.14,17.81,17.81,0,0,0,.36-3.15,4.66,4.66,0,0,0-4.2-4.3L178.89,87c-5.8.27-5.77,5-5.77,5v.58a19.28,19.28,0,0,0,.37,3,1.11,1.11,0,0,0-.55,1.13Z"/><polygon class="cls-2" points="192 117 192 109.2 183.94 105.13 183.94 105.13 183.57 104.94 182.16 104.23 182.16 104.23 182.16 104.23 180.17 114.01 179.05 108.74 179.56 107.24 178.49 105.46 177.41 107.25 177.93 108.81 176.82 114 174.84 104.23 174.84 104.23 174.84 104.23 165 109.19 165 117 192 117 192 117"/><polygon class="cls-1" points="45 72 6 72 6 18 45 18 45 72 45 72"/><path class="cls-2" d="M17.47,38l.34,2.43a1.61,1.61,0,0,0,1.55,1.38v0c.83,6,5.34,6.21,6.05,6.22h.21c.7,0,5.21-.26,6-6.22v0a1.6,1.6,0,0,0,1.58-1.38L33.59,38a1.6,1.6,0,0,0-.82-1.64,24.88,24.88,0,0,0,.53-4.55,6.74,6.74,0,0,0-6.07-6.22L26.06,24c-8.38.39-8.33,7.24-8.33,7.24v.83a27,27,0,0,0,.53,4.26A1.61,1.61,0,0,0,17.47,38Z"/><polygon class="cls-2" points="45 56.06 33.36 50.19 33.36 50.19 32.82 49.92 30.79 48.89 30.79 48.89 30.79 48.89 27.91 63.01 26.29 55.41 27.03 53.24 25.48 50.66 23.93 53.26 24.68 55.51 23.07 62.99 20.21 48.89 20.21 48.89 20.21 48.89 6 56.05 6 72 45 72 45 56.06 45 56.06"/><polygon class="cls-3" points="20.22 48.89 20.22 48.89 20.22 48.89 20.22 48.89 20.22 48.89"/><polygon class="cls-3" points="30.78 48.89 30.78 48.89 30.78 48.89 30.78 48.89 30.78 48.89"/><path class="cls-4" d="M135,96A39,39,0,1,1,96,57a39,39,0,0,1,39,39Z"/><path class="cls-5" d="M121.49,121.46a36,36,0,1,1,0-50.92,36,36,0,0,1,0,50.92ZM64.21,64.18a45,45,0,1,0,63.64,0,45,45,0,0,0-63.64,0Z"/><path class="cls-2" d="M127.34,119.22a10.4,10.4,0,0,0-5.24-6l-17.8-8.74H96V135a38.91,38.91,0,0,0,27.58-11.42,39.41,39.41,0,0,0,3.76-4.36Z"/><path class="cls-6" d="M68.42,123.58A38.91,38.91,0,0,0,96,135V104.53H87.7l-17.8,8.74a10.4,10.4,0,0,0-5.24,6,39.41,39.41,0,0,0,3.76,4.36Z"/><path class="cls-7" d="M98,135l6.35-30.42L96,107l-8.3-2.48L94.05,135a36.24,36.24,0,0,0,3.9,0Z"/><path class="cls-8" d="M92.21,134.82a40,40,0,0,0,7.58,0l1.18-2.95-3.73-17.55L99.73,107H92.27l2.49,7.46L91,131.87l1.18,2.95Z"/><path class="cls-9" d="M104.3,104.53a3.68,3.68,0,0,1-.84-2.36V95.83H96V107l8.3-2.48Z"/><path class="cls-10" d="M87.7,104.53,96,107V95.83H88.54v6.34a3.74,3.74,0,0,1-.84,2.36Z"/><path class="cls-11" d="M88.54,102.17a3.74,3.74,0,0,1-2.13,3.37h0a9.74,9.74,0,0,0,4.68,2.53,14.3,14.3,0,0,0,4.92-1.7V95.83H88.54v6.34Z"/><path class="cls-12" d="M103,97.11l.38-1.28H96v10.54h0c.25-.15.5-.3.74-.47,2.47-1.65,4.73-4.37,6.21-8.79Z"/><path d="M85.1,86.1l-.32.73h22.47l-.31-.73A42.72,42.72,0,0,0,108,78c0-4.44-4-9-9.34-9.56L96.85,66C84,66.61,84,77.14,84,77.14v1.28A43.68,43.68,0,0,0,85.1,86.1Z"/><path class="cls-9" d="M106,84.64h-.51V81.22s.11-3.59-1.48-4.32a2.63,2.63,0,0,0-1.23-.26C101.11,76.6,99.47,78,96,78c-3.46.08-5.1-1.35-6.75-1.31A2.69,2.69,0,0,0,88,76.9c-1.58.73-1.47,4.32-1.47,4.32v12h0v.21c1.27,9.16,8.22,9.55,9.3,9.56h.32c1.08,0,8-.4,9.3-9.56v0a2.47,2.47,0,0,0,2.43-2.13l.54-3.73A2.49,2.49,0,0,0,106,84.64Z"/><path class="cls-10" d="M96,95.42a2.52,2.52,0,0,0,.32-1.89c-.59-.87-1.68-.21-1.9-1.52-.08-.49.75-2.05,1-3.34a7.81,7.81,0,0,0,.17-2.8,4.29,4.29,0,0,0-3.28-3.11,6.17,6.17,0,0,0-5.75,1.48v.4h-.46a2.49,2.49,0,0,0-2.46,2.84l.53,3.73a2.48,2.48,0,0,0,2.39,2.13v0c1.27,9.16,8.22,9.55,9.3,9.56h.3a7.26,7.26,0,0,0-.05-3.64q0-.18-.09-.33a1.8,1.8,0,0,1,.49-2.1c.6-1-1.19-.18-.55-1.46Z"/><path class="cls-13" d="M106.13,105.79l-.54-.25a3.68,3.68,0,0,1-1.29-1L96,107l3.73,6.45,6.4-7.67Z"/><path class="cls-13" d="M86.41,105.54l-.54.25,6.4,7.67L96,107l-8.3-2.48a3.68,3.68,0,0,1-1.29,1Z"/><path class="cls-6" d="M101.3,134.64l8.34-15.2-2.49-3.73,2.49-2.48-1.5-6.82-3.84-1.88L98,135c1.12,0,2.24-.16,3.35-.31Z"/><path class="cls-14" d="M90.7,134.64c1.11.15,2.23.26,3.35.31L87.7,104.53l-3.84,1.88-1.5,6.82,2.49,2.48-2.49,3.73,8.34,15.2Z"/><path class="cls-15" d="M70.54,121.46a36,36,0,1,1,50.92,0,36,36,0,0,1-50.92,0Zm78.74,19.33-17.5-17.49a45,45,0,1,0-8.48,8.48l17.49,17.5,8.49-8.49Z"/><path class="cls-6" d="M143,138.57,138.57,143a6,6,0,0,0-.21,8.26L172.52,189a9,9,0,0,0,13,.32l3.8-3.8a9,9,0,0,0-.32-13l-37.76-34.16a6,6,0,0,0-8.26.21Z"/><path class="cls-2" d="M151.28,138.36a6,6,0,0,0-8.26.21l-2.23,2.22,46.67,46.67,1.9-1.9a9,9,0,0,0-.32-13l-37.76-34.16Z"/></g></g></svg>