<svg xmlns="http://www.w3.org/2000/svg" viewBox="0 0 311.67 281.81"><defs><style>.cls-1,.cls-13,.cls-14,.cls-15,.cls-16,.cls-17,.cls-18,.cls-19,.cls-20,.cls-21,.cls-22,.cls-23,.cls-24,.cls-25,.cls-26,.cls-27,.cls-28,.cls-29,.cls-3,.cls-30,.cls-31,.cls-32,.cls-33,.cls-34,.cls-35,.cls-36,.cls-37,.cls-38,.cls-39,.cls-40,.cls-46,.cls-48,.cls-49,.cls-50,.cls-51,.cls-52{font-size:7px;}.cls-1,.cls-12,.cls-7,.cls-9{fill:#942645;} .cls-2{letter-spacing:-0.02em;}.cls-3,.cls-6{fill:#003b4d;}.cls-15,.cls-4{letter-spacing:0em;}.cls-5{letter-spacing:-0.05em;}.cls-8{letter-spacing:-0.01em;}.cls-9{opacity:0.1;}.cls-10{letter-spacing:0.01em;}.cls-11{letter-spacing:0em;}.cls-12{font-size:5px;}.cls-13{letter-spacing:0em;}.cls-16{letter-spacing:-0.01em;}.cls-17,.cls-43{letter-spacing:-0.01em;}.cls-18,.cls-41{letter-spacing:-0.01em;}.cls-19{letter-spacing:-0.08em;}.cls-20{letter-spacing:-0.03em;}.cls-21{letter-spacing:-0.01em;}.cls-22{letter-spacing:0.01em;}.cls-23{letter-spacing:-0.09em;}.cls-24{letter-spacing:-0.01em;}.cls-25,.cls-45{letter-spacing:0.01em;}.cls-26{letter-spacing:0.03em;}.cls-27{letter-spacing:-0.07em;}.cls-28{letter-spacing:0em;}.cls-29{letter-spacing:0em;}.cls-30,.cls-42{letter-spacing:0em;}.cls-31,.cls-47{letter-spacing:-0.01em;}.cls-32{letter-spacing:-0.02em;}.cls-33{letter-spacing:-0.01em;}.cls-34{letter-spacing:-0.04em;}.cls-35{letter-spacing:0.01em;}.cls-36{letter-spacing:-0.01em;}.cls-37{letter-spacing:0em;}.cls-38{letter-spacing:-0.01em;}.cls-39{letter-spacing:0.01em;}.cls-40{letter-spacing:-0.01em;}.cls-44{letter-spacing:0.01em;}.cls-46{letter-spacing:-0.01em;}.cls-48{letter-spacing:-0.01em;}.cls-49{letter-spacing:-0.01em;}.cls-50{letter-spacing:0.01em;}.cls-51{letter-spacing:0.02em;}.cls-52{letter-spacing:-0.01em;}</style></defs><title>Asset 1</title><g id="Layer_2" data-name="Layer 2"><g id="Layer_1-2" data-name="Layer 1"><text class="cls-1" transform="translate(44.67 5.86)"><tspan class="cls-2">Z</tspan><tspan x="3.72" y="0">ONE OF </tspan><tspan class="cls-2" x="27.8" y="0">C</tspan><tspan x="31.71" y="0">ONTENTMENT</tspan></text><text class="cls-3" transform="translate(141.09 277.11)">TE<tspan class="cls-4" x="6.92" y="0">A</tspan><tspan x="11.18" y="0">M BEH</tspan><tspan class="cls-5" x="30.09" y="0">A</tspan><tspan x="34.01" y="0">VIOURS</tspan></text><path class="cls-6" d="M.52,141.53v1.63H.1v-3.7H.52v1.6H5.16v.45Z"/><path class="cls-6" d="M5.16,138.65H.1v-3H.52v2.55H2.34v-2.45h.42v2.45h2v-2.65h.42Z"/><path class="cls-6" d="M5.16,135,.1,133v-.53l5.06-2v.5l-1.36.54V134l1.36.53Zm-1.78-3.35L.52,132.76l2.86,1.12Z"/><path class="cls-6" d="M5.16,129.74H.1V129l4.41-1.9L.1,125.17v-.69H5.16v.45H.49v0l4.67,1.93v.46L.51,129.27H5.16Z"/><path class="cls-6" d="M1.29,118.07a1.06,1.06,0,0,0-.87,1.19c0,1.29,1.18,1.69,2.21,1.69s2.22-.4,2.22-1.69A1.19,1.19,0,0,0,3.94,118v-.49a1.7,1.7,0,0,1,1.33,1.74c0,1.53-1.24,2.18-2.64,2.18S0,120.79,0,119.26c0-.83.38-1.61,1.29-1.68Z"/><path class="cls-6" d="M5.16,116.5H.1V116H4.74V113.5h.42Z"/><path class="cls-6" d="M5.16,112.55H.08v-.45H5.16Z"/><path class="cls-6" d="M5.16,110.68H.1V110l4.41-1.9L.1,106.11v-.69H5.16v.45H.49v0l4.67,1.93v.46L.51,110.21H5.16Z"/><path class="cls-6" d="M5.16,104.69l-5.06-2v-.53l5.06-2v.5l-1.36.54v2.52l1.36.53Zm-1.78-3.36L.52,102.42l2.86,1.12Z"/><path class="cls-6" d="M.52,98.88v1.63H.1v-3.7H.52v1.6H5.16v.45Z"/><path class="cls-6" d="M5.16,96H.1V93H.52v2.55H2.34V93.09h.42v2.45h2V92.89h.42Z"/><path class="cls-7" d="M218.64,256.33v-5.06h1.27c1,0,2.06.22,2.06,1.43s-1.09,1.45-2.06,1.43h-.82v2.2Zm.45-2.62h1.11c.68,0,1.28-.22,1.28-1s-.6-1-1.28-1h-1.11Z"/><path class="cls-7" d="M223.39,256.33h-.45v-5.06h1.65a2.15,2.15,0,0,1,1.19.26,1.18,1.18,0,0,1-.46,2.15h0c.65.11.79.54.85,1.13.09.82.06,1.2.27,1.51h-.53a3.79,3.79,0,0,1-.17-1.06c-.11-1.15-.18-1.35-1.1-1.35h-1.25Zm1-2.83c.65,0,1.45-.05,1.45-.91s-.91-.9-1.4-.9h-1v1.81Z"/><path class="cls-7" d="M229.47,256.43c-1.45,0-2.26-1.06-2.26-2.63s.81-2.64,2.26-2.64,2.25,1.06,2.25,2.64S230.92,256.43,229.47,256.43Zm0-.42c1.26,0,1.76-1.11,1.76-2.21s-.5-2.22-1.76-2.22-1.77,1.11-1.77,2.22S228.21,256,229.47,256Z"/><path class="cls-7" d="M231.87,256.33l2-5.06h.53l2,5.06h-.5l-.54-1.37h-2.51l-.53,1.37Zm3.35-1.79-1.09-2.85L233,254.54Z"/><path class="cls-7" d="M239.88,252.45a1.07,1.07,0,0,0-1.19-.87c-1.29,0-1.68,1.18-1.68,2.22s.39,2.21,1.68,2.21a1.19,1.19,0,0,0,1.25-.91h.49a1.68,1.68,0,0,1-1.74,1.33c-1.53,0-2.17-1.23-2.17-2.63s.65-2.64,2.17-2.64c.83,0,1.61.38,1.68,1.29Z"/><path class="cls-7" d="M242.49,251.69h-1.63v-.42h3.69v.42H243v4.64h-.45Z"/><path class="cls-7" d="M245.4,256.33v-5.08h.45v5.08Z"/><path class="cls-7" d="M248.76,255.87h0l1.61-4.6h.45L249,256.33h-.51l-1.85-5.06h.49Z"/><path class="cls-7" d="M251.59,256.33v-5.06h3v.42H252v1.81h2.45v.42H252v2h2.66v.43Z"/><path class="cls-7" d="M87.56,256.33h-.45v-5.06h1.65a2.13,2.13,0,0,1,1.19.26,1.19,1.19,0,0,1-.45,2.15h0c.64.11.78.54.84,1.13a4,4,0,0,0,.27,1.51h-.53a4.69,4.69,0,0,1-.17-1.06c-.1-1.15-.18-1.35-1.09-1.35H87.56Zm1-2.83c.64,0,1.44-.05,1.44-.91s-.91-.9-1.39-.9h-1v1.81Z"/><path class="cls-7" d="M91.77,256.33v-5.06h3v.42H92.23v1.81h2.45v.42H92.23v2h2.65v.43Z"/><path class="cls-7" d="M95.4,256.33l2-5.06h.53l2,5.06h-.5L98.91,255H96.4l-.53,1.37Zm3.35-1.79-1.09-2.85-1.12,2.85Z"/><path class="cls-7" d="M103.41,252.45a1.07,1.07,0,0,0-1.19-.87c-1.29,0-1.69,1.18-1.69,2.22s.4,2.21,1.69,2.21a1.19,1.19,0,0,0,1.25-.91H104a1.68,1.68,0,0,1-1.74,1.33c-1.53,0-2.18-1.23-2.18-2.63s.66-2.64,2.18-2.64c.83,0,1.61.38,1.68,1.29Z"/><path class="cls-7" d="M106,251.69h-1.64v-.42h3.7v.42h-1.6v4.64H106Z"/><path class="cls-7" d="M108.93,256.33v-5.08h.45v5.08Z"/><path class="cls-7" d="M112.29,255.87h0l1.61-4.6h.45l-1.83,5.06H112l-1.85-5.06h.49Z"/><path class="cls-7" d="M115.12,256.33v-5.06h3v.42h-2.55v1.81H118v.42h-2.45v2h2.66v.43Z"/><path class="cls-7" d="M24.6,184.35v-.51l4.45-2.79v0H24.6v-.45h5.06v.57l-4.37,2.74h4.37v.45Z"/><path class="cls-7" d="M29.66,179.23H24.6v-3H25v2.55h1.82v-2.46h.42v2.46h2v-2.66h.42Z"/><path class="cls-7" d="M27.08,171.25h2.37a4.67,4.67,0,0,1,.32,1.81c0,1.38-1.08,2.16-2.64,2.16-1.3,0-2.63-.69-2.63-2.16a1.63,1.63,0,0,1,1.35-1.78v.52a1.15,1.15,0,0,0-.93,1.26c0,1.21,1.16,1.67,2.21,1.67,1.29,0,2.22-.54,2.22-1.91a4.34,4.34,0,0,0-.21-1.12H27.5V173h-.42Z"/><path class="cls-7" d="M29.66,170.69l-5.06-2v-.53l5.06-2v.5l-1.36.54v2.51l1.36.53Zm-1.79-3.35L25,168.43l2.85,1.11Z"/><path class="cls-7" d="M25,164.88v1.63H24.6v-3.7H25v1.61h4.64v.44Z"/><path class="cls-7" d="M29.66,162H24.58v-.46h5.08Z"/><path class="cls-7" d="M29.21,158.61v0L24.6,157v-.45l5.06,1.82v.52l-5.06,1.85v-.5Z"/><path class="cls-7" d="M29.66,155.78H24.6v-3H25v2.55h1.82v-2.46h.42v2.46h2v-2.66h.42Z"/><path class="cls-7" d="M29.73,79.41H24.67V78.14c0-1,.23-2.06,1.43-2.06s1.45,1.09,1.43,2.06V79h2.2ZM27.11,79V77.85c0-.68-.22-1.28-1-1.28s-1,.6-1,1.28V79Z"/><path class="cls-7" d="M29.83,73.11c0,1.45-1,2.26-2.63,2.26s-2.63-.81-2.63-2.26,1.05-2.25,2.63-2.25S29.83,71.66,29.83,73.11Zm-.42,0c0-1.26-1.1-1.76-2.21-1.76S25,71.85,25,73.11s1.1,1.77,2.21,1.77S29.41,74.37,29.41,73.11Z"/><path class="cls-7" d="M29.83,68.48A1.46,1.46,0,0,1,28.41,70v-.49c.78,0,1-.59,1-1.27s-.33-1.21-1-1.21-.74.36-.88.79c-.28.82-.54,2.06-1.63,2.06a1.47,1.47,0,0,1-1.36-1.61,1.45,1.45,0,0,1,1.2-1.64v.49c-.62,0-.78.58-.78,1.1s.26,1.17.88,1.17c1.44,0,.78-2.85,2.53-2.85C29.5,66.52,29.83,67.46,29.83,68.48Z"/><path class="cls-7" d="M29.73,65.36H24.65v-.45h5.08Z"/><path class="cls-7" d="M25.09,62.58v1.63h-.42v-3.7h.42v1.6h4.64v.45Z"/><path class="cls-7" d="M29.73,59.66H24.65v-.45h5.08Z"/><path class="cls-7" d="M29.27,56.3h0l-4.6-1.6v-.46l5.06,1.83v.52l-5.06,1.85v-.5Z"/><path class="cls-7" d="M29.73,53.48H24.67v-3h.42V53h1.82V50.57h.42V53h2V50.37h.42Z"/><text class="cls-1" transform="translate(178.67 5.86)"><tspan class="cls-2">Z</tspan><tspan x="3.72" y="0">ONE OF ENG</tspan><tspan class="cls-8" x="40.37" y="0">A</tspan><tspan x="44.55" y="0">GEMENT</tspan></text><rect class="cls-9" x="37.17" y="13.39" width="131" height="103"/><rect class="cls-9" x="171.17" y="13.39" width="131" height="103"/><rect class="cls-9" x="37.17" y="119.39" width="131" height="124.32"/><rect class="cls-9" x="171.17" y="119.39" width="131" height="124.32"/><text class="cls-1" transform="translate(44.67 131.86)"><tspan class="cls-2">Z</tspan><tspan x="3.72" y="0">ONE OF DISENG</tspan><tspan class="cls-8" x="50.15" y="0">A</tspan><tspan x="54.33" y="0">GEMENT</tspan></text><text class="cls-1" transform="translate(178.67 131.86)"><tspan class="cls-2">Z</tspan><tspan x="3.72" y="0">ONE OF PSEUD</tspan><tspan class="cls-10" x="47.61" y="0">O</tspan><tspan x="52.53" y="0">-ENG</tspan><tspan class="cls-8" x="67.25" y="0">A</tspan><tspan class="cls-11" x="71.43" y="0">GEMENT</tspan></text><text class="cls-12" transform="translate(44.15 28.97)"><tspan xml:space="preserve">•  </tspan><tspan class="cls-13" x="3.53" y="0">S</tspan><tspan class="cls-14" x="6.96" y="0">tuck in their </tspan><tspan class="cls-15" x="43.16" y="0">w</tspan><tspan class="cls-16" x="48.29" y="0">a</tspan><tspan class="cls-17" x="51.61" y="0">y</tspan><tspan class="cls-14" x="54.86" y="0">s</tspan><tspan x="0" y="11" xml:space="preserve">•  </tspan><tspan class="cls-14" x="3.53" y="11">Lack of st</tspan><tspan class="cls-18" x="30.57" y="11">r</tspan><tspan class="cls-14" x="32.79" y="11">e</tspan><tspan class="cls-17" x="36.3" y="11">t</tspan><tspan class="cls-14" x="38.57" y="11">ch/challenge</tspan><tspan x="0" y="22" xml:space="preserve">•  </tspan><tspan class="cls-14" x="3.53" y="22">No</tspan><tspan class="cls-19" x="11.98" y="22"> </tspan><tspan class="cls-20" x="12.88" y="22">“</tspan><tspan class="cls-14" x="15.12" y="22">ab</tspan><tspan class="cls-21" x="22.47" y="22">o</tspan><tspan class="cls-18" x="26.27" y="22">v</tspan><tspan class="cls-14" x="29.56" y="22">e and be</tspan><tspan class="cls-18" x="54.73" y="22">y</tspan><tspan class="cls-14" x="57.96" y="22">on</tspan><tspan class="cls-22" x="65.69" y="22">d</tspan><tspan class="cls-23" x="69.68" y="22">”</tspan><tspan x="0" y="33" xml:space="preserve">•  </tspan><tspan class="cls-24" x="3.53" y="33">L</tspan><tspan class="cls-14" x="6.74" y="33">ongevi</tspan><tspan class="cls-25" x="26.89" y="33">t</tspan><tspan class="cls-14" x="29.27" y="33">y of se</tspan><tspan class="cls-26" x="47.7" y="33">r</tspan><tspan class="cls-14" x="50.16" y="33">vi</tspan><tspan class="cls-17" x="55.17" y="33">c</tspan><tspan class="cls-14" x="58.26" y="33">e</tspan><tspan x="0" y="44" xml:space="preserve">•  </tspan><tspan class="cls-27" x="3.53" y="44">T</tspan><tspan class="cls-14" x="6.51" y="44">ole</tspan><tspan class="cls-28" x="15.51" y="44">r</tspan><tspan class="cls-29" x="17.77" y="44">a</tspan><tspan class="cls-14" x="21.11" y="44">ting </tspan><tspan class="cls-17" x="34.35" y="44">t</tspan><tspan class="cls-14" x="36.63" y="44">eam dynamic</tspan><tspan x="0" y="55" xml:space="preserve">•  </tspan><tspan class="cls-30" x="3.53" y="55">R</tspan><tspan class="cls-14" x="7.32" y="55">esista</tspan><tspan class="cls-15" x="23.7" y="55">n</tspan><tspan class="cls-14" x="27.56" y="55">t </tspan><tspan class="cls-17" x="31.36" y="55">t</tspan><tspan class="cls-14" x="33.64" y="55">o change</tspan></text><text class="cls-12" transform="translate(178.56 28.97)"><tspan xml:space="preserve">•  </tspan><tspan class="cls-22" x="3.53" y="0">S</tspan><tspan class="cls-14" x="7.02" y="0">olution-</tspan><tspan class="cls-31" x="30.21" y="0">f</tspan><tspan class="cls-14" x="32.16" y="0">ocused</tspan><tspan x="0" y="11" xml:space="preserve">•  </tspan><tspan class="cls-32" x="3.53" y="11">W</tspan><tspan class="cls-14" x="9.34" y="11">illing </tspan><tspan class="cls-17" x="25.2" y="11">t</tspan><tspan class="cls-14" x="27.48" y="11">o inn</tspan><tspan class="cls-33" x="42.21" y="11">o</tspan><tspan class="cls-29" x="46.01" y="11">va</tspan><tspan class="cls-17" x="52.69" y="11">t</tspan><tspan class="cls-14" x="54.96" y="11">e</tspan><tspan x="0" y="22" xml:space="preserve">•  </tspan><tspan class="cls-14" x="3.53" y="22">Sha</tspan><tspan class="cls-18" x="14.24" y="22">r</tspan><tspan class="cls-14" x="16.46" y="22">ed leadership</tspan><tspan x="0" y="33" xml:space="preserve">•  </tspan><tspan class="cls-34" x="3.53" y="33">T</tspan><tspan class="cls-14" x="6.69" y="33">rus</tspan><tspan class="cls-13" x="15.61" y="33">t</tspan><tspan class="cls-14" x="17.91" y="33">, emp</tspan><tspan class="cls-33" x="34.17" y="33">o</tspan><tspan class="cls-18" x="37.96" y="33">w</tspan><tspan class="cls-14" x="43.04" y="33">e</tspan><tspan class="cls-30" x="46.55" y="33">r</tspan><tspan class="cls-14" x="48.87" y="33">me</tspan><tspan class="cls-15" x="58.21" y="33">n</tspan><tspan class="cls-14" x="62.07" y="33">t </tspan><tspan class="cls-14"><tspan x="0" y="44" xml:space="preserve">   and openness</tspan></tspan><tspan x="0" y="55" xml:space="preserve">•  </tspan><tspan class="cls-22" x="3.53" y="55">S</tspan><tspan class="cls-14" x="7.02" y="55">ense of pu</tspan><tspan class="cls-30" x="37.39" y="55">r</tspan><tspan class="cls-14" x="39.71" y="55">pose and vision</tspan><tspan x="0" y="66" xml:space="preserve">•  </tspan><tspan class="cls-35" x="3.53" y="66">G</tspan><tspan class="cls-14" x="8.09" y="66">ood </tspan><tspan class="cls-36" x="21.2" y="66">w</tspan><tspan class="cls-14" x="26.29" y="66">o</tspan><tspan class="cls-37" x="30.13" y="66">r</tspan><tspan class="cls-14" x="32.45" y="66">k li</tspan><tspan class="cls-38" x="40.5" y="66">f</tspan><tspan class="cls-14" x="42.46" y="66">e balan</tspan><tspan class="cls-17" x="63.71" y="66">c</tspan><tspan class="cls-14" x="66.81" y="66">e</tspan></text><text class="cls-12" transform="translate(44.15 147.87)"><tspan xml:space="preserve">•  </tspan><tspan class="cls-14" x="3.53" y="0">Closed and cliquey</tspan><tspan x="0" y="11" xml:space="preserve">•  </tspan><tspan class="cls-39" x="3.53" y="11">R</tspan><tspan class="cls-14" x="7.37" y="11">i</tspan><tspan class="cls-17" x="9" y="11">g</tspan><tspan class="cls-14" x="12.88" y="11">id hie</tspan><tspan class="cls-28" x="28.98" y="11">r</tspan><tspan class="cls-14" x="31.23" y="11">ac</tspan><tspan class="cls-31" x="37.74" y="11">h</tspan><tspan class="cls-14" x="41.53" y="11">y – </tspan><tspan class="cls-36" x="51.3" y="11">w</tspan><tspan class="cls-14" x="56.38" y="11">o</tspan><tspan class="cls-37" x="60.22" y="11">r</tspan><tspan class="cls-14" x="62.54" y="11">k </tspan><tspan class="cls-17" x="67.31" y="11">t</tspan><tspan class="cls-14" x="69.58" y="11">o rul</tspan><tspan class="cls-40" x="82.71" y="11">e</tspan><tspan class="cls-14" x="86.13" y="11">,</tspan><tspan class="cls-14"><tspan x="0" y="22" xml:space="preserve">   </tspan><tspan class="cls-41" x="4.45" y="22">w</tspan><tspan x="9.53" y="22">o</tspan><tspan class="cls-42" x="13.38" y="22">r</tspan><tspan x="15.69" y="22">k </tspan><tspan class="cls-43" x="20.46" y="22">t</tspan><tspan x="22.73" y="22">o silo</tspan></tspan><tspan x="0" y="33" xml:space="preserve">•  </tspan><tspan class="cls-14" x="3.53" y="33">Neg</tspan><tspan class="cls-15" x="15.56" y="33">a</tspan><tspan class="cls-14" x="18.9" y="33">ti</tspan><tspan class="cls-36" x="22.86" y="33">v</tspan><tspan class="cls-14" x="26.15" y="33">e </tspan><tspan class="cls-15" x="31.14" y="33">a</tspan><tspan class="cls-14" x="34.49" y="33">ttitudes; </tspan><tspan class="cls-14"><tspan x="0" y="44" xml:space="preserve">   vi</tspan><tspan class="cls-44" x="9.46" y="44">c</tspan><tspan x="12.68" y="44">tim me</tspan><tspan class="cls-4" x="33.3" y="44">n</tspan><tspan x="37.16" y="44">tali</tspan><tspan class="cls-45" x="46.14" y="44">t</tspan><tspan x="48.52" y="44">y</tspan></tspan><tspan x="0" y="55" xml:space="preserve">•  </tspan><tspan class="cls-14" x="3.53" y="55">Lack of trust</tspan><tspan x="0" y="66" xml:space="preserve">•  </tspan><tspan class="cls-24" x="3.53" y="66">L</tspan><tspan class="cls-33" x="6.74" y="66">o</tspan><tspan class="cls-14" x="10.53" y="66">w </tspan><tspan class="cls-17" x="17.17" y="66">t</tspan><tspan class="cls-14" x="19.44" y="66">eam st</tspan><tspan class="cls-15" x="38.73" y="66">a</tspan><tspan class="cls-14" x="42.08" y="66">tu</tspan><tspan class="cls-46" x="48.25" y="66">s</tspan><tspan class="cls-14" x="50.95" y="66">, </tspan><tspan class="cls-14"><tspan x="0" y="77" xml:space="preserve">   little </tspan><tspan class="cls-47" x="19.02" y="77">f</tspan><tspan x="20.97" y="77">eedback</tspan></tspan><tspan x="0" y="88" xml:space="preserve">•  </tspan><tspan class="cls-14" x="3.53" y="88">Lack of pu</tspan><tspan class="cls-30" x="33.32" y="88">r</tspan><tspan class="cls-14" x="35.64" y="88">pose and vision</tspan></text><text class="cls-12" transform="translate(178.56 147.87)"><tspan xml:space="preserve">•  </tspan><tspan class="cls-48" x="3.53" y="0">P</tspan><tspan class="cls-14" x="7.22" y="0">l</tspan><tspan class="cls-49" x="8.87" y="0">a</tspan><tspan class="cls-14" x="12.19" y="0">ying the s</tspan><tspan class="cls-17" x="40.37" y="0">y</tspan><tspan class="cls-14" x="43.63" y="0">s</tspan><tspan class="cls-17" x="46.4" y="0">t</tspan><tspan class="cls-14" x="48.67" y="0">em</tspan><tspan x="0" y="11" xml:space="preserve">•  </tspan><tspan class="cls-14" x="3.53" y="11">Not going ab</tspan><tspan class="cls-33" x="41.81" y="11">o</tspan><tspan class="cls-18" x="45.61" y="11">v</tspan><tspan class="cls-14" x="48.9" y="11">e </tspan><tspan class="cls-14"><tspan x="0" y="22" xml:space="preserve">   and be</tspan><tspan class="cls-41" x="24.63" y="22">y</tspan><tspan x="27.86" y="22">ond</tspan></tspan><tspan x="0" y="33" xml:space="preserve">•  </tspan><tspan class="cls-24" x="3.53" y="33">L</tspan><tspan class="cls-33" x="6.74" y="33">o</tspan><tspan class="cls-14" x="10.53" y="33">w p</tspan><tspan class="cls-18" x="21.15" y="33">r</tspan><tspan class="cls-50" x="23.37" y="33">o</tspan><tspan class="cls-14" x="27.32" y="33">-social beh</tspan><tspan class="cls-16" x="58.74" y="33">a</tspan><tspan class="cls-14" x="62.06" y="33">viours</tspan><tspan x="0" y="44" xml:space="preserve">•  </tspan><tspan class="cls-24" x="3.53" y="44">L</tspan><tspan class="cls-14" x="6.74" y="44">oo</tspan><tspan class="cls-51" x="14.42" y="44">k</tspan><tspan class="cls-14" x="17.82" y="44">ing good </tspan><tspan class="cls-17" x="45.77" y="44">t</tspan><tspan class="cls-14" x="48.05" y="44">o </tspan><tspan class="cls-31" x="53.38" y="44">m</tspan><tspan class="cls-14" x="59.12" y="44">y boss</tspan><tspan x="0" y="55" xml:space="preserve">•  </tspan><tspan class="cls-14" x="3.53" y="55">Ba</tspan><tspan class="cls-30" x="10.7" y="55">rr</tspan><tspan class="cls-14" x="15.33" y="55">iers </tspan><tspan class="cls-17" x="27.02" y="55">t</tspan><tspan class="cls-14" x="29.3" y="55">o di</tspan><tspan class="cls-36" x="40.21" y="55">v</tspan><tspan class="cls-14" x="43.51" y="55">ersi</tspan><tspan class="cls-25" x="53.71" y="55">t</tspan><tspan class="cls-14" x="56.09" y="55">y</tspan><tspan x="0" y="66" xml:space="preserve">•  </tspan><tspan class="cls-14" x="3.53" y="66">Enga</tspan><tspan class="cls-17" x="18.15" y="66">g</tspan><tspan class="cls-14" x="22.02" y="66">ing as a </tspan><tspan class="cls-17" x="45.42" y="66">g</tspan><tspan class="cls-18" x="49.3" y="66">r</tspan><tspan class="cls-14" x="51.52" y="66">oup of individual</tspan><tspan class="cls-52" x="101" y="66">s</tspan><tspan class="cls-14" x="103.69" y="66">, </tspan><tspan class="cls-14"><tspan x="0" y="77" xml:space="preserve">   not a </tspan><tspan class="cls-43" x="20.84" y="77">t</tspan><tspan x="23.11" y="77">eam</tspan></tspan></text></g></g></svg>