<svg xmlns="http://www.w3.org/2000/svg" viewBox="0 0 143.99 82.3"><defs><style>.cls-1{fill:#f29111;}</style></defs><title>tm-puzzle</title><g id="Layer_2" data-name="Layer 2"><g id="Icons"><path class="cls-1" d="M30.26,23.72A6,6,0,0,1,22,29.16c-3.06-1.28-6.27-2.39-8.24-2.42a13.5,13.5,0,1,0-.42,27c2,0,5.21-1,8.31-2.16a6,6,0,0,1,8.14,5.7L29.37,81l25.21.39a6,6,0,0,0,5.7-8.14c-1.18-3.1-2.19-6.34-2.16-8.3a13.5,13.5,0,1,1,27,.42c0,2-1.14,5.17-2.42,8.23a6,6,0,0,0,5.44,8.32l25.22.39.37-23.72A6,6,0,0,1,122,53.14c3.06,1.28,6.27,2.39,8.24,2.42a13.5,13.5,0,0,0,.42-27c-2,0-5.21,1-8.31,2.16a6,6,0,0,1-8.14-5.7l.37-23.71L30.63,0l-.37,23.72Z"/></g></g></svg>