<svg xmlns="http://www.w3.org/2000/svg" viewBox="0 0 296.21 364.93"><defs><style>.cls-1,.cls-12{fill:#f29111;}.cls-1,.cls-3,.cls-4,.cls-5,.cls-6,.cls-7{fill-rule:evenodd;}.cls-2,.cls-5{fill:#fff;}.cls-3{fill:#6d8c9e;}.cls-4{fill:#cad9de;}.cls-6{fill:#e9eaea;}.cls-7{fill:#939699;}.cls-8{fill:#cdb498;}.cls-9{fill:#b29d86;}.cls-10{fill:#00758f;}.cls-11{fill:#00586e;}</style></defs><title>user1_1</title><g id="Layer_2" data-name="Layer 2"><g id="Icons"><path class="cls-1" d="M89.55,109.27A44.78,44.78,0,1,1,44.77,64.49a44.78,44.78,0,0,1,44.78,44.78Z"/><path class="cls-2" d="M29.83,130.81v-5a1.63,1.63,0,0,1,1.63-1.64h2.07V112H31.46a1.63,1.63,0,0,1-1.63-1.63v-5a1.63,1.63,0,0,1,1.63-1.63h2.07v-2c0-9.12,6.24-15.7,14.88-15.7a23.75,23.75,0,0,1,10.26,2.49,1.64,1.64,0,0,1,.74,2.22L57.2,95.14a1.62,1.62,0,0,1-2.24.69,11,11,0,0,0-5.45-1.51c-4,0-6.45,3-6.45,8.23v1.23H50.2a1.63,1.63,0,0,1,1.64,1.63v5A1.63,1.63,0,0,1,50.2,112H43.06v12.13h15a1.63,1.63,0,0,1,1.63,1.64v5a1.63,1.63,0,0,1-1.63,1.63H31.46a1.63,1.63,0,0,1-1.63-1.63Z"/><path class="cls-3" d="M121.54,127.4l2.36,4.73a12,12,0,0,0,10.74,6.64h97.58a18,18,0,0,1,18,18v12h-192v-48H110.8a12,12,0,0,1,10.74,6.63Z"/><path class="cls-4" d="M232.22,138.77h-93a12,12,0,0,0-9.6,4.8l-1.8,2.4a12,12,0,0,1-9.6,4.8h-54a6,6,0,0,0-6,6v108h192v-108a18,18,0,0,0-18-18Z"/><polygon class="cls-5" points="67.22 141.77 112.22 141.77 112.22 129.77 67.22 129.77 67.22 141.77 67.22 141.77"/><path class="cls-5" d="M86.22,285.77a7,7,0,0,1-7-7v-91a7,7,0,0,1,7-7h136a7,7,0,0,1,7,7v91a7,7,0,0,1-7,7Z"/><path class="cls-6" d="M226.22,278.77a4,4,0,0,1-4,4h-136a4,4,0,0,1-4-4v-91a4,4,0,0,1,4-4h136a4,4,0,0,1,4,4v91Z"/><polygon class="cls-7" points="208.22 243.77 157.22 243.77 157.22 237.77 208.22 237.77 208.22 243.77 208.22 243.77"/><polygon class="cls-7" points="208.22 225.77 157.22 225.77 157.22 219.77 208.22 219.77 208.22 225.77 208.22 225.77"/><polygon class="cls-7" points="208.22 207.77 157.22 207.77 157.22 201.77 208.22 201.77 208.22 207.77 208.22 207.77"/><polygon class="cls-7" points="208.22 261.77 100.22 261.77 100.22 255.77 208.22 255.77 208.22 261.77 208.22 261.77"/><polygon class="cls-5" points="142.22 243.77 100.22 243.77 100.22 201.77 142.22 201.77 142.22 243.77 142.22 243.77"/><path class="cls-8" d="M127.8,231.73a2.55,2.55,0,0,1-1.46-2.31v-4.36H116.1v4.36a2.55,2.55,0,0,1-1.47,2.31h0c.06.08,1.91,2.16,6.59,2.16s6.53-2.08,6.59-2.16Z"/><path class="cls-9" d="M116.1,225.06v4.36a2.55,2.55,0,0,1-1.47,2.31h0a6.75,6.75,0,0,0,3.21,1.74,9.81,9.81,0,0,0,3.38-1.17h0l.5-.32a11.12,11.12,0,0,0,4.27-6l.26-.88Z"/><path d="M113.73,218.38l-.22.5H129l-.22-.5a29.24,29.24,0,0,0,.73-5.59,7.13,7.13,0,0,0-6.41-6.57l-1.25-1.64c-8.84.41-8.79,7.65-8.79,7.65v.88a29.73,29.73,0,0,0,.72,5.27Z"/><path class="cls-8" d="M128.07,217.38h-.35V215s.08-2.46-1-3a2,2,0,0,0-.85-.18c-1.13,0-2.26,1-4.63.9s-3.51-.92-4.64-.9a2,2,0,0,0-.85.18c-1.08.51-1,3-1,3v2.35h-.31a1.71,1.71,0,0,0-1.69,2l.36,2.56a1.7,1.7,0,0,0,1.64,1.46v0c.87,6.29,5.64,6.56,6.38,6.56h.23c.74,0,5.51-.27,6.38-6.56v0a1.7,1.7,0,0,0,1.68-1.46l.36-2.56a1.71,1.71,0,0,0-1.69-2Z"/><path class="cls-10" d="M142.22,243.77v-5.21l-14.41-6.83a12.62,12.62,0,0,1-6.59,7.84v4.2Z"/><path class="cls-11" d="M100.22,243.77h21v-4.2a12.66,12.66,0,0,1-6.6-7.84l-14.4,6.83v5.21Z"/><path class="cls-1" d="M296.21,316.47A30.5,30.5,0,1,1,265.71,286a30.5,30.5,0,0,1,30.5,30.49Z"/><path class="cls-2" d="M277.37,322.59c0-5.51-4.2-7.66-8.13-9.15-3.64-1.36-7.14-2.15-7.14-4.34s2-3.27,3.92-3.27a9.93,9.93,0,0,1,5.9,2.12,1.12,1.12,0,0,0,1.51-.2l2.24-2.76a1.12,1.12,0,0,0-.25-1.63,17.59,17.59,0,0,0-6.85-2.73v-4.17a1,1,0,0,0-.95-.95h-3.81a1,1,0,0,0-1,.95v4.28c-4.16.89-7.15,3.83-7.15,8.64,0,5.18,3.88,7.14,7.66,8.5s7.24,2.24,7.24,5.13c0,2.62-2,4-5.47,4-2.69,0-4.84-1.53-6.62-3.13a1.11,1.11,0,0,0-1.51,0l-2.6,2.52a1.11,1.11,0,0,0,0,1.62,16.06,16.06,0,0,0,8.43,4.23v4.19a1,1,0,0,0,1,.95h3.81a1,1,0,0,0,.95-.95v-4.33c4.77-.93,8.8-4,8.8-9.57Z"/><rect class="cls-12" x="191.54" y="91.18" width="87" height="59.81" rx="2.72" ry="2.72"/><path class="cls-2" d="M244.56,99.33a2.72,2.72,0,0,0-2.72,2.72v2.72a2.72,2.72,0,0,0,2.72,2.72h11.9l-20.26,20.3-11.9-11.9-32.73,32.74a2.72,2.72,0,0,0,2.69,2.36h6.48l23.56-23.56,11.9,11.9,26-26v11.86a2.72,2.72,0,0,0,2.72,2.72h2.72a2.72,2.72,0,0,0,2.72-2.72V99.33H244.56Z"/><path class="cls-1" d="M102,345.2a19.73,19.73,0,1,1-19.73-19.73A19.73,19.73,0,0,1,102,345.2Z"/><path class="cls-2" d="M72.46,341.47h1.85a10.37,10.37,0,0,1,9.75-6.62,11.87,11.87,0,0,1,5.74,1.57.72.72,0,0,1,.27,1L89,339.22a.72.72,0,0,1-1,.23,6.88,6.88,0,0,0-3.76-1.15,5.89,5.89,0,0,0-5.47,3.17h6.41a.72.72,0,0,1,.72.72v1.43a.72.72,0,0,1-.72.72H77.87a4.59,4.59,0,0,0-.06.91,5.16,5.16,0,0,0,.06,1h7.29a.73.73,0,0,1,.72.72v1.37a.72.72,0,0,1-.72.72h-6.5a6,6,0,0,0,5.56,3.14,6.87,6.87,0,0,0,3.9-1.25.7.7,0,0,1,1,.14l1.3,1.66a.72.72,0,0,1-.17,1,11.55,11.55,0,0,1-6.29,1.86,10,10,0,0,1-9.66-6.59H72.46a.72.72,0,0,1-.72-.72V347a.72.72,0,0,1,.72-.72h1.27c0-.33-.06-.63-.06-1a9.07,9.07,0,0,1,.06-.91H72.46a.72.72,0,0,1-.72-.72v-1.43a.72.72,0,0,1,.72-.72Z"/><path class="cls-1" d="M219.41,27.87A27.87,27.87,0,1,1,191.54,0a27.87,27.87,0,0,1,27.87,27.87Z"/><path class="cls-2" d="M182.6,27.08H187l-6.67-11.89a1,1,0,0,1,.89-1.51h4.49a1,1,0,0,1,.89.53l5.09,9.24h.09l4.75-9.22a1,1,0,0,1,.9-.55h4.42a1,1,0,0,1,.88,1.52L196,27.08h4.36a1,1,0,0,1,1,1v2a1,1,0,0,1-1,1h-5.9v2.39h5.9a1,1,0,0,1,1,1v1.93a1,1,0,0,1-1,1h-5.9V41a1,1,0,0,1-1,1h-3.9a1,1,0,0,1-1-1V37.45h-5.9a1,1,0,0,1-1-1V34.5a1,1,0,0,1,1-1h5.9V31.09h-5.9a1,1,0,0,1-1-1v-2a1,1,0,0,1,1-1Z"/></g></g></svg>