<svg xmlns="http://www.w3.org/2000/svg" viewBox="0 0 192 165"><defs><style>.cls-1{fill:#6d8c9e;}.cls-1,.cls-2,.cls-3,.cls-4,.cls-5{fill-rule:evenodd;}.cls-2{fill:#cad9de;}.cls-3{fill:#fff;}.cls-4{fill:#e9eaea;}.cls-5{fill:#939699;}.cls-6{fill:#cdb498;}.cls-7{fill:#b29d86;}.cls-8{fill:#00758f;}.cls-9{fill:#00586e;}</style></defs><title>user</title><g id="Layer_2" data-name="Layer 2"><g id="Icons"><path class="cls-1" d="M63.32,6.63l2.36,4.74A12,12,0,0,0,76.42,18H174a18,18,0,0,1,18,18V48H0V0H52.58A12,12,0,0,1,63.32,6.63Z"/><path class="cls-2" d="M174,18H81a12,12,0,0,0-9.6,4.8l-1.8,2.4A12,12,0,0,1,60,30H6a6,6,0,0,0-6,6V144H192V36a18,18,0,0,0-18-18Z"/><polygon class="cls-3" points="9 21 54 21 54 9 9 9 9 21 9 21"/><path class="cls-3" d="M28,165a7,7,0,0,1-7-7V67a7,7,0,0,1,7-7H164a7,7,0,0,1,7,7v91a7,7,0,0,1-7,7Z"/><path class="cls-4" d="M168,158a4,4,0,0,1-4,4H28a4,4,0,0,1-4-4V67a4,4,0,0,1,4-4H164a4,4,0,0,1,4,4v91Z"/><polygon class="cls-5" points="150 123 99 123 99 117 150 117 150 123 150 123"/><polygon class="cls-5" points="150 105 99 105 99 99 150 99 150 105 150 105"/><polygon class="cls-5" points="150 87 99 87 99 81 150 81 150 87 150 87"/><polygon class="cls-5" points="150 141 42 141 42 135 150 135 150 141 150 141"/><polygon class="cls-3" points="84 123 42 123 42 81 84 81 84 123 84 123"/><path class="cls-6" d="M69.58,111a2.55,2.55,0,0,1-1.46-2.31V104.3H57.88v4.35A2.55,2.55,0,0,1,56.41,111h0c.06.07,1.91,2.16,6.59,2.16S69.53,111,69.59,111Z"/><path class="cls-7" d="M57.88,104.3v4.35A2.55,2.55,0,0,1,56.41,111h0a6.69,6.69,0,0,0,3.21,1.73A9.79,9.79,0,0,0,63,111.54h0a5.29,5.29,0,0,0,.5-.32,11.13,11.13,0,0,0,4.27-6l.26-.88Z"/><path d="M55.51,97.62l-.22.49H70.73l-.22-.49a29.26,29.26,0,0,0,.73-5.6,7.13,7.13,0,0,0-6.41-6.57l-1.25-1.64c-8.84.42-8.79,7.65-8.79,7.65v.88a29.92,29.92,0,0,0,.72,5.28Z"/><path class="cls-6" d="M69.85,96.62H69.5V94.27s.08-2.47-1-3a1.87,1.87,0,0,0-.85-.17c-1.13,0-2.26.95-4.63.9s-3.51-.93-4.64-.9a1.87,1.87,0,0,0-.85.17c-1.08.51-1,3-1,3v2.35H56.2a1.7,1.7,0,0,0-1.69,1.94l.36,2.56a1.71,1.71,0,0,0,1.64,1.47v0c.87,6.29,5.64,6.56,6.38,6.57h.23c.74,0,5.51-.28,6.38-6.57v0a1.72,1.72,0,0,0,1.68-1.47l.36-2.56a1.7,1.7,0,0,0-1.69-1.94Z"/><path class="cls-8" d="M84,123v-5.21L69.59,111A12.65,12.65,0,0,1,63,118.81V123Z"/><path class="cls-9" d="M42,123H63v-4.19A12.68,12.68,0,0,1,56.4,111L42,117.79V123Z"/></g></g></svg>