<svg xmlns="http://www.w3.org/2000/svg" viewBox="0 0 125.31 137.03"><defs><style>.cls-1{fill:#1b1c20;}</style></defs><title>vector1</title><g id="Layer_2" data-name="Layer 2"><g id="Icons"><path class="cls-1" d="M25.61,78.11a15,15,0,1,0,0,21.21,15,15,0,0,0,0-21.21Zm-4.25,4.24a9,9,0,1,1-12.72,0,9,9,0,0,1,12.72,0"/><path class="cls-1" d="M59.16,19.5h11.5a2,2,0,0,0,2-2v-2a2,2,0,0,0-2-2H59.16V2a2,2,0,0,0-2-2h-2a2,2,0,0,0-2,2V13.5H41.66a2,2,0,0,0-2,2v2a2,2,0,0,0,2,2h11.5V31a2,2,0,0,0,2,2h2a2,2,0,0,0,2-2V19.5Z"/><path class="cls-1" d="M79.52,123.53H91a2,2,0,0,0,2-2v-2a2,2,0,0,0-2-2H79.52V106a2,2,0,0,0-2-2h-2a2,2,0,0,0-2,2v11.5H62a2,2,0,0,0-2,2v2a2,2,0,0,0,2,2h11.5V135a2,2,0,0,0,2,2h2a2,2,0,0,0,2-2v-11.5Z"/><path class="cls-1" d="M111.87,45.58a2,2,0,0,0-2.82,0L107.63,47a2,2,0,0,0,0,2.83L114,56.17c-40.89-.73-77.45,16.35-79.05,17.11a3,3,0,0,0-1.43,4,3,3,0,0,0,.59.84,3,3,0,0,0,3.41.59c.38-.18,36.68-17.15,76.17-16.53l-6,6a2,2,0,0,0,0,2.83l1.42,1.41a2,2,0,0,0,2.82,0L125.31,59,111.87,45.58Z"/></g></g></svg>