<svg xmlns="http://www.w3.org/2000/svg" viewBox="0 0 156 198"><defs><style>.cls-1{fill:none;stroke:#1b1c20;stroke-linejoin:round;stroke-width:6px;}.cls-1,.cls-2{fill-rule:evenodd;}.cls-2,.cls-3{fill:#1b1c20;}</style></defs><title>vector2</title><g id="Layer_2" data-name="Layer 2"><g id="Icons"><polygon class="cls-1" points="3 33 33 33 33 3 3 33 3 33"/><polygon class="cls-1" points="33 3 153 3 153 195 3 195 3 33 33 33 33 3 33 3"/><polygon class="cls-2" points="123 64.5 69 64.5 69 58.5 123 58.5 123 64.5 123 64.5"/><polygon class="cls-2" points="123 43.5 69 43.5 69 37.5 123 37.5 123 43.5 123 43.5"/><polygon class="cls-2" points="108 112.5 69 112.5 69 106.5 108 106.5 108 112.5 108 112.5"/><polygon class="cls-2" points="123 91.5 69 91.5 69 85.5 123 85.5 123 91.5 123 91.5"/><path class="cls-3" d="M33.58,90.58a2,2,0,0,1,0-2.83L35,86.34a2,2,0,0,1,2.83,0l20.5,20.5a2,2,0,0,1,0,2.83l-1.41,1.42a2,2,0,0,1-2.83,0L33.58,90.58Z"/><path class="cls-3" d="M54.09,86.34a2,2,0,0,1,2.83,0l1.41,1.41a2,2,0,0,1,0,2.83l-20.5,20.51a2,2,0,0,1-2.83,0l-1.42-1.42a2,2,0,0,1,0-2.83l20.51-20.5Z"/><polygon class="cls-2" points="108 160 69 160 69 154 108 154 108 160 108 160"/><polygon class="cls-2" points="123 139 69 139 69 133 123 133 123 139 123 139"/><path class="cls-3" d="M33.58,138.08a2,2,0,0,1,0-2.83L35,133.84a2,2,0,0,1,2.83,0l20.5,20.5a2,2,0,0,1,0,2.83l-1.41,1.42a2,2,0,0,1-2.83,0L33.58,138.08Z"/><path class="cls-3" d="M54.09,133.84a2,2,0,0,1,2.83,0l1.41,1.41a2,2,0,0,1,0,2.83l-20.5,20.51a2,2,0,0,1-2.83,0l-1.42-1.42a2,2,0,0,1,0-2.83l20.51-20.5Z"/><path class="cls-3" d="M38.54,57.26l-4.95-4.95a2,2,0,0,1,0-2.83L35,48.07a2,2,0,0,1,2.83,0l5,5L54.09,41.7a2,2,0,0,1,2.83,0l1.41,1.42a2,2,0,0,1,0,2.82L47,57.26,42.78,61.5l-4.24-4.24Z"/></g></g></svg>