<svg xmlns="http://www.w3.org/2000/svg" viewBox="0 0 30 30"><defs><style>.cls-1{fill:#dee0e0;}.cls-2{fill:#cdb498;fill-rule:evenodd;}.cls-3{fill:#3a913f;}</style></defs><title>xmas-tree</title><g id="Layer_2" data-name="Layer 2"><g id="Isolation_Mode" data-name="Isolation Mode"><polygon class="cls-1" points="30 30 0 30 0 0 30 0 30 30 30 30"/><polygon class="cls-2" points="13.5 25.29 13.5 13.29 16.5 13.29 16.5 25.29 13.5 25.29 13.5 25.29"/><path class="cls-3" d="M22.4,19.24l0,0-.05-.09a.14.14,0,0,0,0-.06l-5.47-13h0a2,2,0,0,0-3.67-.16h0v0h0L7.6,19.14l0,0a1.82,1.82,0,0,0-.14.7,2,2,0,0,0,2,2H20.54a2,2,0,0,0,2-2,1.9,1.9,0,0,0-.12-.63"/></g></g></svg>